GeezHandwritingDotsArrRules.ufo
<glyph name="quotedbl" format="2">
  <advance width="512"/>
  <unicode hex="0022"/>
  <outline>
    <contour>
      <point x="403" y="1276" type="curve" smooth="yes"/>
      <point x="403" y="1241"/>
      <point x="385" y="1223"/>
      <point x="350" y="1223" type="curve" smooth="yes"/>
      <point x="315" y="1223"/>
      <point x="299" y="1241"/>
      <point x="299" y="1276" type="curve" smooth="yes"/>
      <point x="299" y="1311"/>
      <point x="315" y="1327"/>
      <point x="350" y="1327" type="curve" smooth="yes"/>
      <point x="385" y="1327"/>
      <point x="403" y="1311"/>
    </contour>
    <contour>
      <point x="199" y="1276" type="curve" smooth="yes"/>
      <point x="199" y="1241"/>
      <point x="180" y="1223"/>
      <point x="145" y="1223" type="curve" smooth="yes"/>
      <point x="111" y="1223"/>
      <point x="94" y="1241"/>
      <point x="94" y="1276" type="curve" smooth="yes"/>
      <point x="94" y="1311"/>
      <point x="111" y="1327"/>
      <point x="145" y="1327" type="curve" smooth="yes"/>
      <point x="180" y="1327"/>
      <point x="199" y="1311"/>
    </contour>
    <contour>
      <point x="403" y="1071" type="curve" smooth="yes"/>
      <point x="403" y="1036"/>
      <point x="385" y="1018"/>
      <point x="350" y="1018" type="curve" smooth="yes"/>
      <point x="315" y="1018"/>
      <point x="299" y="1036"/>
      <point x="299" y="1071" type="curve" smooth="yes"/>
      <point x="299" y="1106"/>
      <point x="315" y="1122"/>
      <point x="350" y="1122" type="curve" smooth="yes"/>
      <point x="385" y="1122"/>
      <point x="403" y="1106"/>
    </contour>
    <contour>
      <point x="199" y="1071" type="curve" smooth="yes"/>
      <point x="199" y="1036"/>
      <point x="180" y="1018"/>
      <point x="145" y="1018" type="curve" smooth="yes"/>
      <point x="111" y="1018"/>
      <point x="94" y="1036"/>
      <point x="94" y="1071" type="curve" smooth="yes"/>
      <point x="94" y="1106"/>
      <point x="111" y="1122"/>
      <point x="145" y="1122" type="curve" smooth="yes"/>
      <point x="180" y="1122"/>
      <point x="199" y="1106"/>
    </contour>
  </outline>
</glyph>
<glyph name="percent" format="2">
  <advance width="1126"/>
  <unicode hex="0025"/>
  <outline>
    <contour>
      <point x="911" y="1239" type="curve" smooth="yes"/>
      <point x="911" y="1204"/>
      <point x="895" y="1186"/>
      <point x="860" y="1186" type="curve" smooth="yes"/>
      <point x="825" y="1186"/>
      <point x="807" y="1204"/>
      <point x="807" y="1239" type="curve" smooth="yes"/>
      <point x="807" y="1274"/>
      <point x="825" y="1290"/>
      <point x="860" y="1290" type="curve" smooth="yes"/>
      <point x="895" y="1290"/>
      <point x="911" y="1274"/>
    </contour>
    <contour>
      <point x="827" y="1061" type="curve" smooth="yes"/>
      <point x="827" y="1026" name=".hr01"/>
      <point x="809" y="1008"/>
      <point x="774" y="1008" type="curve" smooth="yes"/>
      <point x="739" y="1008"/>
      <point x="723" y="1026" name=".hr02"/>
      <point x="723" y="1061" type="curve" smooth="yes" name=".hr03"/>
      <point x="723" y="1096"/>
      <point x="739" y="1112"/>
      <point x="774" y="1112" type="curve" smooth="yes" name=".hr04"/>
      <point x="809" y="1112"/>
      <point x="827" y="1096"/>
    </contour>
    <contour>
      <point x="553" y="1135" type="curve" smooth="yes" name=".hr05"/>
      <point x="553" y="1100"/>
      <point x="535" y="1081"/>
      <point x="500" y="1081" type="curve" smooth="yes"/>
      <point x="465" y="1081"/>
      <point x="449" y="1100"/>
      <point x="449" y="1135" type="curve" smooth="yes"/>
      <point x="449" y="1169"/>
      <point x="465" y="1186"/>
      <point x="500" y="1186" type="curve" smooth="yes"/>
      <point x="535" y="1186"/>
      <point x="553" y="1169"/>
    </contour>
    <contour>
      <point x="387" y="1243" type="curve" smooth="yes"/>
      <point x="387" y="1208"/>
      <point x="369" y="1190"/>
      <point x="334" y="1190" type="curve" smooth="yes"/>
      <point x="299" y="1190" name=".hr06"/>
      <point x="283" y="1208" name=".hr07"/>
      <point x="283" y="1243" type="curve" smooth="yes"/>
      <point x="283" y="1278"/>
      <point x="299" y="1294" name=".hr08"/>
      <point x="334" y="1294" type="curve" smooth="yes"/>
      <point x="369" y="1294"/>
      <point x="387" y="1278" name=".hr09"/>
    </contour>
    <contour>
      <point x="739" y="877" type="curve" smooth="yes"/>
      <point x="739" y="842"/>
      <point x="721" y="823"/>
      <point x="686" y="823" type="curve" smooth="yes"/>
      <point x="651" y="823"/>
      <point x="635" y="842"/>
      <point x="635" y="877" type="curve" smooth="yes"/>
      <point x="635" y="911"/>
      <point x="651" y="928"/>
      <point x="686" y="928" type="curve" smooth="yes"/>
      <point x="721" y="928"/>
      <point x="739" y="911"/>
    </contour>
    <contour>
      <point x="524" y="952" type="curve" smooth="yes"/>
      <point x="524" y="918"/>
      <point x="506" y="899"/>
      <point x="471" y="899" type="curve" smooth="yes"/>
      <point x="436" y="899"/>
      <point x="420" y="918"/>
      <point x="420" y="952" type="curve" smooth="yes"/>
      <point x="420" y="987" name=".hr10"/>
      <point x="436" y="1004"/>
      <point x="471" y="1004" type="curve" smooth="yes"/>
      <point x="506" y="1004"/>
      <point x="524" y="987"/>
    </contour>
    <contour>
      <point x="223" y="1155" type="curve" smooth="yes"/>
      <point x="223" y="1120"/>
      <point x="207" y="1104"/>
      <point x="172" y="1104" type="curve" smooth="yes"/>
      <point x="137" y="1104"/>
      <point x="119" y="1120"/>
      <point x="119" y="1155" type="curve" smooth="yes"/>
      <point x="119" y="1190"/>
      <point x="137" y="1208"/>
      <point x="172" y="1208" type="curve" smooth="yes"/>
      <point x="207" y="1208"/>
      <point x="223" y="1190"/>
    </contour>
    <contour>
      <point x="643" y="674" type="curve" smooth="yes"/>
      <point x="643" y="639" name=".hr11"/>
      <point x="627" y="621" name=".hr12"/>
      <point x="592" y="621" type="curve" smooth="yes"/>
      <point x="557" y="621"/>
      <point x="539" y="639" name=".hr13"/>
      <point x="539" y="674" type="curve" smooth="yes"/>
      <point x="539" y="709"/>
      <point x="557" y="725"/>
      <point x="592" y="725" type="curve" smooth="yes"/>
      <point x="627" y="725"/>
      <point x="643" y="709"/>
    </contour>
    <contour>
      <point x="983" y="326" type="curve" smooth="yes"/>
      <point x="983" y="291"/>
      <point x="965" y="272"/>
      <point x="930" y="272" type="curve" smooth="yes"/>
      <point x="895" y="272"/>
      <point x="879" y="291"/>
      <point x="879" y="326" type="curve" smooth="yes"/>
      <point x="879" y="360"/>
      <point x="895" y="377"/>
      <point x="930" y="377" type="curve" smooth="yes"/>
      <point x="965" y="377"/>
      <point x="983" y="360"/>
    </contour>
    <contour>
      <point x="387" y="883" type="curve" smooth="yes"/>
      <point x="387" y="848"/>
      <point x="369" y="829"/>
      <point x="334" y="829" type="curve" smooth="yes"/>
      <point x="299" y="829"/>
      <point x="283" y="848"/>
      <point x="283" y="883" type="curve" smooth="yes"/>
      <point x="283" y="918"/>
      <point x="299" y="934"/>
      <point x="334" y="934" type="curve" smooth="yes"/>
      <point x="369" y="934"/>
      <point x="387" y="918"/>
    </contour>
    <contour>
      <point x="817" y="434" type="curve" smooth="yes"/>
      <point x="817" y="399"/>
      <point x="799" y="383"/>
      <point x="764" y="383" type="curve" smooth="yes"/>
      <point x="729" y="383"/>
      <point x="713" y="399"/>
      <point x="713" y="434" type="curve" smooth="yes"/>
      <point x="713" y="469"/>
      <point x="729" y="487"/>
      <point x="764" y="487" type="curve" smooth="yes"/>
      <point x="799" y="487"/>
      <point x="817" y="469" name=".hr14"/>
    </contour>
    <contour>
      <point x="227" y="987" type="curve" smooth="yes" name=".hr15"/>
      <point x="227" y="952"/>
      <point x="209" y="934"/>
      <point x="174" y="934" type="curve" smooth="yes" name=".hr16"/>
      <point x="139" y="934"/>
      <point x="123" y="952"/>
      <point x="123" y="987" type="curve" smooth="yes" name=".hr17"/>
      <point x="123" y="1022"/>
      <point x="139" y="1038"/>
      <point x="174" y="1038" type="curve" smooth="yes"/>
      <point x="209" y="1038"/>
      <point x="227" y="1022"/>
    </contour>
    <contour>
      <point x="954" y="143" type="curve" smooth="yes"/>
      <point x="954" y="109"/>
      <point x="936" y="90"/>
      <point x="901" y="90" type="curve" smooth="yes"/>
      <point x="866" y="90"/>
      <point x="850" y="109"/>
      <point x="850" y="143" type="curve" smooth="yes"/>
      <point x="850" y="178"/>
      <point x="866" y="195"/>
      <point x="901" y="195" type="curve" smooth="yes"/>
      <point x="936" y="195"/>
      <point x="954" y="178"/>
    </contour>
    <contour>
      <point x="559" y="479" type="curve" smooth="yes"/>
      <point x="559" y="444"/>
      <point x="541" y="426"/>
      <point x="506" y="426" type="curve" smooth="yes"/>
      <point x="471" y="426"/>
      <point x="455" y="444"/>
      <point x="455" y="479" type="curve" smooth="yes"/>
      <point x="455" y="514"/>
      <point x="471" y="530"/>
      <point x="506" y="530" type="curve" smooth="yes"/>
      <point x="541" y="530"/>
      <point x="559" y="514"/>
    </contour>
    <contour>
      <point x="653" y="346" type="curve" smooth="yes"/>
      <point x="653" y="311"/>
      <point x="637" y="295"/>
      <point x="602" y="295" type="curve" smooth="yes" name=".hr18"/>
      <point x="567" y="295"/>
      <point x="549" y="311"/>
      <point x="549" y="346" type="curve" smooth="yes"/>
      <point x="549" y="381"/>
      <point x="567" y="399"/>
      <point x="602" y="399" type="curve" smooth="yes"/>
      <point x="637" y="399"/>
      <point x="653" y="381"/>
    </contour>
    <contour>
      <point x="817" y="74" type="curve" smooth="yes"/>
      <point x="817" y="39"/>
      <point x="799" y="23" name=".hr19"/>
      <point x="764" y="23" type="curve" smooth="yes"/>
      <point x="729" y="23"/>
      <point x="713" y="39"/>
      <point x="713" y="74" type="curve" smooth="yes"/>
      <point x="713" y="109"/>
      <point x="729" y="127"/>
      <point x="764" y="127" type="curve" smooth="yes"/>
      <point x="799" y="127"/>
      <point x="817" y="109"/>
    </contour>
    <contour>
      <point x="657" y="178" type="curve" smooth="yes"/>
      <point x="657" y="143"/>
      <point x="639" y="125"/>
      <point x="604" y="125" type="curve" smooth="yes"/>
      <point x="569" y="125"/>
      <point x="553" y="143"/>
      <point x="553" y="178" type="curve" smooth="yes"/>
      <point x="553" y="213"/>
      <point x="569" y="229"/>
      <point x="604" y="229" type="curve" smooth="yes"/>
      <point x="639" y="229"/>
      <point x="657" y="213"/>
    </contour>
    <contour>
      <point x="457" y="264" type="curve" smooth="yes"/>
      <point x="457" y="229"/>
      <point x="438" y="211"/>
      <point x="403" y="211" type="curve" smooth="yes"/>
      <point x="369" y="211"/>
      <point x="352" y="229"/>
      <point x="352" y="264" type="curve" smooth="yes" name=".hr20"/>
      <point x="352" y="299"/>
      <point x="369" y="315"/>
      <point x="403" y="315" type="curve" smooth="yes"/>
      <point x="438" y="315"/>
      <point x="457" y="299"/>
    </contour>
    <contour>
      <point x="354" y="45" type="curve" smooth="yes"/>
      <point x="354" y="10"/>
      <point x="338" y="-8"/>
      <point x="303" y="-8" type="curve" smooth="yes"/>
      <point x="268" y="-8"/>
      <point x="250" y="10"/>
      <point x="250" y="45" type="curve" smooth="yes"/>
      <point x="250" y="80" name=".hr21"/>
      <point x="268" y="96"/>
      <point x="303" y="96" type="curve" smooth="yes"/>
      <point x="338" y="96" name=".hr22"/>
      <point x="354" y="80"/>
    </contour>
  </outline>
</glyph>
<glyph name="ampersand" format="2">
  <advance width="1331"/>
  <unicode hex="0026"/>
  <outline>
    <contour>
      <point x="885" y="1171" type="curve" smooth="yes"/>
      <point x="885" y="1137"/>
      <point x="868" y="1120"/>
      <point x="834" y="1120" type="curve" smooth="yes"/>
      <point x="799" y="1120"/>
      <point x="780" y="1137"/>
      <point x="780" y="1171" type="curve" smooth="yes"/>
      <point x="780" y="1206"/>
      <point x="799" y="1225"/>
      <point x="834" y="1225" type="curve" smooth="yes"/>
      <point x="868" y="1225"/>
      <point x="885" y="1206"/>
    </contour>
    <contour>
      <point x="700" y="1282" type="curve" smooth="yes"/>
      <point x="700" y="1247"/>
      <point x="682" y="1229"/>
      <point x="647" y="1229" type="curve" smooth="yes"/>
      <point x="612" y="1229"/>
      <point x="596" y="1247"/>
      <point x="596" y="1282" type="curve" smooth="yes"/>
      <point x="596" y="1317"/>
      <point x="612" y="1333"/>
      <point x="647" y="1333" type="curve" smooth="yes"/>
      <point x="682" y="1333"/>
      <point x="700" y="1317"/>
    </contour>
    <contour>
      <point x="905" y="979" type="curve" smooth="yes"/>
      <point x="905" y="944"/>
      <point x="889" y="928" name=".hr01"/>
      <point x="854" y="928" type="curve" smooth="yes"/>
      <point x="819" y="928"/>
      <point x="801" y="944"/>
      <point x="801" y="979" type="curve" smooth="yes"/>
      <point x="801" y="1014"/>
      <point x="819" y="1032"/>
      <point x="854" y="1032" type="curve" smooth="yes"/>
      <point x="889" y="1032"/>
      <point x="905" y="1014"/>
    </contour>
    <contour>
      <point x="1124" y="573" type="curve" smooth="yes"/>
      <point x="1124" y="539"/>
      <point x="1106" y="520"/>
      <point x="1071" y="520" type="curve" smooth="yes"/>
      <point x="1036" y="520"/>
      <point x="1020" y="539" name=".hr02"/>
      <point x="1020" y="573" type="curve" smooth="yes"/>
      <point x="1020" y="608"/>
      <point x="1036" y="625" name=".hr03"/>
      <point x="1071" y="625" type="curve" smooth="yes"/>
      <point x="1106" y="625"/>
      <point x="1124" y="608"/>
    </contour>
    <contour>
      <point x="500" y="1176" type="curve" smooth="yes" name=".hr04"/>
      <point x="500" y="1141"/>
      <point x="483" y="1124" name=".hr05"/>
      <point x="449" y="1124" type="curve" smooth="yes"/>
      <point x="414" y="1124"/>
      <point x="395" y="1141"/>
      <point x="395" y="1176" type="curve" smooth="yes"/>
      <point x="395" y="1210"/>
      <point x="414" y="1229"/>
      <point x="449" y="1229" type="curve" smooth="yes"/>
      <point x="483" y="1229"/>
      <point x="500" y="1210"/>
    </contour>
    <contour>
      <point x="762" y="825" type="curve" smooth="yes"/>
      <point x="762" y="791"/>
      <point x="745" y="774"/>
      <point x="711" y="774" type="curve" smooth="yes"/>
      <point x="676" y="774"/>
      <point x="657" y="791"/>
      <point x="657" y="825" type="curve" smooth="yes"/>
      <point x="657" y="860"/>
      <point x="676" y="879"/>
      <point x="711" y="879" type="curve" smooth="yes"/>
      <point x="745" y="879"/>
      <point x="762" y="860"/>
    </contour>
    <contour>
      <point x="1071" y="426" type="curve" smooth="yes"/>
      <point x="1071" y="391"/>
      <point x="1053" y="373"/>
      <point x="1018" y="373" type="curve" smooth="yes"/>
      <point x="983" y="373"/>
      <point x="967" y="391"/>
      <point x="967" y="426" type="curve" smooth="yes" name=".hr06"/>
      <point x="967" y="461"/>
      <point x="983" y="477"/>
      <point x="1018" y="477" type="curve" smooth="yes"/>
      <point x="1053" y="477"/>
      <point x="1071" y="461"/>
    </contour>
    <contour>
      <point x="465" y="1008" type="curve" smooth="yes"/>
      <point x="465" y="973"/>
      <point x="446" y="954"/>
      <point x="412" y="954" type="curve" smooth="yes"/>
      <point x="377" y="954"/>
      <point x="360" y="973"/>
      <point x="360" y="1008" type="curve" smooth="yes"/>
      <point x="360" y="1042"/>
      <point x="377" y="1059"/>
      <point x="412" y="1059" type="curve" smooth="yes"/>
      <point x="446" y="1059"/>
      <point x="465" y="1042"/>
    </contour>
    <contour>
      <point x="543" y="854" type="curve" smooth="yes"/>
      <point x="543" y="819"/>
      <point x="524" y="801"/>
      <point x="489" y="801" type="curve" smooth="yes"/>
      <point x="455" y="801"/>
      <point x="438" y="819"/>
      <point x="438" y="854" type="curve" smooth="yes"/>
      <point x="438" y="889"/>
      <point x="455" y="905"/>
      <point x="489" y="905" type="curve" smooth="yes"/>
      <point x="524" y="905"/>
      <point x="543" y="889" name=".hr07"/>
    </contour>
    <contour>
      <point x="623" y="725" type="curve" smooth="yes"/>
      <point x="623" y="690" name=".hr08"/>
      <point x="604" y="672"/>
      <point x="569" y="672" type="curve" smooth="yes"/>
      <point x="535" y="672"/>
      <point x="518" y="690" name=".hr09"/>
      <point x="518" y="725" type="curve" smooth="yes"/>
      <point x="518" y="760"/>
      <point x="535" y="776"/>
      <point x="569" y="776" type="curve" smooth="yes"/>
      <point x="604" y="776"/>
      <point x="623" y="760"/>
    </contour>
    <contour>
      <point x="762" y="559" type="curve" smooth="yes"/>
      <point x="762" y="524"/>
      <point x="745" y="508"/>
      <point x="711" y="508" type="curve" smooth="yes"/>
      <point x="676" y="508"/>
      <point x="657" y="524"/>
      <point x="657" y="559" type="curve" smooth="yes"/>
      <point x="657" y="594"/>
      <point x="676" y="612"/>
      <point x="711" y="612" type="curve" smooth="yes"/>
      <point x="745" y="612"/>
      <point x="762" y="594"/>
    </contour>
    <contour>
      <point x="885" y="416" type="curve" smooth="yes"/>
      <point x="885" y="381"/>
      <point x="868" y="365"/>
      <point x="834" y="365" type="curve" smooth="yes"/>
      <point x="799" y="365"/>
      <point x="780" y="381"/>
      <point x="780" y="416" type="curve" smooth="yes"/>
      <point x="780" y="451"/>
      <point x="799" y="469"/>
      <point x="834" y="469" type="curve" smooth="yes"/>
      <point x="868" y="469"/>
      <point x="885" y="451"/>
    </contour>
    <contour>
      <point x="997" y="293" type="curve" smooth="yes"/>
      <point x="997" y="258"/>
      <point x="979" y="240"/>
      <point x="944" y="240" type="curve" smooth="yes"/>
      <point x="909" y="240"/>
      <point x="893" y="258"/>
      <point x="893" y="293" type="curve" smooth="yes"/>
      <point x="893" y="328"/>
      <point x="909" y="344"/>
      <point x="944" y="344" type="curve" smooth="yes"/>
      <point x="979" y="344"/>
      <point x="997" y="328"/>
    </contour>
    <contour>
      <point x="1092" y="188" type="curve" smooth="yes"/>
      <point x="1092" y="154"/>
      <point x="1073" y="135"/>
      <point x="1038" y="135" type="curve" smooth="yes"/>
      <point x="1004" y="135"/>
      <point x="987" y="154"/>
      <point x="987" y="188" type="curve" smooth="yes"/>
      <point x="987" y="223"/>
      <point x="1004" y="240"/>
      <point x="1038" y="240" type="curve" smooth="yes"/>
      <point x="1073" y="240"/>
      <point x="1092" y="223"/>
    </contour>
    <contour>
      <point x="1204" y="53" type="curve" smooth="yes"/>
      <point x="1204" y="18"/>
      <point x="1186" y="0"/>
      <point x="1151" y="0" type="curve" smooth="yes"/>
      <point x="1116" y="0"/>
      <point x="1100" y="18"/>
      <point x="1100" y="53" type="curve" smooth="yes" name=".hr10"/>
      <point x="1100" y="88"/>
      <point x="1116" y="104"/>
      <point x="1151" y="104" type="curve" smooth="yes"/>
      <point x="1186" y="104"/>
      <point x="1204" y="88"/>
    </contour>
    <contour>
      <point x="489" y="627" type="curve" smooth="yes"/>
      <point x="489" y="592"/>
      <point x="471" y="573"/>
      <point x="436" y="573" type="curve" smooth="yes"/>
      <point x="401" y="573"/>
      <point x="385" y="592"/>
      <point x="385" y="627" type="curve" smooth="yes"/>
      <point x="385" y="662"/>
      <point x="401" y="678"/>
      <point x="436" y="678" type="curve" smooth="yes"/>
      <point x="471" y="678"/>
      <point x="489" y="662"/>
    </contour>
    <contour>
      <point x="879" y="154" type="curve" smooth="yes"/>
      <point x="879" y="119"/>
      <point x="860" y="100"/>
      <point x="825" y="100" type="curve" smooth="yes"/>
      <point x="791" y="100"/>
      <point x="774" y="119"/>
      <point x="774" y="154" type="curve" smooth="yes"/>
      <point x="774" y="188"/>
      <point x="791" y="205"/>
      <point x="825" y="205" type="curve" smooth="yes"/>
      <point x="860" y="205"/>
      <point x="879" y="188"/>
    </contour>
    <contour>
      <point x="352" y="512" type="curve" smooth="yes"/>
      <point x="352" y="477"/>
      <point x="334" y="459"/>
      <point x="299" y="459" type="curve" smooth="yes"/>
      <point x="264" y="459"/>
      <point x="248" y="477"/>
      <point x="248" y="512" type="curve" smooth="yes" name=".hr11"/>
      <point x="248" y="547"/>
      <point x="264" y="563"/>
      <point x="299" y="563" type="curve" smooth="yes"/>
      <point x="334" y="563"/>
      <point x="352" y="547"/>
    </contour>
    <contour>
      <point x="731" y="76" type="curve" smooth="yes"/>
      <point x="731" y="41"/>
      <point x="713" y="23"/>
      <point x="678" y="23" type="curve" smooth="yes"/>
      <point x="643" y="23"/>
      <point x="627" y="41"/>
      <point x="627" y="76" type="curve" smooth="yes"/>
      <point x="627" y="111" name=".hr12"/>
      <point x="643" y="127"/>
      <point x="678" y="127" type="curve" smooth="yes"/>
      <point x="713" y="127" name=".hr13"/>
      <point x="731" y="111"/>
    </contour>
    <contour>
      <point x="307" y="322" type="curve" smooth="yes"/>
      <point x="307" y="287" name=".hr14"/>
      <point x="291" y="270"/>
      <point x="256" y="270" type="curve" smooth="yes"/>
      <point x="221" y="270"/>
      <point x="203" y="287"/>
      <point x="203" y="322" type="curve" smooth="yes"/>
      <point x="203" y="356"/>
      <point x="221" y="375"/>
      <point x="256" y="375" type="curve" smooth="yes"/>
      <point x="291" y="375"/>
      <point x="307" y="356"/>
    </contour>
    <contour>
      <point x="545" y="53" type="curve" smooth="yes"/>
      <point x="545" y="18"/>
      <point x="526" y="0"/>
      <point x="492" y="0" type="curve" smooth="yes"/>
      <point x="457" y="0"/>
      <point x="440" y="18"/>
      <point x="440" y="53" type="curve" smooth="yes"/>
      <point x="440" y="88" name=".hr15"/>
      <point x="457" y="104"/>
      <point x="492" y="104" type="curve" smooth="yes"/>
      <point x="526" y="104"/>
      <point x="545" y="88"/>
    </contour>
    <contour>
      <point x="373" y="145" type="curve" smooth="yes"/>
      <point x="373" y="111"/>
      <point x="356" y="94"/>
      <point x="322" y="94" type="curve" smooth="yes"/>
      <point x="287" y="94"/>
      <point x="268" y="111"/>
      <point x="268" y="145" type="curve" smooth="yes"/>
      <point x="268" y="180"/>
      <point x="287" y="199"/>
      <point x="322" y="199" type="curve" smooth="yes"/>
      <point x="356" y="199"/>
      <point x="373" y="180"/>
    </contour>
  </outline>
</glyph>
<glyph name="quotesingle" format="2">
  <advance width="307"/>
  <unicode hex="0027"/>
  <outline>
    <contour>
      <point x="213" y="1276" type="curve" smooth="yes"/>
      <point x="213" y="1241"/>
      <point x="195" y="1223"/>
      <point x="160" y="1223" type="curve" smooth="yes"/>
      <point x="125" y="1223"/>
      <point x="109" y="1241"/>
      <point x="109" y="1276" type="curve" smooth="yes"/>
      <point x="109" y="1311"/>
      <point x="125" y="1327"/>
      <point x="160" y="1327" type="curve" smooth="yes"/>
      <point x="195" y="1327"/>
      <point x="213" y="1311"/>
    </contour>
    <contour>
      <point x="213" y="1071" type="curve" smooth="yes"/>
      <point x="213" y="1036"/>
      <point x="195" y="1018"/>
      <point x="160" y="1018" type="curve" smooth="yes"/>
      <point x="125" y="1018"/>
      <point x="109" y="1036"/>
      <point x="109" y="1071" type="curve" smooth="yes"/>
      <point x="109" y="1106"/>
      <point x="125" y="1122"/>
      <point x="160" y="1122" type="curve" smooth="yes"/>
      <point x="195" y="1122"/>
      <point x="213" y="1106"/>
    </contour>
  </outline>
</glyph>
<glyph name="parenleft" format="2">
  <advance width="717"/>
  <unicode hex="0028"/>
  <outline>
    <contour>
      <point x="551" y="1300" type="curve" smooth="yes"/>
      <point x="551" y="1266"/>
      <point x="532" y="1249"/>
      <point x="498" y="1249" type="curve" smooth="yes"/>
      <point x="463" y="1249"/>
      <point x="446" y="1266"/>
      <point x="446" y="1300" type="curve" smooth="yes"/>
      <point x="446" y="1335"/>
      <point x="463" y="1354"/>
      <point x="498" y="1354" type="curve" smooth="yes"/>
      <point x="532" y="1354"/>
      <point x="551" y="1335"/>
    </contour>
    <contour>
      <point x="446" y="1176" type="curve" smooth="yes"/>
      <point x="446" y="1141"/>
      <point x="428" y="1124"/>
      <point x="393" y="1124" type="curve" smooth="yes"/>
      <point x="358" y="1124"/>
      <point x="342" y="1141"/>
      <point x="342" y="1176" type="curve" smooth="yes"/>
      <point x="342" y="1210"/>
      <point x="358" y="1229"/>
      <point x="393" y="1229" type="curve" smooth="yes"/>
      <point x="428" y="1229"/>
      <point x="446" y="1210"/>
    </contour>
    <contour>
      <point x="354" y="1030" type="curve" smooth="yes"/>
      <point x="354" y="995"/>
      <point x="338" y="979" name=".hr01"/>
      <point x="303" y="979" type="curve" smooth="yes"/>
      <point x="268" y="979"/>
      <point x="250" y="995"/>
      <point x="250" y="1030" type="curve" smooth="yes"/>
      <point x="250" y="1065"/>
      <point x="268" y="1083"/>
      <point x="303" y="1083" type="curve" smooth="yes"/>
      <point x="338" y="1083"/>
      <point x="354" y="1065"/>
    </contour>
    <contour>
      <point x="297" y="870" type="curve" smooth="yes"/>
      <point x="297" y="836"/>
      <point x="281" y="817"/>
      <point x="246" y="817" type="curve" smooth="yes" name=".hr02"/>
      <point x="211" y="817"/>
      <point x="193" y="836"/>
      <point x="193" y="870" type="curve" smooth="yes"/>
      <point x="193" y="905"/>
      <point x="211" y="922"/>
      <point x="246" y="922" type="curve" smooth="yes"/>
      <point x="281" y="922"/>
      <point x="297" y="905"/>
    </contour>
    <contour>
      <point x="272" y="684" type="curve" smooth="yes"/>
      <point x="272" y="649"/>
      <point x="256" y="633"/>
      <point x="221" y="633" type="curve" smooth="yes"/>
      <point x="186" y="633" name=".hr03"/>
      <point x="168" y="649"/>
      <point x="168" y="684" type="curve" smooth="yes"/>
      <point x="168" y="719"/>
      <point x="186" y="737"/>
      <point x="221" y="737" type="curve" smooth="yes"/>
      <point x="256" y="737"/>
      <point x="272" y="719"/>
    </contour>
    <contour>
      <point x="297" y="483" type="curve" smooth="yes"/>
      <point x="297" y="449"/>
      <point x="281" y="432"/>
      <point x="246" y="432" type="curve" smooth="yes"/>
      <point x="211" y="432"/>
      <point x="193" y="449" name=".hr04"/>
      <point x="193" y="483" type="curve" smooth="yes"/>
      <point x="193" y="518"/>
      <point x="211" y="537"/>
      <point x="246" y="537" type="curve" smooth="yes"/>
      <point x="281" y="537"/>
      <point x="297" y="518"/>
    </contour>
    <contour>
      <point x="354" y="324" type="curve" smooth="yes"/>
      <point x="354" y="289"/>
      <point x="338" y="270"/>
      <point x="303" y="270" type="curve" smooth="yes"/>
      <point x="268" y="270"/>
      <point x="250" y="289"/>
      <point x="250" y="324" type="curve" smooth="yes" name=".hr05"/>
      <point x="250" y="358"/>
      <point x="268" y="375"/>
      <point x="303" y="375" type="curve" smooth="yes"/>
      <point x="338" y="375"/>
      <point x="354" y="358"/>
    </contour>
    <contour>
      <point x="446" y="178" type="curve" smooth="yes"/>
      <point x="446" y="143"/>
      <point x="428" y="125"/>
      <point x="393" y="125" type="curve" smooth="yes"/>
      <point x="358" y="125"/>
      <point x="342" y="143"/>
      <point x="342" y="178" type="curve" smooth="yes"/>
      <point x="342" y="213" name=".hr06"/>
      <point x="358" y="229"/>
      <point x="393" y="229" type="curve" smooth="yes"/>
      <point x="428" y="229"/>
      <point x="446" y="213"/>
    </contour>
    <contour>
      <point x="551" y="53" type="curve" smooth="yes"/>
      <point x="551" y="18"/>
      <point x="532" y="0"/>
      <point x="498" y="0" type="curve" smooth="yes"/>
      <point x="463" y="0"/>
      <point x="446" y="18"/>
      <point x="446" y="53" type="curve" smooth="yes"/>
      <point x="446" y="88"/>
      <point x="463" y="104"/>
      <point x="498" y="104" type="curve" smooth="yes"/>
      <point x="532" y="104"/>
      <point x="551" y="88"/>
    </contour>
  </outline>
</glyph>
<glyph name="asterisk" format="2">
  <advance width="1024"/>
  <unicode hex="002A"/>
  <outline>
    <contour>
      <point x="764" y="1159" type="curve" smooth="yes"/>
      <point x="764" y="1124"/>
      <point x="745" y="1106"/>
      <point x="711" y="1106" type="curve" smooth="yes"/>
      <point x="676" y="1106"/>
      <point x="659" y="1124"/>
      <point x="659" y="1159" type="curve" smooth="yes"/>
      <point x="659" y="1194"/>
      <point x="676" y="1210"/>
      <point x="711" y="1210" type="curve" smooth="yes"/>
      <point x="745" y="1210"/>
      <point x="764" y="1194"/>
    </contour>
    <contour>
      <point x="561" y="1264" type="curve" smooth="yes"/>
      <point x="561" y="1229"/>
      <point x="543" y="1210"/>
      <point x="508" y="1210" type="curve" smooth="yes"/>
      <point x="473" y="1210"/>
      <point x="457" y="1229"/>
      <point x="457" y="1264" type="curve" smooth="yes"/>
      <point x="457" y="1298"/>
      <point x="473" y="1315"/>
      <point x="508" y="1315" type="curve" smooth="yes"/>
      <point x="543" y="1315"/>
      <point x="561" y="1298"/>
    </contour>
    <contour>
      <point x="768" y="928" type="curve" smooth="yes"/>
      <point x="768" y="893"/>
      <point x="750" y="874"/>
      <point x="715" y="874" type="curve" smooth="yes"/>
      <point x="680" y="874"/>
      <point x="664" y="893"/>
      <point x="664" y="928" type="curve" smooth="yes"/>
      <point x="664" y="963"/>
      <point x="680" y="979"/>
      <point x="715" y="979" type="curve" smooth="yes"/>
      <point x="750" y="979"/>
      <point x="768" y="963"/>
    </contour>
    <contour>
      <point x="565" y="1044" type="curve" smooth="yes"/>
      <point x="565" y="1010"/>
      <point x="547" y="991"/>
      <point x="512" y="991" type="curve" smooth="yes"/>
      <point x="477" y="991"/>
      <point x="461" y="1010"/>
      <point x="461" y="1044" type="curve" smooth="yes"/>
      <point x="461" y="1079"/>
      <point x="477" y="1096"/>
      <point x="512" y="1096" type="curve" smooth="yes"/>
      <point x="547" y="1096"/>
      <point x="565" y="1079"/>
    </contour>
    <contour>
      <point x="371" y="1155" type="curve" smooth="yes"/>
      <point x="371" y="1120"/>
      <point x="352" y="1102"/>
      <point x="317" y="1102" type="curve" smooth="yes"/>
      <point x="283" y="1102"/>
      <point x="266" y="1120"/>
      <point x="266" y="1155" type="curve" smooth="yes" name=".hr01"/>
      <point x="266" y="1190"/>
      <point x="283" y="1206"/>
      <point x="317" y="1206" type="curve" smooth="yes"/>
      <point x="352" y="1206"/>
      <point x="371" y="1190"/>
    </contour>
    <contour>
      <point x="569" y="805" type="curve" smooth="yes"/>
      <point x="569" y="770"/>
      <point x="551" y="752"/>
      <point x="516" y="752" type="curve" smooth="yes"/>
      <point x="481" y="752"/>
      <point x="465" y="770"/>
      <point x="465" y="805" type="curve" smooth="yes"/>
      <point x="465" y="840"/>
      <point x="481" y="856"/>
      <point x="516" y="856" type="curve" smooth="yes"/>
      <point x="551" y="856"/>
      <point x="569" y="840"/>
    </contour>
    <contour>
      <point x="362" y="922" type="curve" smooth="yes"/>
      <point x="362" y="887"/>
      <point x="344" y="868"/>
      <point x="309" y="868" type="curve" smooth="yes"/>
      <point x="274" y="868"/>
      <point x="258" y="887"/>
      <point x="258" y="922" type="curve" smooth="yes" name=".hr02"/>
      <point x="258" y="956"/>
      <point x="274" y="973"/>
      <point x="309" y="973" type="curve" smooth="yes"/>
      <point x="344" y="973"/>
      <point x="362" y="956"/>
    </contour>
  </outline>
</glyph>
<glyph name="hyphen" format="2">
  <advance width="1024"/>
  <unicode hex="002D"/>
  <outline>
    <contour>
      <point x="872" y="688" type="curve" smooth="yes"/>
      <point x="872" y="653"/>
      <point x="854" y="637"/>
      <point x="819" y="637" type="curve" smooth="yes"/>
      <point x="784" y="637"/>
      <point x="768" y="653"/>
      <point x="768" y="688" type="curve" smooth="yes"/>
      <point x="768" y="723"/>
      <point x="784" y="741"/>
      <point x="819" y="741" type="curve" smooth="yes"/>
      <point x="854" y="741"/>
      <point x="872" y="723"/>
    </contour>
    <contour>
      <point x="668" y="688" type="curve" smooth="yes"/>
      <point x="668" y="653"/>
      <point x="649" y="637"/>
      <point x="614" y="637" type="curve" smooth="yes"/>
      <point x="580" y="637"/>
      <point x="563" y="653"/>
      <point x="563" y="688" type="curve" smooth="yes"/>
      <point x="563" y="723"/>
      <point x="580" y="741"/>
      <point x="614" y="741" type="curve" smooth="yes"/>
      <point x="649" y="741"/>
      <point x="668" y="723"/>
    </contour>
    <contour>
      <point x="463" y="688" type="curve" smooth="yes"/>
      <point x="463" y="653"/>
      <point x="444" y="637"/>
      <point x="410" y="637" type="curve" smooth="yes"/>
      <point x="375" y="637"/>
      <point x="358" y="653"/>
      <point x="358" y="688" type="curve" smooth="yes"/>
      <point x="358" y="723"/>
      <point x="375" y="741"/>
      <point x="410" y="741" type="curve" smooth="yes"/>
      <point x="444" y="741"/>
      <point x="463" y="723"/>
    </contour>
    <contour>
      <point x="258" y="688" type="curve" smooth="yes"/>
      <point x="258" y="653"/>
      <point x="240" y="637"/>
      <point x="205" y="637" type="curve" smooth="yes"/>
      <point x="170" y="637"/>
      <point x="154" y="653"/>
      <point x="154" y="688" type="curve" smooth="yes"/>
      <point x="154" y="723"/>
      <point x="170" y="741"/>
      <point x="205" y="741" type="curve" smooth="yes"/>
      <point x="240" y="741"/>
      <point x="258" y="723"/>
    </contour>
  </outline>
</glyph>
<glyph name="slash" format="2">
  <advance width="1024"/>
  <unicode hex="002F"/>
  <outline>
    <contour>
      <point x="840" y="1237" type="curve" smooth="yes"/>
      <point x="840" y="1202"/>
      <point x="823" y="1186"/>
      <point x="788" y="1186" type="curve" smooth="yes"/>
      <point x="754" y="1186"/>
      <point x="735" y="1202"/>
      <point x="735" y="1237" type="curve" smooth="yes"/>
      <point x="735" y="1272"/>
      <point x="754" y="1290"/>
      <point x="788" y="1290" type="curve" smooth="yes"/>
      <point x="823" y="1290"/>
      <point x="840" y="1272"/>
    </contour>
    <contour>
      <point x="760" y="1069" type="curve" smooth="yes"/>
      <point x="760" y="1034"/>
      <point x="743" y="1018"/>
      <point x="709" y="1018" type="curve" smooth="yes"/>
      <point x="674" y="1018"/>
      <point x="655" y="1034"/>
      <point x="655" y="1069" type="curve" smooth="yes" name=".hr01"/>
      <point x="655" y="1104"/>
      <point x="674" y="1122"/>
      <point x="709" y="1122" type="curve" smooth="yes"/>
      <point x="743" y="1122"/>
      <point x="760" y="1104"/>
    </contour>
    <contour>
      <point x="674" y="879" type="curve" smooth="yes"/>
      <point x="674" y="844"/>
      <point x="657" y="827"/>
      <point x="623" y="827" type="curve" smooth="yes"/>
      <point x="588" y="827"/>
      <point x="569" y="844"/>
      <point x="569" y="879" type="curve" smooth="yes"/>
      <point x="569" y="913" name=".hr02"/>
      <point x="588" y="932"/>
      <point x="623" y="932" type="curve" smooth="yes"/>
      <point x="657" y="932"/>
      <point x="674" y="913"/>
    </contour>
    <contour>
      <point x="586" y="676" type="curve" smooth="yes"/>
      <point x="586" y="641"/>
      <point x="569" y="625"/>
      <point x="535" y="625" type="curve" smooth="yes"/>
      <point x="500" y="625"/>
      <point x="481" y="641"/>
      <point x="481" y="676" type="curve" smooth="yes"/>
      <point x="481" y="711"/>
      <point x="500" y="729"/>
      <point x="535" y="729" type="curve" smooth="yes"/>
      <point x="569" y="729"/>
      <point x="586" y="711"/>
    </contour>
    <contour>
      <point x="481" y="461" type="curve" smooth="yes"/>
      <point x="481" y="426"/>
      <point x="465" y="410"/>
      <point x="430" y="410" type="curve" smooth="yes"/>
      <point x="395" y="410"/>
      <point x="377" y="426"/>
      <point x="377" y="461" type="curve" smooth="yes"/>
      <point x="377" y="496"/>
      <point x="395" y="514"/>
      <point x="430" y="514" type="curve" smooth="yes"/>
      <point x="465" y="514"/>
      <point x="481" y="496"/>
    </contour>
    <contour>
      <point x="379" y="254" type="curve" smooth="yes"/>
      <point x="379" y="219"/>
      <point x="362" y="203"/>
      <point x="328" y="203" type="curve" smooth="yes"/>
      <point x="293" y="203"/>
      <point x="274" y="219"/>
      <point x="274" y="254" type="curve" smooth="yes"/>
      <point x="274" y="289"/>
      <point x="293" y="307"/>
      <point x="328" y="307" type="curve" smooth="yes"/>
      <point x="362" y="307" name=".hr03"/>
      <point x="379" y="289"/>
    </contour>
    <contour>
      <point x="289" y="53" type="curve" smooth="yes"/>
      <point x="289" y="18"/>
      <point x="270" y="0"/>
      <point x="236" y="0" type="curve" smooth="yes"/>
      <point x="201" y="0"/>
      <point x="184" y="18"/>
      <point x="184" y="53" type="curve" smooth="yes"/>
      <point x="184" y="88"/>
      <point x="201" y="104"/>
      <point x="236" y="104" type="curve" smooth="yes"/>
      <point x="270" y="104"/>
      <point x="289" y="88" name=".hr04"/>
    </contour>
  </outline>
</glyph>
<glyph name="zero" format="2">
  <advance width="1024"/>
  <unicode hex="0030"/>
  <outline>
    <contour>
      <point x="786" y="1219" type="curve" smooth="yes"/>
      <point x="786" y="1184"/>
      <point x="768" y="1165"/>
      <point x="733" y="1165" type="curve" smooth="yes"/>
      <point x="698" y="1165"/>
      <point x="682" y="1184"/>
      <point x="682" y="1219" type="curve" smooth="yes"/>
      <point x="682" y="1253"/>
      <point x="698" y="1270"/>
      <point x="733" y="1270" type="curve" smooth="yes"/>
      <point x="768" y="1270"/>
      <point x="786" y="1253"/>
    </contour>
    <contour>
      <point x="911" y="1047" type="curve" smooth="yes"/>
      <point x="911" y="1012"/>
      <point x="895" y="993"/>
      <point x="860" y="993" type="curve" smooth="yes"/>
      <point x="825" y="993"/>
      <point x="807" y="1012"/>
      <point x="807" y="1047" type="curve" smooth="yes"/>
      <point x="807" y="1081"/>
      <point x="825" y="1098"/>
      <point x="860" y="1098" type="curve" smooth="yes"/>
      <point x="895" y="1098"/>
      <point x="911" y="1081"/>
    </contour>
    <contour>
      <point x="629" y="1266" type="curve" smooth="yes"/>
      <point x="629" y="1214"/>
      <point x="588" y="1174"/>
      <point x="537" y="1174" type="curve" smooth="yes"/>
      <point x="485" y="1174" name=".hr01"/>
      <point x="444" y="1214"/>
      <point x="444" y="1266" type="curve" smooth="yes"/>
      <point x="444" y="1317"/>
      <point x="485" y="1358"/>
      <point x="537" y="1358" type="curve" smooth="yes"/>
      <point x="588" y="1358"/>
      <point x="629" y="1317"/>
    </contour>
    <contour>
      <point x="977" y="846" type="curve" smooth="yes"/>
      <point x="977" y="811"/>
      <point x="958" y="793"/>
      <point x="924" y="793" type="curve" smooth="yes"/>
      <point x="889" y="793"/>
      <point x="872" y="811"/>
      <point x="872" y="846" type="curve" smooth="yes"/>
      <point x="872" y="881"/>
      <point x="889" y="897"/>
      <point x="924" y="897" type="curve" smooth="yes"/>
      <point x="958" y="897"/>
      <point x="977" y="881"/>
    </contour>
    <contour>
      <point x="369" y="1235" type="curve" smooth="yes"/>
      <point x="369" y="1200"/>
      <point x="350" y="1182"/>
      <point x="315" y="1182" type="curve" smooth="yes"/>
      <point x="281" y="1182"/>
      <point x="264" y="1200"/>
      <point x="264" y="1235" type="curve" smooth="yes" name=".hr02"/>
      <point x="264" y="1270"/>
      <point x="281" y="1286"/>
      <point x="315" y="1286" type="curve" smooth="yes"/>
      <point x="350" y="1286"/>
      <point x="369" y="1270"/>
    </contour>
    <contour>
      <point x="981" y="623" type="curve" smooth="yes"/>
      <point x="981" y="588"/>
      <point x="963" y="569"/>
      <point x="928" y="569" type="curve" smooth="yes"/>
      <point x="893" y="569"/>
      <point x="877" y="588"/>
      <point x="877" y="623" type="curve" smooth="yes"/>
      <point x="877" y="657"/>
      <point x="893" y="674"/>
      <point x="928" y="674" type="curve" smooth="yes"/>
      <point x="963" y="674"/>
      <point x="981" y="657"/>
    </contour>
    <contour>
      <point x="938" y="383" type="curve" smooth="yes"/>
      <point x="938" y="348"/>
      <point x="920" y="330"/>
      <point x="885" y="330" type="curve" smooth="yes"/>
      <point x="850" y="330"/>
      <point x="834" y="348"/>
      <point x="834" y="383" type="curve" smooth="yes"/>
      <point x="834" y="418"/>
      <point x="850" y="434"/>
      <point x="885" y="434" type="curve" smooth="yes"/>
      <point x="920" y="434"/>
      <point x="938" y="418"/>
    </contour>
    <contour>
      <point x="238" y="1075" type="curve" smooth="yes"/>
      <point x="238" y="1040"/>
      <point x="219" y="1022"/>
      <point x="184" y="1022" type="curve" smooth="yes"/>
      <point x="150" y="1022"/>
      <point x="133" y="1040"/>
      <point x="133" y="1075" type="curve" smooth="yes"/>
      <point x="133" y="1110"/>
      <point x="150" y="1126"/>
      <point x="184" y="1126" type="curve" smooth="yes"/>
      <point x="219" y="1126"/>
      <point x="238" y="1110"/>
    </contour>
    <contour>
      <point x="162" y="854" type="curve" smooth="yes"/>
      <point x="162" y="819"/>
      <point x="143" y="801"/>
      <point x="109" y="801" type="curve" smooth="yes"/>
      <point x="74" y="801"/>
      <point x="57" y="819"/>
      <point x="57" y="854" type="curve" smooth="yes"/>
      <point x="57" y="889"/>
      <point x="74" y="905"/>
      <point x="109" y="905" type="curve" smooth="yes"/>
      <point x="143" y="905"/>
      <point x="162" y="889"/>
    </contour>
    <contour>
      <point x="807" y="158" type="curve" smooth="yes"/>
      <point x="807" y="123" name=".hr03"/>
      <point x="788" y="104"/>
      <point x="754" y="104" type="curve" smooth="yes"/>
      <point x="719" y="104"/>
      <point x="702" y="123"/>
      <point x="702" y="158" type="curve" smooth="yes"/>
      <point x="702" y="193"/>
      <point x="719" y="209"/>
      <point x="754" y="209" type="curve" smooth="yes"/>
      <point x="788" y="209"/>
      <point x="807" y="193"/>
    </contour>
    <contour>
      <point x="150" y="614" type="curve" smooth="yes"/>
      <point x="150" y="580"/>
      <point x="131" y="561"/>
      <point x="96" y="561" type="curve" smooth="yes"/>
      <point x="61" y="561"/>
      <point x="45" y="580"/>
      <point x="45" y="614" type="curve" smooth="yes"/>
      <point x="45" y="649"/>
      <point x="61" y="666"/>
      <point x="96" y="666" type="curve" smooth="yes"/>
      <point x="131" y="666"/>
      <point x="150" y="649"/>
    </contour>
    <contour>
      <point x="567" y="53" type="curve" smooth="yes"/>
      <point x="567" y="18"/>
      <point x="549" y="0"/>
      <point x="514" y="0" type="curve" smooth="yes" name=".hr04"/>
      <point x="479" y="0"/>
      <point x="463" y="18"/>
      <point x="463" y="53" type="curve" smooth="yes"/>
      <point x="463" y="88"/>
      <point x="479" y="104"/>
      <point x="514" y="104" type="curve" smooth="yes"/>
      <point x="549" y="104"/>
      <point x="567" y="88"/>
    </contour>
    <contour>
      <point x="190" y="391" type="curve" smooth="yes"/>
      <point x="190" y="356"/>
      <point x="172" y="338"/>
      <point x="137" y="338" type="curve" smooth="yes"/>
      <point x="102" y="338"/>
      <point x="86" y="356"/>
      <point x="86" y="391" type="curve" smooth="yes"/>
      <point x="86" y="426"/>
      <point x="102" y="442"/>
      <point x="137" y="442" type="curve" smooth="yes"/>
      <point x="172" y="442"/>
      <point x="190" y="426"/>
    </contour>
    <contour>
      <point x="311" y="164" type="curve" smooth="yes" name=".hr05"/>
      <point x="311" y="129"/>
      <point x="295" y="111"/>
      <point x="260" y="111" type="curve" smooth="yes"/>
      <point x="225" y="111"/>
      <point x="207" y="129"/>
      <point x="207" y="164" type="curve" smooth="yes"/>
      <point x="207" y="199"/>
      <point x="225" y="215"/>
      <point x="260" y="215" type="curve" smooth="yes"/>
      <point x="295" y="215"/>
      <point x="311" y="199"/>
    </contour>
    <contour>
      <point x="608" y="1266" type="curve" smooth="yes"/>
      <point x="608" y="1305"/>
      <point x="575" y="1337"/>
      <point x="537" y="1337" type="curve" smooth="yes"/>
      <point x="498" y="1337"/>
      <point x="465" y="1305"/>
      <point x="465" y="1266" type="curve" smooth="yes"/>
      <point x="465" y="1227"/>
      <point x="498" y="1194"/>
      <point x="537" y="1194" type="curve" smooth="yes"/>
      <point x="575" y="1194"/>
      <point x="608" y="1227"/>
    </contour>
  </outline>
</glyph>
<glyph name="seven" format="2">
  <advance width="1024"/>
  <unicode hex="0037"/>
  <outline>
    <contour>
      <point x="858" y="1280" type="curve" smooth="yes"/>
      <point x="858" y="1245"/>
      <point x="842" y="1229"/>
      <point x="807" y="1229" type="curve" smooth="yes"/>
      <point x="772" y="1229"/>
      <point x="754" y="1245"/>
      <point x="754" y="1280" type="curve" smooth="yes"/>
      <point x="754" y="1315"/>
      <point x="772" y="1333"/>
      <point x="807" y="1333" type="curve" smooth="yes"/>
      <point x="842" y="1333"/>
      <point x="858" y="1315"/>
    </contour>
    <contour>
      <point x="653" y="1280" type="curve" smooth="yes"/>
      <point x="653" y="1245"/>
      <point x="637" y="1229"/>
      <point x="602" y="1229" type="curve" smooth="yes"/>
      <point x="567" y="1229"/>
      <point x="549" y="1245" name=".hr01"/>
      <point x="549" y="1280" type="curve" smooth="yes" name=".hr02"/>
      <point x="549" y="1315"/>
      <point x="567" y="1333"/>
      <point x="602" y="1333" type="curve" smooth="yes" name=".hr03"/>
      <point x="637" y="1333"/>
      <point x="653" y="1315"/>
    </contour>
    <contour>
      <point x="809" y="1108" type="curve" smooth="yes" name=".hr04"/>
      <point x="809" y="1073"/>
      <point x="791" y="1055"/>
      <point x="756" y="1055" type="curve" smooth="yes"/>
      <point x="721" y="1055"/>
      <point x="705" y="1073"/>
      <point x="705" y="1108" type="curve" smooth="yes"/>
      <point x="705" y="1143"/>
      <point x="721" y="1159"/>
      <point x="756" y="1159" type="curve" smooth="yes"/>
      <point x="791" y="1159"/>
      <point x="809" y="1143"/>
    </contour>
    <contour>
      <point x="449" y="1280" type="curve" smooth="yes"/>
      <point x="449" y="1245"/>
      <point x="432" y="1229"/>
      <point x="397" y="1229" type="curve" smooth="yes"/>
      <point x="362" y="1229"/>
      <point x="344" y="1245"/>
      <point x="344" y="1280" type="curve" smooth="yes"/>
      <point x="344" y="1315"/>
      <point x="362" y="1333"/>
      <point x="397" y="1333" type="curve" smooth="yes"/>
      <point x="432" y="1333"/>
      <point x="449" y="1315"/>
    </contour>
    <contour>
      <point x="729" y="948" type="curve" smooth="yes"/>
      <point x="729" y="913"/>
      <point x="711" y="895"/>
      <point x="676" y="895" type="curve" smooth="yes"/>
      <point x="641" y="895" name=".hr05"/>
      <point x="625" y="913"/>
      <point x="625" y="948" type="curve" smooth="yes"/>
      <point x="625" y="983"/>
      <point x="641" y="999"/>
      <point x="676" y="999" type="curve" smooth="yes"/>
      <point x="711" y="999"/>
      <point x="729" y="983"/>
    </contour>
    <contour>
      <point x="287" y="1274" type="curve" smooth="yes"/>
      <point x="287" y="1223"/>
      <point x="246" y="1182"/>
      <point x="195" y="1182" type="curve" smooth="yes"/>
      <point x="143" y="1182"/>
      <point x="102" y="1223"/>
      <point x="102" y="1274" type="curve" smooth="yes"/>
      <point x="102" y="1325"/>
      <point x="143" y="1366"/>
      <point x="195" y="1366" type="curve" smooth="yes"/>
      <point x="246" y="1366"/>
      <point x="287" y="1325"/>
    </contour>
    <contour>
      <point x="655" y="772" type="curve" smooth="yes"/>
      <point x="655" y="737"/>
      <point x="637" y="719"/>
      <point x="602" y="719" type="curve" smooth="yes"/>
      <point x="567" y="719"/>
      <point x="551" y="737"/>
      <point x="551" y="772" type="curve" smooth="yes"/>
      <point x="551" y="807"/>
      <point x="567" y="823"/>
      <point x="602" y="823" type="curve" smooth="yes"/>
      <point x="637" y="823"/>
      <point x="655" y="807"/>
    </contour>
    <contour>
      <point x="567" y="590" type="curve" smooth="yes"/>
      <point x="567" y="555"/>
      <point x="549" y="537"/>
      <point x="514" y="537" type="curve" smooth="yes"/>
      <point x="479" y="537"/>
      <point x="463" y="555"/>
      <point x="463" y="590" type="curve" smooth="yes"/>
      <point x="463" y="625"/>
      <point x="479" y="641"/>
      <point x="514" y="641" type="curve" smooth="yes" name=".hr06"/>
      <point x="549" y="641"/>
      <point x="567" y="625"/>
    </contour>
    <contour>
      <point x="487" y="422" type="curve" smooth="yes" name=".hr07"/>
      <point x="487" y="387"/>
      <point x="469" y="369"/>
      <point x="434" y="369" type="curve" smooth="yes"/>
      <point x="399" y="369"/>
      <point x="383" y="387" name=".hr08"/>
      <point x="383" y="422" type="curve" smooth="yes" name=".hr09"/>
      <point x="383" y="457"/>
      <point x="399" y="473" name=".hr10"/>
      <point x="434" y="473" type="curve" smooth="yes"/>
      <point x="469" y="473"/>
      <point x="487" y="457"/>
    </contour>
    <contour>
      <point x="399" y="236" type="curve" smooth="yes" name=".hr11"/>
      <point x="399" y="201" name=".hr12"/>
      <point x="381" y="182"/>
      <point x="346" y="182" type="curve" smooth="yes"/>
      <point x="311" y="182" name=".hr13"/>
      <point x="295" y="201"/>
      <point x="295" y="236" type="curve" smooth="yes"/>
      <point x="295" y="270" name=".hr14"/>
      <point x="311" y="287"/>
      <point x="346" y="287" type="curve" smooth="yes" name=".hr15"/>
      <point x="381" y="287"/>
      <point x="399" y="270"/>
    </contour>
    <contour>
      <point x="313" y="53" type="curve" smooth="yes"/>
      <point x="313" y="18"/>
      <point x="295" y="0"/>
      <point x="260" y="0" type="curve" smooth="yes"/>
      <point x="225" y="0"/>
      <point x="209" y="18"/>
      <point x="209" y="53" type="curve" smooth="yes"/>
      <point x="209" y="88"/>
      <point x="225" y="104"/>
      <point x="260" y="104" type="curve" smooth="yes"/>
      <point x="295" y="104" name=".hr16"/>
      <point x="313" y="88"/>
    </contour>
    <contour>
      <point x="266" y="1274" type="curve" smooth="yes" name=".hr17"/>
      <point x="266" y="1313"/>
      <point x="233" y="1346"/>
      <point x="195" y="1346" type="curve" smooth="yes" name=".hr18"/>
      <point x="156" y="1346"/>
      <point x="123" y="1313"/>
      <point x="123" y="1274" type="curve" smooth="yes"/>
      <point x="123" y="1235"/>
      <point x="156" y="1202" name=".hr19"/>
      <point x="195" y="1202" type="curve" smooth="yes" name=".hr20"/>
      <point x="233" y="1202"/>
      <point x="266" y="1235" name=".hr21"/>
    </contour>
  </outline>
</glyph>
<glyph name="eight" format="2">
  <advance width="1024"/>
  <unicode hex="0038"/>
  <outline>
    <contour>
      <point x="926" y="1296" type="curve" smooth="yes"/>
      <point x="926" y="1262"/>
      <point x="907" y="1243"/>
      <point x="872" y="1243" type="curve" smooth="yes"/>
      <point x="838" y="1243"/>
      <point x="821" y="1262"/>
      <point x="821" y="1296" type="curve" smooth="yes"/>
      <point x="821" y="1331"/>
      <point x="838" y="1348"/>
      <point x="872" y="1348" type="curve" smooth="yes"/>
      <point x="907" y="1348"/>
      <point x="926" y="1331"/>
    </contour>
    <contour>
      <point x="829" y="1186" type="curve" smooth="yes"/>
      <point x="829" y="1151" name=".hr01"/>
      <point x="811" y="1133"/>
      <point x="776" y="1133" type="curve" smooth="yes" name=".hr02"/>
      <point x="741" y="1133"/>
      <point x="725" y="1151"/>
      <point x="725" y="1186" type="curve" smooth="yes" name=".hr03"/>
      <point x="725" y="1221"/>
      <point x="741" y="1237"/>
      <point x="776" y="1237" type="curve" smooth="yes" name=".hr04"/>
      <point x="811" y="1237"/>
      <point x="829" y="1221"/>
    </contour>
    <contour>
      <point x="721" y="1233" type="curve" smooth="yes"/>
      <point x="721" y="1182"/>
      <point x="680" y="1141"/>
      <point x="629" y="1141" type="curve" smooth="yes"/>
      <point x="578" y="1141" name=".hr05"/>
      <point x="537" y="1182"/>
      <point x="537" y="1233" type="curve" smooth="yes"/>
      <point x="537" y="1284"/>
      <point x="578" y="1325"/>
      <point x="629" y="1325" type="curve" smooth="yes"/>
      <point x="680" y="1325"/>
      <point x="721" y="1284"/>
    </contour>
    <contour>
      <point x="528" y="1282" type="curve" smooth="yes"/>
      <point x="528" y="1247"/>
      <point x="510" y="1229"/>
      <point x="475" y="1229" type="curve" smooth="yes"/>
      <point x="440" y="1229"/>
      <point x="424" y="1247" name=".hr06"/>
      <point x="424" y="1282" type="curve" smooth="yes"/>
      <point x="424" y="1317"/>
      <point x="440" y="1333"/>
      <point x="475" y="1333" type="curve" smooth="yes"/>
      <point x="510" y="1333"/>
      <point x="528" y="1317"/>
    </contour>
    <contour>
      <point x="731" y="1077" type="curve" smooth="yes"/>
      <point x="731" y="1042"/>
      <point x="713" y="1024"/>
      <point x="678" y="1024" type="curve" smooth="yes"/>
      <point x="643" y="1024"/>
      <point x="627" y="1042"/>
      <point x="627" y="1077" type="curve" smooth="yes"/>
      <point x="627" y="1112"/>
      <point x="643" y="1128"/>
      <point x="678" y="1128" type="curve" smooth="yes"/>
      <point x="713" y="1128"/>
      <point x="731" y="1112"/>
    </contour>
    <contour>
      <point x="623" y="958" type="curve" smooth="yes"/>
      <point x="623" y="924"/>
      <point x="604" y="905"/>
      <point x="569" y="905" type="curve" smooth="yes"/>
      <point x="535" y="905"/>
      <point x="518" y="924"/>
      <point x="518" y="958" type="curve" smooth="yes"/>
      <point x="518" y="993"/>
      <point x="535" y="1010"/>
      <point x="569" y="1010" type="curve" smooth="yes"/>
      <point x="604" y="1010" name=".hr07"/>
      <point x="623" y="993"/>
    </contour>
    <contour>
      <point x="336" y="1204" type="curve" smooth="yes"/>
      <point x="336" y="1169"/>
      <point x="317" y="1151"/>
      <point x="283" y="1151" type="curve" smooth="yes"/>
      <point x="248" y="1151"/>
      <point x="231" y="1169"/>
      <point x="231" y="1204" type="curve" smooth="yes"/>
      <point x="231" y="1239"/>
      <point x="248" y="1255"/>
      <point x="283" y="1255" type="curve" smooth="yes"/>
      <point x="317" y="1255"/>
      <point x="336" y="1239"/>
    </contour>
    <contour>
      <point x="516" y="840" type="curve" smooth="yes"/>
      <point x="516" y="805"/>
      <point x="498" y="786"/>
      <point x="463" y="786" type="curve" smooth="yes"/>
      <point x="428" y="786"/>
      <point x="412" y="805"/>
      <point x="412" y="840" type="curve" smooth="yes"/>
      <point x="412" y="874"/>
      <point x="428" y="891"/>
      <point x="463" y="891" type="curve" smooth="yes"/>
      <point x="498" y="891"/>
      <point x="516" y="874" name=".hr08"/>
    </contour>
    <contour>
      <point x="254" y="1036" type="curve" smooth="yes" name=".hr09"/>
      <point x="254" y="1001"/>
      <point x="236" y="983"/>
      <point x="201" y="983" type="curve" smooth="yes" name=".hr10"/>
      <point x="166" y="983"/>
      <point x="150" y="1001"/>
      <point x="150" y="1036" type="curve" smooth="yes" name=".hr11"/>
      <point x="150" y="1071"/>
      <point x="166" y="1087"/>
      <point x="201" y="1087" type="curve" smooth="yes"/>
      <point x="236" y="1087"/>
      <point x="254" y="1071"/>
    </contour>
    <contour>
      <point x="653" y="604" type="curve" smooth="yes"/>
      <point x="653" y="569"/>
      <point x="635" y="551"/>
      <point x="600" y="551" type="curve" smooth="yes"/>
      <point x="565" y="551"/>
      <point x="549" y="569"/>
      <point x="549" y="604" type="curve" smooth="yes"/>
      <point x="549" y="639"/>
      <point x="565" y="655"/>
      <point x="600" y="655" type="curve" smooth="yes"/>
      <point x="635" y="655"/>
      <point x="653" y="639"/>
    </contour>
    <contour>
      <point x="795" y="461" type="curve" smooth="yes"/>
      <point x="795" y="426"/>
      <point x="776" y="408"/>
      <point x="741" y="408" type="curve" smooth="yes"/>
      <point x="707" y="408"/>
      <point x="690" y="426"/>
      <point x="690" y="461" type="curve" smooth="yes"/>
      <point x="690" y="496"/>
      <point x="707" y="512"/>
      <point x="741" y="512" type="curve" smooth="yes"/>
      <point x="776" y="512"/>
      <point x="795" y="496"/>
    </contour>
    <contour>
      <point x="428" y="729" type="curve" smooth="yes"/>
      <point x="428" y="694"/>
      <point x="410" y="676"/>
      <point x="375" y="676" type="curve" smooth="yes"/>
      <point x="340" y="676"/>
      <point x="324" y="694"/>
      <point x="324" y="729" type="curve" smooth="yes"/>
      <point x="324" y="764"/>
      <point x="340" y="780"/>
      <point x="375" y="780" type="curve" smooth="yes"/>
      <point x="410" y="780"/>
      <point x="428" y="764" name=".hr12"/>
    </contour>
    <contour>
      <point x="287" y="860" type="curve" smooth="yes"/>
      <point x="287" y="825"/>
      <point x="268" y="807"/>
      <point x="233" y="807" type="curve" smooth="yes"/>
      <point x="199" y="807"/>
      <point x="182" y="825"/>
      <point x="182" y="860" type="curve" smooth="yes"/>
      <point x="182" y="895"/>
      <point x="199" y="911"/>
      <point x="233" y="911" type="curve" smooth="yes"/>
      <point x="268" y="911"/>
      <point x="287" y="895"/>
    </contour>
    <contour>
      <point x="821" y="272" type="curve" smooth="yes"/>
      <point x="821" y="238"/>
      <point x="803" y="219"/>
      <point x="768" y="219" type="curve" smooth="yes"/>
      <point x="733" y="219"/>
      <point x="717" y="238"/>
      <point x="717" y="272" type="curve" smooth="yes"/>
      <point x="717" y="307"/>
      <point x="733" y="324"/>
      <point x="768" y="324" type="curve" smooth="yes"/>
      <point x="803" y="324"/>
      <point x="821" y="307"/>
    </contour>
    <contour>
      <point x="313" y="616" type="curve" smooth="yes"/>
      <point x="313" y="582"/>
      <point x="295" y="563"/>
      <point x="260" y="563" type="curve" smooth="yes"/>
      <point x="225" y="563"/>
      <point x="209" y="582"/>
      <point x="209" y="616" type="curve" smooth="yes"/>
      <point x="209" y="651"/>
      <point x="225" y="668"/>
      <point x="260" y="668" type="curve" smooth="yes"/>
      <point x="295" y="668"/>
      <point x="313" y="651"/>
    </contour>
    <contour>
      <point x="715" y="113" type="curve" smooth="yes"/>
      <point x="715" y="78"/>
      <point x="696" y="59" name=".hr13"/>
      <point x="662" y="59" type="curve" smooth="yes"/>
      <point x="627" y="59"/>
      <point x="610" y="78"/>
      <point x="610" y="113" type="curve" smooth="yes"/>
      <point x="610" y="147"/>
      <point x="627" y="164"/>
      <point x="662" y="164" type="curve" smooth="yes"/>
      <point x="696" y="164"/>
      <point x="715" y="147"/>
    </contour>
    <contour>
      <point x="219" y="440" type="curve" smooth="yes"/>
      <point x="219" y="406"/>
      <point x="201" y="387"/>
      <point x="166" y="387" type="curve" smooth="yes"/>
      <point x="131" y="387"/>
      <point x="115" y="406"/>
      <point x="115" y="440" type="curve" smooth="yes"/>
      <point x="115" y="475"/>
      <point x="131" y="492" name=".hr14"/>
      <point x="166" y="492" type="curve" smooth="yes"/>
      <point x="201" y="492"/>
      <point x="219" y="475" name=".hr15"/>
    </contour>
    <contour>
      <point x="520" y="53" type="curve" smooth="yes"/>
      <point x="520" y="18"/>
      <point x="502" y="0"/>
      <point x="467" y="0" type="curve" smooth="yes"/>
      <point x="432" y="0"/>
      <point x="416" y="18"/>
      <point x="416" y="53" type="curve" smooth="yes"/>
      <point x="416" y="88"/>
      <point x="432" y="104"/>
      <point x="467" y="104" type="curve" smooth="yes"/>
      <point x="502" y="104"/>
      <point x="520" y="88"/>
    </contour>
    <contour>
      <point x="221" y="264" type="curve" smooth="yes"/>
      <point x="221" y="229"/>
      <point x="203" y="211"/>
      <point x="168" y="211" type="curve" smooth="yes"/>
      <point x="133" y="211"/>
      <point x="117" y="229"/>
      <point x="117" y="264" type="curve" smooth="yes"/>
      <point x="117" y="299"/>
      <point x="133" y="315"/>
      <point x="168" y="315" type="curve" smooth="yes"/>
      <point x="203" y="315"/>
      <point x="221" y="299"/>
    </contour>
    <contour>
      <point x="332" y="113" type="curve" smooth="yes"/>
      <point x="332" y="78"/>
      <point x="313" y="59"/>
      <point x="279" y="59" type="curve" smooth="yes"/>
      <point x="244" y="59"/>
      <point x="227" y="78"/>
      <point x="227" y="113" type="curve" smooth="yes"/>
      <point x="227" y="147"/>
      <point x="244" y="164"/>
      <point x="279" y="164" type="curve" smooth="yes"/>
      <point x="313" y="164"/>
      <point x="332" y="147"/>
    </contour>
    <contour>
      <point x="700" y="1233" type="curve" smooth="yes"/>
      <point x="700" y="1272"/>
      <point x="668" y="1305"/>
      <point x="629" y="1305" type="curve" smooth="yes"/>
      <point x="590" y="1305"/>
      <point x="557" y="1272"/>
      <point x="557" y="1233" type="curve" smooth="yes"/>
      <point x="557" y="1194"/>
      <point x="590" y="1161"/>
      <point x="629" y="1161" type="curve" smooth="yes" name=".hr16"/>
      <point x="668" y="1161"/>
      <point x="700" y="1194"/>
    </contour>
  </outline>
</glyph>
<glyph name="nine" format="2">
  <advance width="1024"/>
  <unicode hex="0039"/>
  <outline>
    <contour>
      <point x="735" y="1212" type="curve" smooth="yes"/>
      <point x="735" y="1178"/>
      <point x="717" y="1159" name=".hr01"/>
      <point x="682" y="1159" type="curve" smooth="yes"/>
      <point x="647" y="1159"/>
      <point x="631" y="1178" name=".hr02"/>
      <point x="631" y="1212" type="curve" smooth="yes"/>
      <point x="631" y="1247"/>
      <point x="647" y="1264"/>
      <point x="682" y="1264" type="curve" smooth="yes"/>
      <point x="717" y="1264"/>
      <point x="735" y="1247"/>
    </contour>
    <contour>
      <point x="866" y="1063" type="curve" smooth="yes"/>
      <point x="866" y="1012"/>
      <point x="825" y="971"/>
      <point x="774" y="971" type="curve" smooth="yes"/>
      <point x="723" y="971"/>
      <point x="682" y="1012"/>
      <point x="682" y="1063" type="curve" smooth="yes"/>
      <point x="682" y="1114"/>
      <point x="723" y="1155"/>
      <point x="774" y="1155" type="curve" smooth="yes"/>
      <point x="825" y="1155"/>
      <point x="866" y="1114"/>
    </contour>
    <contour>
      <point x="528" y="1296" type="curve" smooth="yes"/>
      <point x="528" y="1262"/>
      <point x="510" y="1243"/>
      <point x="475" y="1243" type="curve" smooth="yes"/>
      <point x="440" y="1243" name=".hr03"/>
      <point x="424" y="1262"/>
      <point x="424" y="1296" type="curve" smooth="yes"/>
      <point x="424" y="1331"/>
      <point x="440" y="1348"/>
      <point x="475" y="1348" type="curve" smooth="yes"/>
      <point x="510" y="1348"/>
      <point x="528" y="1331"/>
    </contour>
    <contour>
      <point x="834" y="872" type="curve" smooth="yes"/>
      <point x="834" y="838"/>
      <point x="815" y="819"/>
      <point x="780" y="819" type="curve" smooth="yes"/>
      <point x="745" y="819"/>
      <point x="729" y="838"/>
      <point x="729" y="872" type="curve" smooth="yes"/>
      <point x="729" y="907"/>
      <point x="745" y="924"/>
      <point x="780" y="924" type="curve" smooth="yes"/>
      <point x="815" y="924"/>
      <point x="834" y="907"/>
    </contour>
    <contour>
      <point x="324" y="1231" type="curve" smooth="yes"/>
      <point x="324" y="1196"/>
      <point x="305" y="1178"/>
      <point x="270" y="1178" type="curve" smooth="yes"/>
      <point x="236" y="1178"/>
      <point x="219" y="1196"/>
      <point x="219" y="1231" type="curve" smooth="yes" name=".hr04"/>
      <point x="219" y="1266"/>
      <point x="236" y="1282"/>
      <point x="270" y="1282" type="curve" smooth="yes"/>
      <point x="305" y="1282"/>
      <point x="324" y="1266"/>
    </contour>
    <contour>
      <point x="834" y="668" type="curve" smooth="yes"/>
      <point x="834" y="633"/>
      <point x="815" y="614"/>
      <point x="780" y="614" type="curve" smooth="yes"/>
      <point x="745" y="614"/>
      <point x="729" y="633"/>
      <point x="729" y="668" type="curve" smooth="yes"/>
      <point x="729" y="702"/>
      <point x="745" y="719"/>
      <point x="780" y="719" type="curve" smooth="yes"/>
      <point x="815" y="719"/>
      <point x="834" y="702"/>
    </contour>
    <contour>
      <point x="733" y="750" type="curve" smooth="yes"/>
      <point x="733" y="715"/>
      <point x="715" y="696"/>
      <point x="680" y="696" type="curve" smooth="yes"/>
      <point x="645" y="696"/>
      <point x="629" y="715"/>
      <point x="629" y="750" type="curve" smooth="yes" name=".hr05"/>
      <point x="629" y="784"/>
      <point x="645" y="801"/>
      <point x="680" y="801" type="curve" smooth="yes"/>
      <point x="715" y="801"/>
      <point x="733" y="784"/>
    </contour>
    <contour>
      <point x="834" y="463" type="curve" smooth="yes"/>
      <point x="834" y="428"/>
      <point x="815" y="410"/>
      <point x="780" y="410" type="curve" smooth="yes"/>
      <point x="745" y="410"/>
      <point x="729" y="428"/>
      <point x="729" y="463" type="curve" smooth="yes"/>
      <point x="729" y="498"/>
      <point x="745" y="514"/>
      <point x="780" y="514" type="curve" smooth="yes"/>
      <point x="815" y="514"/>
      <point x="834" y="498"/>
    </contour>
    <contour>
      <point x="205" y="1057" type="curve" smooth="yes" name=".hr06"/>
      <point x="205" y="1022"/>
      <point x="186" y="1004"/>
      <point x="152" y="1004" type="curve" smooth="yes"/>
      <point x="117" y="1004"/>
      <point x="100" y="1022"/>
      <point x="100" y="1057" type="curve" smooth="yes"/>
      <point x="100" y="1092"/>
      <point x="117" y="1108"/>
      <point x="152" y="1108" type="curve" smooth="yes"/>
      <point x="186" y="1108"/>
      <point x="205" y="1092"/>
    </contour>
    <contour>
      <point x="584" y="664" type="curve" smooth="yes"/>
      <point x="584" y="629"/>
      <point x="565" y="610"/>
      <point x="530" y="610" type="curve" smooth="yes"/>
      <point x="496" y="610"/>
      <point x="479" y="629"/>
      <point x="479" y="664" type="curve" smooth="yes"/>
      <point x="479" y="698"/>
      <point x="496" y="715"/>
      <point x="530" y="715" type="curve" smooth="yes"/>
      <point x="565" y="715"/>
      <point x="584" y="698"/>
    </contour>
    <contour>
      <point x="834" y="258" type="curve" smooth="yes"/>
      <point x="834" y="223"/>
      <point x="815" y="205"/>
      <point x="780" y="205" type="curve" smooth="yes"/>
      <point x="745" y="205"/>
      <point x="729" y="223"/>
      <point x="729" y="258" type="curve" smooth="yes"/>
      <point x="729" y="293"/>
      <point x="745" y="309"/>
      <point x="780" y="309" type="curve" smooth="yes"/>
      <point x="815" y="309"/>
      <point x="834" y="293"/>
    </contour>
    <contour>
      <point x="217" y="862" type="curve" smooth="yes"/>
      <point x="217" y="827"/>
      <point x="199" y="809"/>
      <point x="164" y="809" type="curve" smooth="yes"/>
      <point x="129" y="809"/>
      <point x="113" y="827"/>
      <point x="113" y="862" type="curve" smooth="yes"/>
      <point x="113" y="897"/>
      <point x="129" y="913"/>
      <point x="164" y="913" type="curve" smooth="yes"/>
      <point x="199" y="913"/>
      <point x="217" y="897" name=".hr07"/>
    </contour>
    <contour>
      <point x="367" y="698" type="curve" smooth="yes"/>
      <point x="367" y="664"/>
      <point x="348" y="645"/>
      <point x="313" y="645" type="curve" smooth="yes"/>
      <point x="279" y="645"/>
      <point x="262" y="664"/>
      <point x="262" y="698" type="curve" smooth="yes"/>
      <point x="262" y="733"/>
      <point x="279" y="750"/>
      <point x="313" y="750" type="curve" smooth="yes"/>
      <point x="348" y="750"/>
      <point x="367" y="733"/>
    </contour>
    <contour>
      <point x="834" y="53" type="curve" smooth="yes"/>
      <point x="834" y="18"/>
      <point x="815" y="0"/>
      <point x="780" y="0" type="curve" smooth="yes"/>
      <point x="745" y="0"/>
      <point x="729" y="18"/>
      <point x="729" y="53" type="curve" smooth="yes"/>
      <point x="729" y="88"/>
      <point x="745" y="104"/>
      <point x="780" y="104" type="curve" smooth="yes"/>
      <point x="815" y="104"/>
      <point x="834" y="88"/>
    </contour>
    <contour>
      <point x="846" y="1063" type="curve" smooth="yes"/>
      <point x="846" y="1102"/>
      <point x="813" y="1135"/>
      <point x="774" y="1135" type="curve" smooth="yes"/>
      <point x="735" y="1135"/>
      <point x="702" y="1102"/>
      <point x="702" y="1063" type="curve" smooth="yes"/>
      <point x="702" y="1024"/>
      <point x="735" y="991"/>
      <point x="774" y="991" type="curve" smooth="yes"/>
      <point x="813" y="991"/>
      <point x="846" y="1024"/>
    </contour>
  </outline>
</glyph>
<glyph name="equal" format="2">
  <advance width="1024"/>
  <unicode hex="003D"/>
  <outline>
    <contour>
      <point x="897" y="821" type="curve" smooth="yes"/>
      <point x="897" y="786"/>
      <point x="881" y="768"/>
      <point x="846" y="768" type="curve" smooth="yes"/>
      <point x="811" y="768"/>
      <point x="793" y="786"/>
      <point x="793" y="821" type="curve" smooth="yes"/>
      <point x="793" y="856"/>
      <point x="811" y="872"/>
      <point x="846" y="872" type="curve" smooth="yes"/>
      <point x="881" y="872"/>
      <point x="897" y="856"/>
    </contour>
    <contour>
      <point x="692" y="821" type="curve" smooth="yes"/>
      <point x="692" y="786"/>
      <point x="676" y="768"/>
      <point x="641" y="768" type="curve" smooth="yes"/>
      <point x="606" y="768"/>
      <point x="588" y="786"/>
      <point x="588" y="821" type="curve" smooth="yes"/>
      <point x="588" y="856"/>
      <point x="606" y="872"/>
      <point x="641" y="872" type="curve" smooth="yes"/>
      <point x="676" y="872"/>
      <point x="692" y="856"/>
    </contour>
    <contour>
      <point x="899" y="575" type="curve" smooth="yes"/>
      <point x="899" y="541"/>
      <point x="883" y="522"/>
      <point x="848" y="522" type="curve" smooth="yes"/>
      <point x="813" y="522"/>
      <point x="795" y="541"/>
      <point x="795" y="575" type="curve" smooth="yes"/>
      <point x="795" y="610"/>
      <point x="813" y="627"/>
      <point x="848" y="627" type="curve" smooth="yes"/>
      <point x="883" y="627"/>
      <point x="899" y="610"/>
    </contour>
    <contour>
      <point x="487" y="821" type="curve" smooth="yes"/>
      <point x="487" y="786"/>
      <point x="471" y="768"/>
      <point x="436" y="768" type="curve" smooth="yes"/>
      <point x="401" y="768"/>
      <point x="383" y="786"/>
      <point x="383" y="821" type="curve" smooth="yes"/>
      <point x="383" y="856"/>
      <point x="401" y="872"/>
      <point x="436" y="872" type="curve" smooth="yes"/>
      <point x="471" y="872"/>
      <point x="487" y="856"/>
    </contour>
    <contour>
      <point x="694" y="575" type="curve" smooth="yes"/>
      <point x="694" y="541"/>
      <point x="678" y="522"/>
      <point x="643" y="522" type="curve" smooth="yes"/>
      <point x="608" y="522"/>
      <point x="590" y="541"/>
      <point x="590" y="575" type="curve" smooth="yes"/>
      <point x="590" y="610"/>
      <point x="608" y="627"/>
      <point x="643" y="627" type="curve" smooth="yes"/>
      <point x="678" y="627"/>
      <point x="694" y="610"/>
    </contour>
    <contour>
      <point x="283" y="821" type="curve" smooth="yes"/>
      <point x="283" y="786"/>
      <point x="266" y="768"/>
      <point x="231" y="768" type="curve" smooth="yes"/>
      <point x="197" y="768"/>
      <point x="178" y="786"/>
      <point x="178" y="821" type="curve" smooth="yes"/>
      <point x="178" y="856"/>
      <point x="197" y="872"/>
      <point x="231" y="872" type="curve" smooth="yes"/>
      <point x="266" y="872"/>
      <point x="283" y="856"/>
    </contour>
    <contour>
      <point x="489" y="575" type="curve" smooth="yes"/>
      <point x="489" y="541"/>
      <point x="473" y="522"/>
      <point x="438" y="522" type="curve" smooth="yes"/>
      <point x="403" y="522"/>
      <point x="385" y="541"/>
      <point x="385" y="575" type="curve" smooth="yes"/>
      <point x="385" y="610"/>
      <point x="403" y="627"/>
      <point x="438" y="627" type="curve" smooth="yes"/>
      <point x="473" y="627"/>
      <point x="489" y="610"/>
    </contour>
    <contour>
      <point x="285" y="575" type="curve" smooth="yes"/>
      <point x="285" y="541"/>
      <point x="268" y="522"/>
      <point x="233" y="522" type="curve" smooth="yes"/>
      <point x="199" y="522"/>
      <point x="180" y="541"/>
      <point x="180" y="575" type="curve" smooth="yes"/>
      <point x="180" y="610"/>
      <point x="199" y="627"/>
      <point x="233" y="627" type="curve" smooth="yes"/>
      <point x="268" y="627"/>
      <point x="285" y="610"/>
    </contour>
  </outline>
</glyph>
<glyph name="A" format="2">
  <advance width="1536"/>
  <unicode hex="0041"/>
  <outline>
    <contour>
      <point x="860" y="1237" type="curve" smooth="yes"/>
      <point x="860" y="1186"/>
      <point x="817" y="1145"/>
      <point x="768" y="1145" type="curve" smooth="yes"/>
      <point x="717" y="1145"/>
      <point x="676" y="1186"/>
      <point x="676" y="1237" type="curve" smooth="yes"/>
      <point x="676" y="1286"/>
      <point x="717" y="1329"/>
      <point x="768" y="1329" type="curve" smooth="yes"/>
      <point x="817" y="1329"/>
      <point x="860" y="1286"/>
    </contour>
    <contour>
      <point x="950" y="1024" type="curve" smooth="yes"/>
      <point x="950" y="989" name=".hr01"/>
      <point x="932" y="971"/>
      <point x="897" y="971" type="curve" smooth="yes"/>
      <point x="862" y="971"/>
      <point x="846" y="989"/>
      <point x="846" y="1024" type="curve" smooth="yes"/>
      <point x="846" y="1059"/>
      <point x="862" y="1075"/>
      <point x="897" y="1075" type="curve" smooth="yes"/>
      <point x="932" y="1075"/>
      <point x="950" y="1059"/>
    </contour>
    <contour>
      <point x="1047" y="834" type="curve" smooth="yes"/>
      <point x="1047" y="799"/>
      <point x="1028" y="780"/>
      <point x="993" y="780" type="curve" smooth="yes"/>
      <point x="958" y="780"/>
      <point x="942" y="799"/>
      <point x="942" y="834" type="curve" smooth="yes"/>
      <point x="942" y="868" name=".hr02"/>
      <point x="958" y="885"/>
      <point x="993" y="885" type="curve" smooth="yes"/>
      <point x="1028" y="885"/>
      <point x="1047" y="868"/>
    </contour>
    <contour>
      <point x="1124" y="639" type="curve" smooth="yes"/>
      <point x="1124" y="604"/>
      <point x="1106" y="586"/>
      <point x="1071" y="586" type="curve" smooth="yes" name=".hr03"/>
      <point x="1036" y="586"/>
      <point x="1020" y="604"/>
      <point x="1020" y="639" type="curve" smooth="yes"/>
      <point x="1020" y="674"/>
      <point x="1036" y="690"/>
      <point x="1071" y="690" type="curve" smooth="yes"/>
      <point x="1106" y="690"/>
      <point x="1124" y="674"/>
    </contour>
    <contour>
      <point x="688" y="1022" type="curve" smooth="yes"/>
      <point x="688" y="987"/>
      <point x="670" y="969"/>
      <point x="635" y="969" type="curve" smooth="yes"/>
      <point x="600" y="969"/>
      <point x="584" y="987"/>
      <point x="584" y="1022" type="curve" smooth="yes"/>
      <point x="584" y="1057"/>
      <point x="600" y="1073"/>
      <point x="635" y="1073" type="curve" smooth="yes"/>
      <point x="670" y="1073"/>
      <point x="688" y="1057"/>
    </contour>
    <contour>
      <point x="1237" y="455" type="curve" smooth="yes"/>
      <point x="1237" y="420"/>
      <point x="1219" y="401"/>
      <point x="1184" y="401" type="curve" smooth="yes"/>
      <point x="1149" y="401"/>
      <point x="1133" y="420"/>
      <point x="1133" y="455" type="curve" smooth="yes"/>
      <point x="1133" y="489"/>
      <point x="1149" y="506"/>
      <point x="1184" y="506" type="curve" smooth="yes"/>
      <point x="1219" y="506"/>
      <point x="1237" y="489"/>
    </contour>
    <contour>
      <point x="1339" y="256" type="curve" smooth="yes"/>
      <point x="1339" y="221"/>
      <point x="1321" y="203"/>
      <point x="1286" y="203" type="curve" smooth="yes"/>
      <point x="1251" y="203"/>
      <point x="1235" y="221"/>
      <point x="1235" y="256" type="curve" smooth="yes" name=".hr04"/>
      <point x="1235" y="291"/>
      <point x="1251" y="307"/>
      <point x="1286" y="307" type="curve" smooth="yes"/>
      <point x="1321" y="307"/>
      <point x="1339" y="291"/>
    </contour>
    <contour>
      <point x="920" y="639" type="curve" smooth="yes"/>
      <point x="920" y="604"/>
      <point x="901" y="586"/>
      <point x="866" y="586" type="curve" smooth="yes"/>
      <point x="831" y="586"/>
      <point x="815" y="604"/>
      <point x="815" y="639" type="curve" smooth="yes"/>
      <point x="815" y="674"/>
      <point x="831" y="690"/>
      <point x="866" y="690" type="curve" smooth="yes"/>
      <point x="901" y="690"/>
      <point x="920" y="674"/>
    </contour>
    <contour>
      <point x="1444" y="55" type="curve" smooth="yes"/>
      <point x="1444" y="20"/>
      <point x="1425" y="2"/>
      <point x="1391" y="2" type="curve" smooth="yes"/>
      <point x="1356" y="2"/>
      <point x="1339" y="20"/>
      <point x="1339" y="55" type="curve" smooth="yes"/>
      <point x="1339" y="90"/>
      <point x="1356" y="106"/>
      <point x="1391" y="106" type="curve" smooth="yes"/>
      <point x="1425" y="106"/>
      <point x="1444" y="90"/>
    </contour>
    <contour>
      <point x="594" y="836" type="curve" smooth="yes"/>
      <point x="594" y="801"/>
      <point x="575" y="782"/>
      <point x="541" y="782" type="curve" smooth="yes"/>
      <point x="506" y="782"/>
      <point x="489" y="801"/>
      <point x="489" y="836" type="curve" smooth="yes"/>
      <point x="489" y="870"/>
      <point x="506" y="887"/>
      <point x="541" y="887" type="curve" smooth="yes"/>
      <point x="575" y="887"/>
      <point x="594" y="870"/>
    </contour>
    <contour>
      <point x="715" y="639" type="curve" smooth="yes"/>
      <point x="715" y="604"/>
      <point x="696" y="586"/>
      <point x="662" y="586" type="curve" smooth="yes"/>
      <point x="627" y="586"/>
      <point x="610" y="604"/>
      <point x="610" y="639" type="curve" smooth="yes"/>
      <point x="610" y="674"/>
      <point x="627" y="690"/>
      <point x="662" y="690" type="curve" smooth="yes"/>
      <point x="696" y="690"/>
      <point x="715" y="674"/>
    </contour>
    <contour>
      <point x="496" y="639" type="curve" smooth="yes"/>
      <point x="496" y="604"/>
      <point x="477" y="586"/>
      <point x="442" y="586" type="curve" smooth="yes" name=".hr05"/>
      <point x="408" y="586"/>
      <point x="391" y="604"/>
      <point x="391" y="639" type="curve" smooth="yes"/>
      <point x="391" y="674"/>
      <point x="408" y="690" name=".hr06"/>
      <point x="442" y="690" type="curve" smooth="yes"/>
      <point x="477" y="690"/>
      <point x="496" y="674"/>
    </contour>
    <contour>
      <point x="410" y="469" type="curve" smooth="yes"/>
      <point x="410" y="434"/>
      <point x="391" y="416"/>
      <point x="356" y="416" type="curve" smooth="yes"/>
      <point x="322" y="416"/>
      <point x="305" y="434"/>
      <point x="305" y="469" type="curve" smooth="yes"/>
      <point x="305" y="504"/>
      <point x="322" y="520"/>
      <point x="356" y="520" type="curve" smooth="yes"/>
      <point x="391" y="520"/>
      <point x="410" y="504"/>
    </contour>
    <contour>
      <point x="313" y="281" type="curve" smooth="yes"/>
      <point x="313" y="246"/>
      <point x="295" y="227"/>
      <point x="260" y="227" type="curve" smooth="yes"/>
      <point x="225" y="227"/>
      <point x="209" y="246" name=".hr07"/>
      <point x="209" y="281" type="curve" smooth="yes"/>
      <point x="209" y="315"/>
      <point x="225" y="332"/>
      <point x="260" y="332" type="curve" smooth="yes"/>
      <point x="295" y="332" name=".hr08"/>
      <point x="313" y="315"/>
    </contour>
    <contour>
      <point x="205" y="55" type="curve" smooth="yes"/>
      <point x="205" y="20"/>
      <point x="186" y="2"/>
      <point x="152" y="2" type="curve" smooth="yes"/>
      <point x="117" y="2"/>
      <point x="100" y="20"/>
      <point x="100" y="55" type="curve" smooth="yes"/>
      <point x="100" y="90"/>
      <point x="117" y="106"/>
      <point x="152" y="106" type="curve" smooth="yes"/>
      <point x="186" y="106"/>
      <point x="205" y="90"/>
    </contour>
    <contour>
      <point x="840" y="1237" type="curve" smooth="yes"/>
      <point x="840" y="1276"/>
      <point x="807" y="1309"/>
      <point x="768" y="1309" type="curve" smooth="yes"/>
      <point x="727" y="1309"/>
      <point x="696" y="1276"/>
      <point x="696" y="1237" type="curve" smooth="yes"/>
      <point x="696" y="1196"/>
      <point x="727" y="1165"/>
      <point x="768" y="1165" type="curve" smooth="yes"/>
      <point x="807" y="1165"/>
      <point x="840" y="1196"/>
    </contour>
  </outline>
</glyph>
<glyph name="B" format="2">
  <advance width="1229"/>
  <unicode hex="0042"/>
  <outline>
    <contour>
      <point x="1010" y="1198" type="curve" smooth="yes"/>
      <point x="1010" y="1163"/>
      <point x="991" y="1145"/>
      <point x="956" y="1145" type="curve" smooth="yes"/>
      <point x="922" y="1145"/>
      <point x="905" y="1163"/>
      <point x="905" y="1198" type="curve" smooth="yes"/>
      <point x="905" y="1233"/>
      <point x="922" y="1249"/>
      <point x="956" y="1249" type="curve" smooth="yes"/>
      <point x="991" y="1249"/>
      <point x="1010" y="1233"/>
    </contour>
    <contour>
      <point x="1090" y="1028" type="curve" smooth="yes"/>
      <point x="1090" y="993"/>
      <point x="1071" y="975"/>
      <point x="1036" y="975" type="curve" smooth="yes"/>
      <point x="1001" y="975"/>
      <point x="985" y="993"/>
      <point x="985" y="1028" type="curve" smooth="yes" name=".hr01"/>
      <point x="985" y="1063"/>
      <point x="1001" y="1079"/>
      <point x="1036" y="1079" type="curve" smooth="yes"/>
      <point x="1071" y="1079"/>
      <point x="1090" y="1063"/>
    </contour>
    <contour>
      <point x="809" y="1280" type="curve" smooth="yes"/>
      <point x="809" y="1245"/>
      <point x="791" y="1227"/>
      <point x="756" y="1227" type="curve" smooth="yes"/>
      <point x="721" y="1227"/>
      <point x="705" y="1245"/>
      <point x="705" y="1280" type="curve" smooth="yes"/>
      <point x="705" y="1315"/>
      <point x="721" y="1331"/>
      <point x="756" y="1331" type="curve" smooth="yes"/>
      <point x="791" y="1331"/>
      <point x="809" y="1315"/>
    </contour>
    <contour>
      <point x="1051" y="858" type="curve" smooth="yes"/>
      <point x="1051" y="823"/>
      <point x="1032" y="805"/>
      <point x="997" y="805" type="curve" smooth="yes"/>
      <point x="963" y="805"/>
      <point x="946" y="823"/>
      <point x="946" y="858" type="curve" smooth="yes"/>
      <point x="946" y="893"/>
      <point x="963" y="909" name=".hr02"/>
      <point x="997" y="909" type="curve" smooth="yes"/>
      <point x="1032" y="909"/>
      <point x="1051" y="893"/>
    </contour>
    <contour>
      <point x="604" y="1280" type="curve" smooth="yes"/>
      <point x="604" y="1245"/>
      <point x="586" y="1227"/>
      <point x="551" y="1227" type="curve" smooth="yes"/>
      <point x="516" y="1227"/>
      <point x="500" y="1245"/>
      <point x="500" y="1280" type="curve" smooth="yes"/>
      <point x="500" y="1315"/>
      <point x="516" y="1331"/>
      <point x="551" y="1331" type="curve" smooth="yes"/>
      <point x="586" y="1331"/>
      <point x="604" y="1315"/>
    </contour>
    <contour>
      <point x="399" y="1280" type="curve" smooth="yes"/>
      <point x="399" y="1245"/>
      <point x="381" y="1227"/>
      <point x="346" y="1227" type="curve" smooth="yes"/>
      <point x="311" y="1227"/>
      <point x="295" y="1245"/>
      <point x="295" y="1280" type="curve" smooth="yes"/>
      <point x="295" y="1315"/>
      <point x="311" y="1331"/>
      <point x="346" y="1331" type="curve" smooth="yes"/>
      <point x="381" y="1331"/>
      <point x="399" y="1315"/>
    </contour>
    <contour>
      <point x="928" y="733" type="curve" smooth="yes"/>
      <point x="928" y="698"/>
      <point x="909" y="680"/>
      <point x="874" y="680" type="curve" smooth="yes"/>
      <point x="840" y="680"/>
      <point x="823" y="698"/>
      <point x="823" y="733" type="curve" smooth="yes"/>
      <point x="823" y="768"/>
      <point x="840" y="784"/>
      <point x="874" y="784" type="curve" smooth="yes"/>
      <point x="909" y="784"/>
      <point x="928" y="768"/>
    </contour>
    <contour>
      <point x="1059" y="567" type="curve" smooth="yes"/>
      <point x="1059" y="532"/>
      <point x="1040" y="514"/>
      <point x="1006" y="514" type="curve" smooth="yes"/>
      <point x="971" y="514"/>
      <point x="954" y="532"/>
      <point x="954" y="567" type="curve" smooth="yes"/>
      <point x="954" y="602"/>
      <point x="971" y="618"/>
      <point x="1006" y="618" type="curve" smooth="yes"/>
      <point x="1040" y="618"/>
      <point x="1059" y="602"/>
    </contour>
    <contour>
      <point x="1116" y="391" type="curve" smooth="yes" name=".hr03"/>
      <point x="1116" y="356"/>
      <point x="1098" y="338"/>
      <point x="1063" y="338" type="curve" smooth="yes"/>
      <point x="1028" y="338"/>
      <point x="1012" y="356"/>
      <point x="1012" y="391" type="curve" smooth="yes"/>
      <point x="1012" y="426"/>
      <point x="1028" y="442" name=".hr04"/>
      <point x="1063" y="442" type="curve" smooth="yes"/>
      <point x="1098" y="442"/>
      <point x="1116" y="426"/>
    </contour>
    <contour>
      <point x="264" y="1274" type="curve" smooth="yes"/>
      <point x="264" y="1223"/>
      <point x="223" y="1182"/>
      <point x="172" y="1182" type="curve" smooth="yes"/>
      <point x="121" y="1182"/>
      <point x="80" y="1223"/>
      <point x="80" y="1274" type="curve" smooth="yes"/>
      <point x="80" y="1325"/>
      <point x="121" y="1366"/>
      <point x="172" y="1366" type="curve" smooth="yes"/>
      <point x="223" y="1366"/>
      <point x="264" y="1325"/>
    </contour>
    <contour>
      <point x="762" y="735" type="curve" smooth="yes"/>
      <point x="762" y="700"/>
      <point x="743" y="682"/>
      <point x="709" y="682" type="curve" smooth="yes"/>
      <point x="674" y="682"/>
      <point x="657" y="700"/>
      <point x="657" y="735" type="curve" smooth="yes"/>
      <point x="657" y="770"/>
      <point x="674" y="786"/>
      <point x="709" y="786" type="curve" smooth="yes"/>
      <point x="743" y="786"/>
      <point x="762" y="770"/>
    </contour>
    <contour>
      <point x="557" y="735" type="curve" smooth="yes"/>
      <point x="557" y="700"/>
      <point x="539" y="682"/>
      <point x="504" y="682" type="curve" smooth="yes"/>
      <point x="469" y="682"/>
      <point x="453" y="700"/>
      <point x="453" y="735" type="curve" smooth="yes"/>
      <point x="453" y="770"/>
      <point x="469" y="786"/>
      <point x="504" y="786" type="curve" smooth="yes"/>
      <point x="539" y="786"/>
      <point x="557" y="770"/>
    </contour>
    <contour>
      <point x="207" y="1077" type="curve" smooth="yes"/>
      <point x="207" y="1042"/>
      <point x="188" y="1024"/>
      <point x="154" y="1024" type="curve" smooth="yes"/>
      <point x="119" y="1024"/>
      <point x="102" y="1042"/>
      <point x="102" y="1077" type="curve" smooth="yes"/>
      <point x="102" y="1112"/>
      <point x="119" y="1128"/>
      <point x="154" y="1128" type="curve" smooth="yes"/>
      <point x="188" y="1128"/>
      <point x="207" y="1112"/>
    </contour>
    <contour>
      <point x="1004" y="152" type="curve" smooth="yes"/>
      <point x="1004" y="117"/>
      <point x="985" y="98"/>
      <point x="950" y="98" type="curve" smooth="yes"/>
      <point x="915" y="98"/>
      <point x="899" y="117"/>
      <point x="899" y="152" type="curve" smooth="yes"/>
      <point x="899" y="186"/>
      <point x="915" y="203"/>
      <point x="950" y="203" type="curve" smooth="yes"/>
      <point x="985" y="203"/>
      <point x="1004" y="186"/>
    </contour>
    <contour>
      <point x="352" y="735" type="curve" smooth="yes"/>
      <point x="352" y="700"/>
      <point x="334" y="682"/>
      <point x="299" y="682" type="curve" smooth="yes" name=".hr05"/>
      <point x="264" y="682"/>
      <point x="248" y="700"/>
      <point x="248" y="735" type="curve" smooth="yes" name=".hr06"/>
      <point x="248" y="770"/>
      <point x="264" y="786"/>
      <point x="299" y="786" type="curve" smooth="yes"/>
      <point x="334" y="786"/>
      <point x="352" y="770" name=".hr07"/>
    </contour>
    <contour>
      <point x="207" y="872" type="curve" smooth="yes"/>
      <point x="207" y="838"/>
      <point x="188" y="819"/>
      <point x="154" y="819" type="curve" smooth="yes"/>
      <point x="119" y="819"/>
      <point x="102" y="838"/>
      <point x="102" y="872" type="curve" smooth="yes" name=".hr08"/>
      <point x="102" y="907" name=".hr09"/>
      <point x="119" y="924"/>
      <point x="154" y="924" type="curve" smooth="yes"/>
      <point x="188" y="924" name=".hr10"/>
      <point x="207" y="907"/>
    </contour>
    <contour>
      <point x="207" y="668" type="curve" smooth="yes"/>
      <point x="207" y="633" name=".hr11"/>
      <point x="188" y="614"/>
      <point x="154" y="614" type="curve" smooth="yes"/>
      <point x="119" y="614"/>
      <point x="102" y="633"/>
      <point x="102" y="668" type="curve" smooth="yes"/>
      <point x="102" y="702"/>
      <point x="119" y="719"/>
      <point x="154" y="719" type="curve" smooth="yes"/>
      <point x="188" y="719"/>
      <point x="207" y="702"/>
    </contour>
    <contour>
      <point x="786" y="53" type="curve" smooth="yes"/>
      <point x="786" y="18"/>
      <point x="768" y="0"/>
      <point x="733" y="0" type="curve" smooth="yes"/>
      <point x="698" y="0"/>
      <point x="682" y="18"/>
      <point x="682" y="53" type="curve" smooth="yes"/>
      <point x="682" y="88"/>
      <point x="698" y="104"/>
      <point x="733" y="104" type="curve" smooth="yes"/>
      <point x="768" y="104"/>
      <point x="786" y="88"/>
    </contour>
    <contour>
      <point x="207" y="463" type="curve" smooth="yes"/>
      <point x="207" y="428"/>
      <point x="188" y="410"/>
      <point x="154" y="410" type="curve" smooth="yes"/>
      <point x="119" y="410"/>
      <point x="102" y="428"/>
      <point x="102" y="463" type="curve" smooth="yes"/>
      <point x="102" y="498"/>
      <point x="119" y="514"/>
      <point x="154" y="514" type="curve" smooth="yes"/>
      <point x="188" y="514"/>
      <point x="207" y="498"/>
    </contour>
    <contour>
      <point x="582" y="53" type="curve" smooth="yes"/>
      <point x="582" y="18"/>
      <point x="563" y="0"/>
      <point x="528" y="0" type="curve" smooth="yes"/>
      <point x="494" y="0"/>
      <point x="477" y="18"/>
      <point x="477" y="53" type="curve" smooth="yes"/>
      <point x="477" y="88"/>
      <point x="494" y="104"/>
      <point x="528" y="104" type="curve" smooth="yes"/>
      <point x="563" y="104"/>
      <point x="582" y="88"/>
    </contour>
    <contour>
      <point x="207" y="258" type="curve" smooth="yes"/>
      <point x="207" y="223"/>
      <point x="188" y="205"/>
      <point x="154" y="205" type="curve" smooth="yes"/>
      <point x="119" y="205"/>
      <point x="102" y="223"/>
      <point x="102" y="258" type="curve" smooth="yes"/>
      <point x="102" y="293"/>
      <point x="119" y="309"/>
      <point x="154" y="309" type="curve" smooth="yes"/>
      <point x="188" y="309"/>
      <point x="207" y="293"/>
    </contour>
    <contour>
      <point x="377" y="53" type="curve" smooth="yes"/>
      <point x="377" y="18"/>
      <point x="358" y="0"/>
      <point x="324" y="0" type="curve" smooth="yes"/>
      <point x="289" y="0"/>
      <point x="272" y="18"/>
      <point x="272" y="53" type="curve" smooth="yes"/>
      <point x="272" y="88"/>
      <point x="289" y="104"/>
      <point x="324" y="104" type="curve" smooth="yes"/>
      <point x="358" y="104"/>
      <point x="377" y="88"/>
    </contour>
    <contour>
      <point x="207" y="53" type="curve" smooth="yes"/>
      <point x="207" y="18"/>
      <point x="188" y="0"/>
      <point x="154" y="0" type="curve" smooth="yes"/>
      <point x="119" y="0"/>
      <point x="102" y="18"/>
      <point x="102" y="53" type="curve" smooth="yes"/>
      <point x="102" y="88"/>
      <point x="119" y="104"/>
      <point x="154" y="104" type="curve" smooth="yes"/>
      <point x="188" y="104"/>
      <point x="207" y="88"/>
    </contour>
    <contour>
      <point x="244" y="1274" type="curve" smooth="yes"/>
      <point x="244" y="1313"/>
      <point x="211" y="1346" name=".hr12"/>
      <point x="172" y="1346" type="curve" smooth="yes"/>
      <point x="133" y="1346"/>
      <point x="100" y="1313"/>
      <point x="100" y="1274" type="curve" smooth="yes"/>
      <point x="100" y="1235"/>
      <point x="133" y="1202"/>
      <point x="172" y="1202" type="curve" smooth="yes"/>
      <point x="211" y="1202"/>
      <point x="244" y="1235"/>
    </contour>
  </outline>
</glyph>
<glyph name="C" format="2">
  <advance width="1434"/>
  <unicode hex="0043"/>
  <outline>
    <contour>
      <point x="1376" y="1075" type="curve" smooth="yes"/>
      <point x="1376" y="1024"/>
      <point x="1335" y="983"/>
      <point x="1284" y="983" type="curve" smooth="yes"/>
      <point x="1233" y="983"/>
      <point x="1192" y="1024"/>
      <point x="1192" y="1075" type="curve" smooth="yes"/>
      <point x="1192" y="1126"/>
      <point x="1233" y="1167"/>
      <point x="1284" y="1167" type="curve" smooth="yes"/>
      <point x="1335" y="1167"/>
      <point x="1376" y="1126"/>
    </contour>
    <contour>
      <point x="1176" y="1186" type="curve" smooth="yes"/>
      <point x="1176" y="1151"/>
      <point x="1157" y="1133"/>
      <point x="1122" y="1133" type="curve" smooth="yes" name=".hr01"/>
      <point x="1087" y="1133"/>
      <point x="1071" y="1151"/>
      <point x="1071" y="1186" type="curve" smooth="yes"/>
      <point x="1071" y="1221"/>
      <point x="1087" y="1237"/>
      <point x="1122" y="1237" type="curve" smooth="yes"/>
      <point x="1157" y="1237"/>
      <point x="1176" y="1221"/>
    </contour>
    <contour>
      <point x="932" y="1276" type="curve" smooth="yes"/>
      <point x="932" y="1241"/>
      <point x="913" y="1223"/>
      <point x="879" y="1223" type="curve" smooth="yes"/>
      <point x="844" y="1223" name=".hr02"/>
      <point x="827" y="1241"/>
      <point x="827" y="1276" type="curve" smooth="yes"/>
      <point x="827" y="1311"/>
      <point x="844" y="1327"/>
      <point x="879" y="1327" type="curve" smooth="yes"/>
      <point x="913" y="1327"/>
      <point x="932" y="1311"/>
    </contour>
    <contour>
      <point x="686" y="1264" type="curve" smooth="yes"/>
      <point x="686" y="1229"/>
      <point x="668" y="1210"/>
      <point x="633" y="1210" type="curve" smooth="yes"/>
      <point x="598" y="1210"/>
      <point x="582" y="1229" name=".hr03"/>
      <point x="582" y="1264" type="curve" smooth="yes"/>
      <point x="582" y="1298"/>
      <point x="598" y="1315"/>
      <point x="633" y="1315" type="curve" smooth="yes"/>
      <point x="668" y="1315"/>
      <point x="686" y="1298"/>
    </contour>
    <contour>
      <point x="1341" y="299" type="curve" smooth="yes"/>
      <point x="1341" y="264"/>
      <point x="1323" y="246"/>
      <point x="1288" y="246" type="curve" smooth="yes"/>
      <point x="1253" y="246"/>
      <point x="1237" y="264"/>
      <point x="1237" y="299" type="curve" smooth="yes"/>
      <point x="1237" y="334"/>
      <point x="1253" y="350"/>
      <point x="1288" y="350" type="curve" smooth="yes"/>
      <point x="1323" y="350"/>
      <point x="1341" y="334"/>
    </contour>
    <contour>
      <point x="465" y="1157" type="curve" smooth="yes"/>
      <point x="465" y="1122"/>
      <point x="446" y="1104"/>
      <point x="412" y="1104" type="curve" smooth="yes"/>
      <point x="377" y="1104"/>
      <point x="360" y="1122"/>
      <point x="360" y="1157" type="curve" smooth="yes"/>
      <point x="360" y="1192"/>
      <point x="377" y="1208"/>
      <point x="412" y="1208" type="curve" smooth="yes"/>
      <point x="446" y="1208"/>
      <point x="465" y="1192"/>
    </contour>
    <contour>
      <point x="1208" y="172" type="curve" smooth="yes"/>
      <point x="1208" y="137"/>
      <point x="1190" y="119"/>
      <point x="1155" y="119" type="curve" smooth="yes"/>
      <point x="1120" y="119"/>
      <point x="1104" y="137"/>
      <point x="1104" y="172" type="curve" smooth="yes"/>
      <point x="1104" y="207"/>
      <point x="1120" y="223"/>
      <point x="1155" y="223" type="curve" smooth="yes"/>
      <point x="1190" y="223"/>
      <point x="1208" y="207"/>
    </contour>
    <contour>
      <point x="297" y="977" type="curve" smooth="yes"/>
      <point x="297" y="942"/>
      <point x="279" y="924"/>
      <point x="244" y="924" type="curve" smooth="yes"/>
      <point x="209" y="924"/>
      <point x="193" y="942"/>
      <point x="193" y="977" type="curve" smooth="yes"/>
      <point x="193" y="1012"/>
      <point x="209" y="1028"/>
      <point x="244" y="1028" type="curve" smooth="yes"/>
      <point x="279" y="1028"/>
      <point x="297" y="1012"/>
    </contour>
    <contour>
      <point x="1038" y="82" type="curve" smooth="yes"/>
      <point x="1038" y="47"/>
      <point x="1020" y="29"/>
      <point x="985" y="29" type="curve" smooth="yes"/>
      <point x="950" y="29"/>
      <point x="934" y="47"/>
      <point x="934" y="82" type="curve" smooth="yes"/>
      <point x="934" y="117"/>
      <point x="950" y="133"/>
      <point x="985" y="133" type="curve" smooth="yes"/>
      <point x="1020" y="133" name=".hr04"/>
      <point x="1038" y="117"/>
    </contour>
    <contour>
      <point x="219" y="778" type="curve" smooth="yes"/>
      <point x="219" y="743"/>
      <point x="201" y="725"/>
      <point x="166" y="725" type="curve" smooth="yes"/>
      <point x="131" y="725"/>
      <point x="115" y="743"/>
      <point x="115" y="778" type="curve" smooth="yes"/>
      <point x="115" y="813"/>
      <point x="131" y="829"/>
      <point x="166" y="829" type="curve" smooth="yes"/>
      <point x="201" y="829"/>
      <point x="219" y="813"/>
    </contour>
    <contour>
      <point x="838" y="53" type="curve" smooth="yes"/>
      <point x="838" y="18"/>
      <point x="819" y="0"/>
      <point x="784" y="0" type="curve" smooth="yes"/>
      <point x="750" y="0"/>
      <point x="733" y="18"/>
      <point x="733" y="53" type="curve" smooth="yes"/>
      <point x="733" y="88"/>
      <point x="750" y="104"/>
      <point x="784" y="104" type="curve" smooth="yes"/>
      <point x="819" y="104"/>
      <point x="838" y="88"/>
    </contour>
    <contour>
      <point x="211" y="592" type="curve" smooth="yes" name=".hr05"/>
      <point x="211" y="557"/>
      <point x="193" y="539"/>
      <point x="158" y="539" type="curve" smooth="yes"/>
      <point x="123" y="539"/>
      <point x="106" y="557"/>
      <point x="106" y="592" type="curve" smooth="yes"/>
      <point x="106" y="627"/>
      <point x="123" y="643"/>
      <point x="158" y="643" type="curve" smooth="yes"/>
      <point x="193" y="643"/>
      <point x="211" y="627"/>
    </contour>
    <contour>
      <point x="578" y="102" type="curve" smooth="yes"/>
      <point x="578" y="68"/>
      <point x="559" y="49"/>
      <point x="524" y="49" type="curve" smooth="yes"/>
      <point x="489" y="49" name=".hr06"/>
      <point x="473" y="68"/>
      <point x="473" y="102" type="curve" smooth="yes"/>
      <point x="473" y="137"/>
      <point x="489" y="154"/>
      <point x="524" y="154" type="curve" smooth="yes" name=".hr07"/>
      <point x="559" y="154"/>
      <point x="578" y="137"/>
    </contour>
    <contour>
      <point x="264" y="389" type="curve" smooth="yes"/>
      <point x="264" y="354"/>
      <point x="246" y="336"/>
      <point x="211" y="336" type="curve" smooth="yes"/>
      <point x="176" y="336"/>
      <point x="160" y="354"/>
      <point x="160" y="389" type="curve" smooth="yes"/>
      <point x="160" y="424"/>
      <point x="176" y="440"/>
      <point x="211" y="440" type="curve" smooth="yes"/>
      <point x="246" y="440"/>
      <point x="264" y="424"/>
    </contour>
    <contour>
      <point x="393" y="221" type="curve" smooth="yes"/>
      <point x="393" y="186" name=".hr08"/>
      <point x="375" y="168"/>
      <point x="340" y="168" type="curve" smooth="yes"/>
      <point x="305" y="168"/>
      <point x="289" y="186"/>
      <point x="289" y="221" type="curve" smooth="yes"/>
      <point x="289" y="256"/>
      <point x="305" y="272"/>
      <point x="340" y="272" type="curve" smooth="yes"/>
      <point x="375" y="272"/>
      <point x="393" y="256"/>
    </contour>
    <contour>
      <point x="1356" y="1075" type="curve" smooth="yes"/>
      <point x="1356" y="1114"/>
      <point x="1323" y="1147"/>
      <point x="1284" y="1147" type="curve" smooth="yes"/>
      <point x="1245" y="1147"/>
      <point x="1212" y="1114"/>
      <point x="1212" y="1075" type="curve" smooth="yes"/>
      <point x="1212" y="1036"/>
      <point x="1245" y="1004"/>
      <point x="1284" y="1004" type="curve" smooth="yes"/>
      <point x="1323" y="1004"/>
      <point x="1356" y="1036"/>
    </contour>
  </outline>
</glyph>
<glyph name="D" format="2">
  <advance width="1229"/>
  <unicode hex="0044"/>
  <outline>
    <contour>
      <point x="1016" y="1112" type="curve" smooth="yes"/>
      <point x="1016" y="1077"/>
      <point x="997" y="1059"/>
      <point x="963" y="1059" type="curve" smooth="yes"/>
      <point x="928" y="1059"/>
      <point x="911" y="1077"/>
      <point x="911" y="1112" type="curve" smooth="yes"/>
      <point x="911" y="1147"/>
      <point x="928" y="1163"/>
      <point x="963" y="1163" type="curve" smooth="yes"/>
      <point x="997" y="1163"/>
      <point x="1016" y="1147"/>
    </contour>
    <contour>
      <point x="834" y="1241" type="curve" smooth="yes"/>
      <point x="834" y="1206"/>
      <point x="815" y="1188"/>
      <point x="780" y="1188" type="curve" smooth="yes"/>
      <point x="745" y="1188"/>
      <point x="729" y="1206"/>
      <point x="729" y="1241" type="curve" smooth="yes" name=".hr01"/>
      <point x="729" y="1276"/>
      <point x="745" y="1292"/>
      <point x="780" y="1292" type="curve" smooth="yes"/>
      <point x="815" y="1292"/>
      <point x="834" y="1276" name=".hr02"/>
    </contour>
    <contour>
      <point x="1128" y="934" type="curve" smooth="yes"/>
      <point x="1128" y="899"/>
      <point x="1110" y="881"/>
      <point x="1075" y="881" type="curve" smooth="yes"/>
      <point x="1040" y="881"/>
      <point x="1024" y="899"/>
      <point x="1024" y="934" type="curve" smooth="yes"/>
      <point x="1024" y="969"/>
      <point x="1040" y="985"/>
      <point x="1075" y="985" type="curve" smooth="yes"/>
      <point x="1110" y="985"/>
      <point x="1128" y="969"/>
    </contour>
    <contour>
      <point x="610" y="1280" type="curve" smooth="yes"/>
      <point x="610" y="1245"/>
      <point x="592" y="1227"/>
      <point x="557" y="1227" type="curve" smooth="yes"/>
      <point x="522" y="1227"/>
      <point x="506" y="1245" name=".hr03"/>
      <point x="506" y="1280" type="curve" smooth="yes"/>
      <point x="506" y="1315"/>
      <point x="522" y="1331"/>
      <point x="557" y="1331" type="curve" smooth="yes"/>
      <point x="592" y="1331"/>
      <point x="610" y="1315"/>
    </contour>
    <contour>
      <point x="1182" y="686" type="curve" smooth="yes"/>
      <point x="1182" y="651"/>
      <point x="1163" y="633"/>
      <point x="1128" y="633" type="curve" smooth="yes"/>
      <point x="1094" y="633"/>
      <point x="1077" y="651"/>
      <point x="1077" y="686" type="curve" smooth="yes"/>
      <point x="1077" y="721"/>
      <point x="1094" y="737"/>
      <point x="1128" y="737" type="curve" smooth="yes" name=".hr04"/>
      <point x="1163" y="737"/>
      <point x="1182" y="721"/>
    </contour>
    <contour>
      <point x="406" y="1280" type="curve" smooth="yes"/>
      <point x="406" y="1245" name=".hr05"/>
      <point x="387" y="1227"/>
      <point x="352" y="1227" type="curve" smooth="yes"/>
      <point x="317" y="1227"/>
      <point x="301" y="1245"/>
      <point x="301" y="1280" type="curve" smooth="yes"/>
      <point x="301" y="1315"/>
      <point x="317" y="1331"/>
      <point x="352" y="1331" type="curve" smooth="yes"/>
      <point x="387" y="1331"/>
      <point x="406" y="1315"/>
    </contour>
    <contour>
      <point x="1161" y="496" type="curve" smooth="yes"/>
      <point x="1161" y="461"/>
      <point x="1143" y="442"/>
      <point x="1108" y="442" type="curve" smooth="yes"/>
      <point x="1073" y="442"/>
      <point x="1057" y="461"/>
      <point x="1057" y="496" type="curve" smooth="yes" name=".hr06"/>
      <point x="1057" y="530"/>
      <point x="1073" y="547"/>
      <point x="1108" y="547" type="curve" smooth="yes"/>
      <point x="1143" y="547"/>
      <point x="1161" y="530"/>
    </contour>
    <contour>
      <point x="262" y="1276" type="curve" smooth="yes"/>
      <point x="262" y="1225"/>
      <point x="221" y="1184"/>
      <point x="170" y="1184" type="curve" smooth="yes"/>
      <point x="119" y="1184"/>
      <point x="78" y="1225"/>
      <point x="78" y="1276" type="curve" smooth="yes"/>
      <point x="78" y="1327"/>
      <point x="119" y="1368"/>
      <point x="170" y="1368" type="curve" smooth="yes"/>
      <point x="221" y="1368"/>
      <point x="262" y="1327"/>
    </contour>
    <contour>
      <point x="1096" y="332" type="curve" smooth="yes"/>
      <point x="1096" y="297"/>
      <point x="1077" y="279"/>
      <point x="1042" y="279" type="curve" smooth="yes"/>
      <point x="1008" y="279"/>
      <point x="991" y="297"/>
      <point x="991" y="332" type="curve" smooth="yes"/>
      <point x="991" y="367"/>
      <point x="1008" y="383"/>
      <point x="1042" y="383" type="curve" smooth="yes"/>
      <point x="1077" y="383" name=".hr07"/>
      <point x="1096" y="367"/>
    </contour>
    <contour>
      <point x="207" y="1077" type="curve" smooth="yes"/>
      <point x="207" y="1042" name=".hr08"/>
      <point x="188" y="1024"/>
      <point x="154" y="1024" type="curve" smooth="yes"/>
      <point x="119" y="1024"/>
      <point x="102" y="1042"/>
      <point x="102" y="1077" type="curve" smooth="yes" name=".hr09"/>
      <point x="102" y="1112"/>
      <point x="119" y="1128"/>
      <point x="154" y="1128" type="curve" smooth="yes"/>
      <point x="188" y="1128"/>
      <point x="207" y="1112"/>
    </contour>
    <contour>
      <point x="983" y="182" type="curve" smooth="yes"/>
      <point x="983" y="147"/>
      <point x="965" y="129"/>
      <point x="930" y="129" type="curve" smooth="yes"/>
      <point x="895" y="129"/>
      <point x="879" y="147"/>
      <point x="879" y="182" type="curve" smooth="yes"/>
      <point x="879" y="217"/>
      <point x="895" y="233"/>
      <point x="930" y="233" type="curve" smooth="yes"/>
      <point x="965" y="233"/>
      <point x="983" y="217"/>
    </contour>
    <contour>
      <point x="207" y="872" type="curve" smooth="yes"/>
      <point x="207" y="838"/>
      <point x="188" y="819"/>
      <point x="154" y="819" type="curve" smooth="yes"/>
      <point x="119" y="819"/>
      <point x="102" y="838"/>
      <point x="102" y="872" type="curve" smooth="yes"/>
      <point x="102" y="907"/>
      <point x="119" y="924"/>
      <point x="154" y="924" type="curve" smooth="yes"/>
      <point x="188" y="924"/>
      <point x="207" y="907"/>
    </contour>
    <contour>
      <point x="815" y="84" type="curve" smooth="yes"/>
      <point x="815" y="49"/>
      <point x="797" y="31"/>
      <point x="762" y="31" type="curve" smooth="yes"/>
      <point x="727" y="31"/>
      <point x="711" y="49"/>
      <point x="711" y="84" type="curve" smooth="yes"/>
      <point x="711" y="119"/>
      <point x="727" y="135"/>
      <point x="762" y="135" type="curve" smooth="yes"/>
      <point x="797" y="135"/>
      <point x="815" y="119"/>
    </contour>
    <contour>
      <point x="207" y="668" type="curve" smooth="yes"/>
      <point x="207" y="633"/>
      <point x="188" y="614" name=".hr10"/>
      <point x="154" y="614" type="curve" smooth="yes"/>
      <point x="119" y="614"/>
      <point x="102" y="633"/>
      <point x="102" y="668" type="curve" smooth="yes"/>
      <point x="102" y="702"/>
      <point x="119" y="719"/>
      <point x="154" y="719" type="curve" smooth="yes"/>
      <point x="188" y="719"/>
      <point x="207" y="702"/>
    </contour>
    <contour>
      <point x="207" y="463" type="curve" smooth="yes"/>
      <point x="207" y="428"/>
      <point x="188" y="410"/>
      <point x="154" y="410" type="curve" smooth="yes" name=".hr11"/>
      <point x="119" y="410"/>
      <point x="102" y="428"/>
      <point x="102" y="463" type="curve" smooth="yes" name=".hr12"/>
      <point x="102" y="498"/>
      <point x="119" y="514"/>
      <point x="154" y="514" type="curve" smooth="yes"/>
      <point x="188" y="514"/>
      <point x="207" y="498"/>
    </contour>
    <contour>
      <point x="594" y="53" type="curve" smooth="yes"/>
      <point x="594" y="18"/>
      <point x="575" y="0"/>
      <point x="541" y="0" type="curve" smooth="yes"/>
      <point x="506" y="0"/>
      <point x="489" y="18"/>
      <point x="489" y="53" type="curve" smooth="yes"/>
      <point x="489" y="88"/>
      <point x="506" y="104"/>
      <point x="541" y="104" type="curve" smooth="yes"/>
      <point x="575" y="104"/>
      <point x="594" y="88"/>
    </contour>
    <contour>
      <point x="207" y="258" type="curve" smooth="yes"/>
      <point x="207" y="223"/>
      <point x="188" y="205"/>
      <point x="154" y="205" type="curve" smooth="yes"/>
      <point x="119" y="205"/>
      <point x="102" y="223"/>
      <point x="102" y="258" type="curve" smooth="yes"/>
      <point x="102" y="293"/>
      <point x="119" y="309" name=".hr13"/>
      <point x="154" y="309" type="curve" smooth="yes"/>
      <point x="188" y="309"/>
      <point x="207" y="293" name=".hr14"/>
    </contour>
    <contour>
      <point x="389" y="53" type="curve" smooth="yes"/>
      <point x="389" y="18"/>
      <point x="371" y="0"/>
      <point x="336" y="0" type="curve" smooth="yes"/>
      <point x="301" y="0"/>
      <point x="285" y="18"/>
      <point x="285" y="53" type="curve" smooth="yes"/>
      <point x="285" y="88"/>
      <point x="301" y="104"/>
      <point x="336" y="104" type="curve" smooth="yes"/>
      <point x="371" y="104"/>
      <point x="389" y="88"/>
    </contour>
    <contour>
      <point x="207" y="53" type="curve" smooth="yes"/>
      <point x="207" y="18"/>
      <point x="188" y="0"/>
      <point x="154" y="0" type="curve" smooth="yes"/>
      <point x="119" y="0"/>
      <point x="102" y="18"/>
      <point x="102" y="53" type="curve" smooth="yes"/>
      <point x="102" y="88"/>
      <point x="119" y="104"/>
      <point x="154" y="104" type="curve" smooth="yes" name=".hr15"/>
      <point x="188" y="104" name=".hr16"/>
      <point x="207" y="88"/>
    </contour>
    <contour>
      <point x="242" y="1276" type="curve" smooth="yes"/>
      <point x="242" y="1315" name=".hr17"/>
      <point x="209" y="1348"/>
      <point x="170" y="1348" type="curve" smooth="yes"/>
      <point x="131" y="1348" name=".hr18"/>
      <point x="98" y="1315"/>
      <point x="98" y="1276" type="curve" smooth="yes"/>
      <point x="98" y="1237"/>
      <point x="131" y="1204"/>
      <point x="170" y="1204" type="curve" smooth="yes"/>
      <point x="209" y="1204"/>
      <point x="242" y="1237"/>
    </contour>
  </outline>
</glyph>
<glyph name="I" format="2">
  <advance width="614"/>
  <unicode hex="0049"/>
  <outline>
    <contour>
      <point x="553" y="1282" type="curve" smooth="yes"/>
      <point x="553" y="1247"/>
      <point x="535" y="1229"/>
      <point x="500" y="1229" type="curve" smooth="yes"/>
      <point x="465" y="1229"/>
      <point x="449" y="1247"/>
      <point x="449" y="1282" type="curve" smooth="yes"/>
      <point x="449" y="1317"/>
      <point x="465" y="1333"/>
      <point x="500" y="1333" type="curve" smooth="yes"/>
      <point x="535" y="1333"/>
      <point x="553" y="1317"/>
    </contour>
    <contour>
      <point x="387" y="1276" type="curve" smooth="yes"/>
      <point x="387" y="1225"/>
      <point x="346" y="1184"/>
      <point x="295" y="1184" type="curve" smooth="yes"/>
      <point x="244" y="1184"/>
      <point x="203" y="1225"/>
      <point x="203" y="1276" type="curve" smooth="yes"/>
      <point x="203" y="1327"/>
      <point x="244" y="1368"/>
      <point x="295" y="1368" type="curve" smooth="yes"/>
      <point x="346" y="1368"/>
      <point x="387" y="1327"/>
    </contour>
    <contour>
      <point x="350" y="1077" type="curve" smooth="yes"/>
      <point x="350" y="1042"/>
      <point x="332" y="1024"/>
      <point x="297" y="1024" type="curve" smooth="yes"/>
      <point x="262" y="1024"/>
      <point x="246" y="1042"/>
      <point x="246" y="1077" type="curve" smooth="yes"/>
      <point x="246" y="1112"/>
      <point x="262" y="1128"/>
      <point x="297" y="1128" type="curve" smooth="yes"/>
      <point x="332" y="1128"/>
      <point x="350" y="1112"/>
    </contour>
    <contour>
      <point x="143" y="1282" type="curve" smooth="yes"/>
      <point x="143" y="1247"/>
      <point x="125" y="1229"/>
      <point x="90" y="1229" type="curve" smooth="yes"/>
      <point x="55" y="1229"/>
      <point x="39" y="1247"/>
      <point x="39" y="1282" type="curve" smooth="yes"/>
      <point x="39" y="1317"/>
      <point x="55" y="1333"/>
      <point x="90" y="1333" type="curve" smooth="yes"/>
      <point x="125" y="1333"/>
      <point x="143" y="1317"/>
    </contour>
    <contour>
      <point x="350" y="872" type="curve" smooth="yes"/>
      <point x="350" y="838"/>
      <point x="332" y="819"/>
      <point x="297" y="819" type="curve" smooth="yes"/>
      <point x="262" y="819"/>
      <point x="246" y="838"/>
      <point x="246" y="872" type="curve" smooth="yes"/>
      <point x="246" y="907"/>
      <point x="262" y="924"/>
      <point x="297" y="924" type="curve" smooth="yes"/>
      <point x="332" y="924"/>
      <point x="350" y="907"/>
    </contour>
    <contour>
      <point x="350" y="668" type="curve" smooth="yes"/>
      <point x="350" y="633"/>
      <point x="332" y="614"/>
      <point x="297" y="614" type="curve" smooth="yes"/>
      <point x="262" y="614"/>
      <point x="246" y="633"/>
      <point x="246" y="668" type="curve" smooth="yes"/>
      <point x="246" y="702"/>
      <point x="262" y="719"/>
      <point x="297" y="719" type="curve" smooth="yes"/>
      <point x="332" y="719"/>
      <point x="350" y="702"/>
    </contour>
    <contour>
      <point x="350" y="463" type="curve" smooth="yes"/>
      <point x="350" y="428"/>
      <point x="332" y="410"/>
      <point x="297" y="410" type="curve" smooth="yes"/>
      <point x="262" y="410"/>
      <point x="246" y="428"/>
      <point x="246" y="463" type="curve" smooth="yes"/>
      <point x="246" y="498"/>
      <point x="262" y="514"/>
      <point x="297" y="514" type="curve" smooth="yes"/>
      <point x="332" y="514"/>
      <point x="350" y="498"/>
    </contour>
    <contour>
      <point x="350" y="258" type="curve" smooth="yes"/>
      <point x="350" y="223"/>
      <point x="332" y="205"/>
      <point x="297" y="205" type="curve" smooth="yes"/>
      <point x="262" y="205"/>
      <point x="246" y="223"/>
      <point x="246" y="258" type="curve" smooth="yes"/>
      <point x="246" y="293"/>
      <point x="262" y="309"/>
      <point x="297" y="309" type="curve" smooth="yes"/>
      <point x="332" y="309"/>
      <point x="350" y="293"/>
    </contour>
    <contour>
      <point x="510" y="53" type="curve" smooth="yes"/>
      <point x="510" y="18"/>
      <point x="492" y="0"/>
      <point x="457" y="0" type="curve" smooth="yes"/>
      <point x="422" y="0"/>
      <point x="406" y="18"/>
      <point x="406" y="53" type="curve" smooth="yes"/>
      <point x="406" y="88"/>
      <point x="422" y="104" name=".hr01"/>
      <point x="457" y="104" type="curve" smooth="yes"/>
      <point x="492" y="104"/>
      <point x="510" y="88"/>
    </contour>
    <contour>
      <point x="350" y="53" type="curve" smooth="yes"/>
      <point x="350" y="18"/>
      <point x="332" y="0"/>
      <point x="297" y="0" type="curve" smooth="yes"/>
      <point x="262" y="0"/>
      <point x="246" y="18"/>
      <point x="246" y="53" type="curve" smooth="yes"/>
      <point x="246" y="88"/>
      <point x="262" y="104"/>
      <point x="297" y="104" type="curve" smooth="yes"/>
      <point x="332" y="104"/>
      <point x="350" y="88"/>
    </contour>
    <contour>
      <point x="184" y="53" type="curve" smooth="yes"/>
      <point x="184" y="18"/>
      <point x="166" y="0"/>
      <point x="131" y="0" type="curve" smooth="yes"/>
      <point x="96" y="0"/>
      <point x="80" y="18"/>
      <point x="80" y="53" type="curve" smooth="yes"/>
      <point x="80" y="88"/>
      <point x="96" y="104"/>
      <point x="131" y="104" type="curve" smooth="yes"/>
      <point x="166" y="104"/>
      <point x="184" y="88"/>
    </contour>
    <contour>
      <point x="367" y="1276" type="curve" smooth="yes"/>
      <point x="367" y="1315"/>
      <point x="334" y="1348"/>
      <point x="295" y="1348" type="curve" smooth="yes"/>
      <point x="256" y="1348"/>
      <point x="223" y="1315"/>
      <point x="223" y="1276" type="curve" smooth="yes"/>
      <point x="223" y="1237"/>
      <point x="256" y="1204"/>
      <point x="295" y="1204" type="curve" smooth="yes"/>
      <point x="334" y="1204"/>
      <point x="367" y="1237"/>
    </contour>
  </outline>
</glyph>
<glyph name="J" format="2">
  <advance width="1434"/>
  <unicode hex="004A"/>
  <outline>
    <contour>
      <point x="1356" y="1280" type="curve" smooth="yes"/>
      <point x="1356" y="1245"/>
      <point x="1337" y="1227"/>
      <point x="1303" y="1227" type="curve" smooth="yes"/>
      <point x="1268" y="1227"/>
      <point x="1251" y="1245"/>
      <point x="1251" y="1280" type="curve" smooth="yes"/>
      <point x="1251" y="1315"/>
      <point x="1268" y="1331"/>
      <point x="1303" y="1331" type="curve" smooth="yes"/>
      <point x="1337" y="1331"/>
      <point x="1356" y="1315"/>
    </contour>
    <contour>
      <point x="1153" y="1282" type="curve" smooth="yes"/>
      <point x="1153" y="1247"/>
      <point x="1135" y="1229"/>
      <point x="1100" y="1229" type="curve" smooth="yes"/>
      <point x="1065" y="1229"/>
      <point x="1049" y="1247"/>
      <point x="1049" y="1282" type="curve" smooth="yes"/>
      <point x="1049" y="1317"/>
      <point x="1065" y="1333"/>
      <point x="1100" y="1333" type="curve" smooth="yes"/>
      <point x="1135" y="1333"/>
      <point x="1153" y="1317"/>
    </contour>
    <contour>
      <point x="989" y="1276" type="curve" smooth="yes"/>
      <point x="989" y="1225"/>
      <point x="948" y="1184"/>
      <point x="897" y="1184" type="curve" smooth="yes"/>
      <point x="846" y="1184"/>
      <point x="805" y="1225"/>
      <point x="805" y="1276" type="curve" smooth="yes"/>
      <point x="805" y="1327"/>
      <point x="846" y="1368"/>
      <point x="897" y="1368" type="curve" smooth="yes"/>
      <point x="948" y="1368"/>
      <point x="989" y="1327"/>
    </contour>
    <contour>
      <point x="961" y="1077" type="curve" smooth="yes"/>
      <point x="961" y="1042"/>
      <point x="942" y="1024"/>
      <point x="907" y="1024" type="curve" smooth="yes"/>
      <point x="872" y="1024"/>
      <point x="856" y="1042"/>
      <point x="856" y="1077" type="curve" smooth="yes"/>
      <point x="856" y="1112"/>
      <point x="872" y="1128"/>
      <point x="907" y="1128" type="curve" smooth="yes"/>
      <point x="942" y="1128"/>
      <point x="961" y="1112"/>
    </contour>
    <contour>
      <point x="743" y="1282" type="curve" smooth="yes"/>
      <point x="743" y="1247"/>
      <point x="725" y="1229"/>
      <point x="690" y="1229" type="curve" smooth="yes"/>
      <point x="655" y="1229"/>
      <point x="639" y="1247"/>
      <point x="639" y="1282" type="curve" smooth="yes"/>
      <point x="639" y="1317"/>
      <point x="655" y="1333"/>
      <point x="690" y="1333" type="curve" smooth="yes"/>
      <point x="725" y="1333"/>
      <point x="743" y="1317"/>
    </contour>
    <contour>
      <point x="965" y="907" type="curve" smooth="yes"/>
      <point x="965" y="872"/>
      <point x="946" y="854"/>
      <point x="911" y="854" type="curve" smooth="yes"/>
      <point x="877" y="854"/>
      <point x="860" y="872"/>
      <point x="860" y="907" type="curve" smooth="yes"/>
      <point x="860" y="942"/>
      <point x="877" y="958"/>
      <point x="911" y="958" type="curve" smooth="yes"/>
      <point x="946" y="958"/>
      <point x="965" y="942"/>
    </contour>
    <contour>
      <point x="539" y="1282" type="curve" smooth="yes"/>
      <point x="539" y="1247"/>
      <point x="520" y="1229"/>
      <point x="485" y="1229" type="curve" smooth="yes"/>
      <point x="451" y="1229"/>
      <point x="434" y="1247"/>
      <point x="434" y="1282" type="curve" smooth="yes"/>
      <point x="434" y="1317"/>
      <point x="451" y="1333"/>
      <point x="485" y="1333" type="curve" smooth="yes"/>
      <point x="520" y="1333"/>
      <point x="539" y="1317"/>
    </contour>
    <contour>
      <point x="965" y="702" type="curve" smooth="yes"/>
      <point x="965" y="668"/>
      <point x="946" y="649"/>
      <point x="911" y="649" type="curve" smooth="yes"/>
      <point x="877" y="649"/>
      <point x="860" y="668"/>
      <point x="860" y="702" type="curve" smooth="yes"/>
      <point x="860" y="737"/>
      <point x="877" y="754"/>
      <point x="911" y="754" type="curve" smooth="yes"/>
      <point x="946" y="754"/>
      <point x="965" y="737"/>
    </contour>
    <contour>
      <point x="965" y="498" type="curve" smooth="yes"/>
      <point x="965" y="463"/>
      <point x="946" y="444"/>
      <point x="911" y="444" type="curve" smooth="yes"/>
      <point x="877" y="444"/>
      <point x="860" y="463"/>
      <point x="860" y="498" type="curve" smooth="yes"/>
      <point x="860" y="532"/>
      <point x="877" y="549"/>
      <point x="911" y="549" type="curve" smooth="yes"/>
      <point x="946" y="549"/>
      <point x="965" y="532"/>
    </contour>
    <contour>
      <point x="909" y="256" type="curve" smooth="yes"/>
      <point x="909" y="221"/>
      <point x="891" y="203"/>
      <point x="856" y="203" type="curve" smooth="yes"/>
      <point x="821" y="203"/>
      <point x="805" y="221"/>
      <point x="805" y="256" type="curve" smooth="yes"/>
      <point x="805" y="291"/>
      <point x="821" y="307"/>
      <point x="856" y="307" type="curve" smooth="yes" name=".hr01"/>
      <point x="891" y="307"/>
      <point x="909" y="291"/>
    </contour>
    <contour>
      <point x="774" y="113" type="curve" smooth="yes"/>
      <point x="774" y="78"/>
      <point x="756" y="59"/>
      <point x="721" y="59" type="curve" smooth="yes"/>
      <point x="686" y="59"/>
      <point x="670" y="78"/>
      <point x="670" y="113" type="curve" smooth="yes"/>
      <point x="670" y="147"/>
      <point x="686" y="164"/>
      <point x="721" y="164" type="curve" smooth="yes"/>
      <point x="756" y="164"/>
      <point x="774" y="147"/>
    </contour>
    <contour>
      <point x="559" y="53" type="curve" smooth="yes"/>
      <point x="559" y="18"/>
      <point x="541" y="0"/>
      <point x="506" y="0" type="curve" smooth="yes"/>
      <point x="471" y="0"/>
      <point x="455" y="18"/>
      <point x="455" y="53" type="curve" smooth="yes"/>
      <point x="455" y="88"/>
      <point x="471" y="104"/>
      <point x="506" y="104" type="curve" smooth="yes"/>
      <point x="541" y="104"/>
      <point x="559" y="88"/>
    </contour>
    <contour>
      <point x="186" y="371" type="curve" smooth="yes"/>
      <point x="186" y="336" name=".hr02"/>
      <point x="168" y="317"/>
      <point x="133" y="317" type="curve" smooth="yes"/>
      <point x="98" y="317"/>
      <point x="82" y="336"/>
      <point x="82" y="371" type="curve" smooth="yes"/>
      <point x="82" y="406"/>
      <point x="98" y="422"/>
      <point x="133" y="422" type="curve" smooth="yes"/>
      <point x="168" y="422"/>
      <point x="186" y="406"/>
    </contour>
    <contour>
      <point x="412" y="82" type="curve" smooth="yes"/>
      <point x="412" y="47"/>
      <point x="393" y="29"/>
      <point x="358" y="29" type="curve" smooth="yes"/>
      <point x="324" y="29"/>
      <point x="307" y="47"/>
      <point x="307" y="82" type="curve" smooth="yes"/>
      <point x="307" y="117"/>
      <point x="324" y="133"/>
      <point x="358" y="133" type="curve" smooth="yes"/>
      <point x="393" y="133"/>
      <point x="412" y="117"/>
    </contour>
    <contour>
      <point x="268" y="207" type="curve" smooth="yes"/>
      <point x="268" y="172"/>
      <point x="250" y="154"/>
      <point x="215" y="154" type="curve" smooth="yes" name=".hr03"/>
      <point x="180" y="154"/>
      <point x="164" y="172"/>
      <point x="164" y="207" type="curve" smooth="yes"/>
      <point x="164" y="242"/>
      <point x="180" y="258"/>
      <point x="215" y="258" type="curve" smooth="yes"/>
      <point x="250" y="258"/>
      <point x="268" y="242"/>
    </contour>
    <contour>
      <point x="969" y="1276" type="curve" smooth="yes"/>
      <point x="969" y="1315"/>
      <point x="936" y="1348"/>
      <point x="897" y="1348" type="curve" smooth="yes"/>
      <point x="858" y="1348"/>
      <point x="825" y="1315"/>
      <point x="825" y="1276" type="curve" smooth="yes"/>
      <point x="825" y="1237"/>
      <point x="858" y="1204"/>
      <point x="897" y="1204" type="curve" smooth="yes"/>
      <point x="936" y="1204"/>
      <point x="969" y="1237"/>
    </contour>
  </outline>
</glyph>
<glyph name="L" format="2">
  <advance width="1126"/>
  <unicode hex="004C"/>
  <outline>
    <contour>
      <point x="227" y="1276" type="curve" smooth="yes"/>
      <point x="227" y="1225"/>
      <point x="186" y="1184"/>
      <point x="135" y="1184" type="curve" smooth="yes"/>
      <point x="84" y="1184"/>
      <point x="43" y="1225"/>
      <point x="43" y="1276" type="curve" smooth="yes"/>
      <point x="43" y="1327"/>
      <point x="84" y="1368"/>
      <point x="135" y="1368" type="curve" smooth="yes"/>
      <point x="186" y="1368"/>
      <point x="227" y="1327"/>
    </contour>
    <contour>
      <point x="207" y="1077" type="curve" smooth="yes"/>
      <point x="207" y="1042"/>
      <point x="188" y="1024"/>
      <point x="154" y="1024" type="curve" smooth="yes"/>
      <point x="119" y="1024"/>
      <point x="102" y="1042"/>
      <point x="102" y="1077" type="curve" smooth="yes"/>
      <point x="102" y="1112"/>
      <point x="119" y="1128"/>
      <point x="154" y="1128" type="curve" smooth="yes"/>
      <point x="188" y="1128"/>
      <point x="207" y="1112"/>
    </contour>
    <contour>
      <point x="207" y="872" type="curve" smooth="yes"/>
      <point x="207" y="838"/>
      <point x="188" y="819"/>
      <point x="154" y="819" type="curve" smooth="yes"/>
      <point x="119" y="819"/>
      <point x="102" y="838"/>
      <point x="102" y="872" type="curve" smooth="yes"/>
      <point x="102" y="907"/>
      <point x="119" y="924"/>
      <point x="154" y="924" type="curve" smooth="yes"/>
      <point x="188" y="924"/>
      <point x="207" y="907"/>
    </contour>
    <contour>
      <point x="997" y="53" type="curve" smooth="yes"/>
      <point x="997" y="18"/>
      <point x="979" y="0"/>
      <point x="944" y="0" type="curve" smooth="yes"/>
      <point x="909" y="0"/>
      <point x="893" y="18"/>
      <point x="893" y="53" type="curve" smooth="yes"/>
      <point x="893" y="88"/>
      <point x="909" y="104"/>
      <point x="944" y="104" type="curve" smooth="yes"/>
      <point x="979" y="104"/>
      <point x="997" y="88"/>
    </contour>
    <contour>
      <point x="207" y="668" type="curve" smooth="yes"/>
      <point x="207" y="633"/>
      <point x="188" y="614"/>
      <point x="154" y="614" type="curve" smooth="yes"/>
      <point x="119" y="614"/>
      <point x="102" y="633"/>
      <point x="102" y="668" type="curve" smooth="yes"/>
      <point x="102" y="702"/>
      <point x="119" y="719"/>
      <point x="154" y="719" type="curve" smooth="yes"/>
      <point x="188" y="719"/>
      <point x="207" y="702"/>
    </contour>
    <contour>
      <point x="793" y="53" type="curve" smooth="yes"/>
      <point x="793" y="18"/>
      <point x="774" y="0"/>
      <point x="739" y="0" type="curve" smooth="yes"/>
      <point x="705" y="0"/>
      <point x="688" y="18"/>
      <point x="688" y="53" type="curve" smooth="yes"/>
      <point x="688" y="88"/>
      <point x="705" y="104"/>
      <point x="739" y="104" type="curve" smooth="yes"/>
      <point x="774" y="104"/>
      <point x="793" y="88"/>
    </contour>
    <contour>
      <point x="207" y="463" type="curve" smooth="yes"/>
      <point x="207" y="428"/>
      <point x="188" y="410"/>
      <point x="154" y="410" type="curve" smooth="yes"/>
      <point x="119" y="410"/>
      <point x="102" y="428"/>
      <point x="102" y="463" type="curve" smooth="yes"/>
      <point x="102" y="498"/>
      <point x="119" y="514"/>
      <point x="154" y="514" type="curve" smooth="yes"/>
      <point x="188" y="514"/>
      <point x="207" y="498"/>
    </contour>
    <contour>
      <point x="588" y="53" type="curve" smooth="yes"/>
      <point x="588" y="18"/>
      <point x="569" y="0"/>
      <point x="535" y="0" type="curve" smooth="yes"/>
      <point x="500" y="0"/>
      <point x="483" y="18"/>
      <point x="483" y="53" type="curve" smooth="yes"/>
      <point x="483" y="88"/>
      <point x="500" y="104"/>
      <point x="535" y="104" type="curve" smooth="yes"/>
      <point x="569" y="104"/>
      <point x="588" y="88"/>
    </contour>
    <contour>
      <point x="207" y="258" type="curve" smooth="yes"/>
      <point x="207" y="223"/>
      <point x="188" y="205"/>
      <point x="154" y="205" type="curve" smooth="yes"/>
      <point x="119" y="205"/>
      <point x="102" y="223"/>
      <point x="102" y="258" type="curve" smooth="yes"/>
      <point x="102" y="293"/>
      <point x="119" y="309"/>
      <point x="154" y="309" type="curve" smooth="yes"/>
      <point x="188" y="309"/>
      <point x="207" y="293"/>
    </contour>
    <contour>
      <point x="397" y="53" type="curve" smooth="yes"/>
      <point x="397" y="18"/>
      <point x="379" y="0"/>
      <point x="344" y="0" type="curve" smooth="yes"/>
      <point x="309" y="0"/>
      <point x="293" y="18"/>
      <point x="293" y="53" type="curve" smooth="yes"/>
      <point x="293" y="88"/>
      <point x="309" y="104"/>
      <point x="344" y="104" type="curve" smooth="yes"/>
      <point x="379" y="104"/>
      <point x="397" y="88"/>
    </contour>
    <contour>
      <point x="207" y="53" type="curve" smooth="yes"/>
      <point x="207" y="18"/>
      <point x="188" y="0"/>
      <point x="154" y="0" type="curve" smooth="yes"/>
      <point x="119" y="0"/>
      <point x="102" y="18"/>
      <point x="102" y="53" type="curve" smooth="yes"/>
      <point x="102" y="88"/>
      <point x="119" y="104"/>
      <point x="154" y="104" type="curve" smooth="yes"/>
      <point x="188" y="104"/>
      <point x="207" y="88"/>
    </contour>
    <contour>
      <point x="207" y="1276" type="curve" smooth="yes"/>
      <point x="207" y="1315"/>
      <point x="174" y="1348"/>
      <point x="135" y="1348" type="curve" smooth="yes"/>
      <point x="96" y="1348"/>
      <point x="63" y="1315"/>
      <point x="63" y="1276" type="curve" smooth="yes"/>
      <point x="63" y="1237"/>
      <point x="96" y="1204"/>
      <point x="135" y="1204" type="curve" smooth="yes"/>
      <point x="174" y="1204"/>
      <point x="207" y="1237"/>
    </contour>
  </outline>
</glyph>
<glyph name="M" format="2">
  <advance width="1536"/>
  <unicode hex="004D"/>
  <outline>
    <contour>
      <point x="1446" y="1282" type="curve" smooth="yes"/>
      <point x="1446" y="1247"/>
      <point x="1427" y="1229"/>
      <point x="1393" y="1229" type="curve" smooth="yes"/>
      <point x="1358" y="1229"/>
      <point x="1341" y="1247"/>
      <point x="1341" y="1282" type="curve" smooth="yes"/>
      <point x="1341" y="1317"/>
      <point x="1358" y="1333"/>
      <point x="1393" y="1333" type="curve" smooth="yes"/>
      <point x="1427" y="1333"/>
      <point x="1446" y="1317"/>
    </contour>
    <contour>
      <point x="1446" y="1077" type="curve" smooth="yes"/>
      <point x="1446" y="1042"/>
      <point x="1427" y="1024"/>
      <point x="1393" y="1024" type="curve" smooth="yes"/>
      <point x="1358" y="1024"/>
      <point x="1341" y="1042"/>
      <point x="1341" y="1077" type="curve" smooth="yes"/>
      <point x="1341" y="1112"/>
      <point x="1358" y="1128"/>
      <point x="1393" y="1128" type="curve" smooth="yes"/>
      <point x="1427" y="1128"/>
      <point x="1446" y="1112"/>
    </contour>
    <contour>
      <point x="1446" y="872" type="curve" smooth="yes"/>
      <point x="1446" y="838"/>
      <point x="1427" y="819"/>
      <point x="1393" y="819" type="curve" smooth="yes"/>
      <point x="1358" y="819"/>
      <point x="1341" y="838"/>
      <point x="1341" y="872" type="curve" smooth="yes"/>
      <point x="1341" y="907"/>
      <point x="1358" y="924"/>
      <point x="1393" y="924" type="curve" smooth="yes"/>
      <point x="1427" y="924"/>
      <point x="1446" y="907"/>
    </contour>
    <contour>
      <point x="1303" y="969" type="curve" smooth="yes"/>
      <point x="1303" y="934"/>
      <point x="1284" y="915"/>
      <point x="1249" y="915" type="curve" smooth="yes"/>
      <point x="1214" y="915"/>
      <point x="1198" y="934" name=".hr01"/>
      <point x="1198" y="969" type="curve" smooth="yes"/>
      <point x="1198" y="1004"/>
      <point x="1214" y="1020"/>
      <point x="1249" y="1020" type="curve" smooth="yes"/>
      <point x="1284" y="1020"/>
      <point x="1303" y="1004"/>
    </contour>
    <contour>
      <point x="1446" y="668" type="curve" smooth="yes"/>
      <point x="1446" y="633"/>
      <point x="1427" y="614"/>
      <point x="1393" y="614" type="curve" smooth="yes"/>
      <point x="1358" y="614"/>
      <point x="1341" y="633"/>
      <point x="1341" y="668" type="curve" smooth="yes"/>
      <point x="1341" y="702"/>
      <point x="1358" y="719"/>
      <point x="1393" y="719" type="curve" smooth="yes"/>
      <point x="1427" y="719"/>
      <point x="1446" y="702"/>
    </contour>
    <contour>
      <point x="1208" y="776" type="curve" smooth="yes"/>
      <point x="1208" y="741"/>
      <point x="1190" y="723"/>
      <point x="1155" y="723" type="curve" smooth="yes"/>
      <point x="1120" y="723"/>
      <point x="1104" y="741" name=".hr02"/>
      <point x="1104" y="776" type="curve" smooth="yes"/>
      <point x="1104" y="811"/>
      <point x="1120" y="827"/>
      <point x="1155" y="827" type="curve" smooth="yes"/>
      <point x="1190" y="827"/>
      <point x="1208" y="811"/>
    </contour>
    <contour>
      <point x="1446" y="463" type="curve" smooth="yes"/>
      <point x="1446" y="428"/>
      <point x="1427" y="410"/>
      <point x="1393" y="410" type="curve" smooth="yes"/>
      <point x="1358" y="410"/>
      <point x="1341" y="428"/>
      <point x="1341" y="463" type="curve" smooth="yes"/>
      <point x="1341" y="498"/>
      <point x="1358" y="514"/>
      <point x="1393" y="514" type="curve" smooth="yes"/>
      <point x="1427" y="514"/>
      <point x="1446" y="498"/>
    </contour>
    <contour>
      <point x="1112" y="592" type="curve" smooth="yes"/>
      <point x="1112" y="557"/>
      <point x="1094" y="539"/>
      <point x="1059" y="539" type="curve" smooth="yes"/>
      <point x="1024" y="539"/>
      <point x="1008" y="557"/>
      <point x="1008" y="592" type="curve" smooth="yes"/>
      <point x="1008" y="627" name=".hr03"/>
      <point x="1024" y="643"/>
      <point x="1059" y="643" type="curve" smooth="yes"/>
      <point x="1094" y="643"/>
      <point x="1112" y="627"/>
    </contour>
    <contour>
      <point x="1446" y="258" type="curve" smooth="yes"/>
      <point x="1446" y="223"/>
      <point x="1427" y="205"/>
      <point x="1393" y="205" type="curve" smooth="yes"/>
      <point x="1358" y="205"/>
      <point x="1341" y="223"/>
      <point x="1341" y="258" type="curve" smooth="yes"/>
      <point x="1341" y="293"/>
      <point x="1358" y="309"/>
      <point x="1393" y="309" type="curve" smooth="yes"/>
      <point x="1427" y="309"/>
      <point x="1446" y="293"/>
    </contour>
    <contour>
      <point x="264" y="1276" type="curve" smooth="yes"/>
      <point x="264" y="1225"/>
      <point x="223" y="1184"/>
      <point x="172" y="1184" type="curve" smooth="yes"/>
      <point x="121" y="1184"/>
      <point x="80" y="1225"/>
      <point x="80" y="1276" type="curve" smooth="yes"/>
      <point x="80" y="1327"/>
      <point x="121" y="1368"/>
      <point x="172" y="1368" type="curve" smooth="yes"/>
      <point x="223" y="1368"/>
      <point x="264" y="1327"/>
    </contour>
    <contour>
      <point x="1446" y="53" type="curve" smooth="yes"/>
      <point x="1446" y="18"/>
      <point x="1427" y="0"/>
      <point x="1393" y="0" type="curve" smooth="yes"/>
      <point x="1358" y="0"/>
      <point x="1341" y="18"/>
      <point x="1341" y="53" type="curve" smooth="yes"/>
      <point x="1341" y="88"/>
      <point x="1358" y="104"/>
      <point x="1393" y="104" type="curve" smooth="yes"/>
      <point x="1427" y="104"/>
      <point x="1446" y="88"/>
    </contour>
    <contour>
      <point x="1016" y="410" type="curve" smooth="yes"/>
      <point x="1016" y="375"/>
      <point x="997" y="356"/>
      <point x="963" y="356" type="curve" smooth="yes"/>
      <point x="928" y="356"/>
      <point x="911" y="375"/>
      <point x="911" y="410" type="curve" smooth="yes"/>
      <point x="911" y="444"/>
      <point x="928" y="461"/>
      <point x="963" y="461" type="curve" smooth="yes"/>
      <point x="997" y="461"/>
      <point x="1016" y="444"/>
    </contour>
    <contour>
      <point x="385" y="907" type="curve" smooth="yes"/>
      <point x="385" y="872" name=".hr04"/>
      <point x="367" y="854"/>
      <point x="332" y="854" type="curve" smooth="yes"/>
      <point x="297" y="854"/>
      <point x="281" y="872" name=".hr05"/>
      <point x="281" y="907" type="curve" smooth="yes"/>
      <point x="281" y="942"/>
      <point x="297" y="958"/>
      <point x="332" y="958" type="curve" smooth="yes"/>
      <point x="367" y="958"/>
      <point x="385" y="942"/>
    </contour>
    <contour>
      <point x="207" y="1077" type="curve" smooth="yes"/>
      <point x="207" y="1042"/>
      <point x="188" y="1024"/>
      <point x="154" y="1024" type="curve" smooth="yes"/>
      <point x="119" y="1024"/>
      <point x="102" y="1042"/>
      <point x="102" y="1077" type="curve" smooth="yes"/>
      <point x="102" y="1112"/>
      <point x="119" y="1128"/>
      <point x="154" y="1128" type="curve" smooth="yes"/>
      <point x="188" y="1128"/>
      <point x="207" y="1112"/>
    </contour>
    <contour>
      <point x="461" y="750" type="curve" smooth="yes"/>
      <point x="461" y="715"/>
      <point x="442" y="696"/>
      <point x="408" y="696" type="curve" smooth="yes"/>
      <point x="373" y="696"/>
      <point x="356" y="715"/>
      <point x="356" y="750" type="curve" smooth="yes"/>
      <point x="356" y="784"/>
      <point x="373" y="801"/>
      <point x="408" y="801" type="curve" smooth="yes"/>
      <point x="442" y="801"/>
      <point x="461" y="784"/>
    </contour>
    <contour>
      <point x="928" y="231" type="curve" smooth="yes"/>
      <point x="928" y="197"/>
      <point x="909" y="178"/>
      <point x="874" y="178" type="curve" smooth="yes"/>
      <point x="840" y="178"/>
      <point x="823" y="197"/>
      <point x="823" y="231" type="curve" smooth="yes"/>
      <point x="823" y="266" name=".hr06"/>
      <point x="840" y="283"/>
      <point x="874" y="283" type="curve" smooth="yes"/>
      <point x="909" y="283"/>
      <point x="928" y="266"/>
    </contour>
    <contour>
      <point x="545" y="580" type="curve" smooth="yes"/>
      <point x="545" y="545"/>
      <point x="526" y="526"/>
      <point x="492" y="526" type="curve" smooth="yes"/>
      <point x="457" y="526"/>
      <point x="440" y="545"/>
      <point x="440" y="580" type="curve" smooth="yes"/>
      <point x="440" y="614"/>
      <point x="457" y="631"/>
      <point x="492" y="631" type="curve" smooth="yes"/>
      <point x="526" y="631"/>
      <point x="545" y="614"/>
    </contour>
    <contour>
      <point x="207" y="872" type="curve" smooth="yes"/>
      <point x="207" y="838"/>
      <point x="188" y="819"/>
      <point x="154" y="819" type="curve" smooth="yes"/>
      <point x="119" y="819"/>
      <point x="102" y="838"/>
      <point x="102" y="872" type="curve" smooth="yes"/>
      <point x="102" y="907"/>
      <point x="119" y="924"/>
      <point x="154" y="924" type="curve" smooth="yes" name=".hr07"/>
      <point x="188" y="924"/>
      <point x="207" y="907"/>
    </contour>
    <contour>
      <point x="629" y="406" type="curve" smooth="yes"/>
      <point x="629" y="371"/>
      <point x="610" y="352"/>
      <point x="575" y="352" type="curve" smooth="yes"/>
      <point x="541" y="352"/>
      <point x="524" y="371"/>
      <point x="524" y="406" type="curve" smooth="yes"/>
      <point x="524" y="440"/>
      <point x="541" y="457"/>
      <point x="575" y="457" type="curve" smooth="yes"/>
      <point x="610" y="457"/>
      <point x="629" y="440"/>
    </contour>
    <contour>
      <point x="721" y="221" type="curve" smooth="yes"/>
      <point x="721" y="186"/>
      <point x="702" y="168"/>
      <point x="668" y="168" type="curve" smooth="yes"/>
      <point x="633" y="168"/>
      <point x="616" y="186"/>
      <point x="616" y="221" type="curve" smooth="yes"/>
      <point x="616" y="256"/>
      <point x="633" y="272"/>
      <point x="668" y="272" type="curve" smooth="yes"/>
      <point x="702" y="272"/>
      <point x="721" y="256" name=".hr08"/>
    </contour>
    <contour>
      <point x="823" y="53" type="curve" smooth="yes"/>
      <point x="823" y="18"/>
      <point x="805" y="0"/>
      <point x="770" y="0" type="curve" smooth="yes"/>
      <point x="735" y="0"/>
      <point x="719" y="18"/>
      <point x="719" y="53" type="curve" smooth="yes"/>
      <point x="719" y="88"/>
      <point x="735" y="104"/>
      <point x="770" y="104" type="curve" smooth="yes"/>
      <point x="805" y="104"/>
      <point x="823" y="88"/>
    </contour>
    <contour>
      <point x="207" y="668" type="curve" smooth="yes" name=".hr09"/>
      <point x="207" y="633"/>
      <point x="188" y="614"/>
      <point x="154" y="614" type="curve" smooth="yes"/>
      <point x="119" y="614"/>
      <point x="102" y="633"/>
      <point x="102" y="668" type="curve" smooth="yes"/>
      <point x="102" y="702"/>
      <point x="119" y="719" name=".hr10"/>
      <point x="154" y="719" type="curve" smooth="yes"/>
      <point x="188" y="719"/>
      <point x="207" y="702"/>
    </contour>
    <contour>
      <point x="207" y="463" type="curve" smooth="yes"/>
      <point x="207" y="428"/>
      <point x="188" y="410"/>
      <point x="154" y="410" type="curve" smooth="yes"/>
      <point x="119" y="410"/>
      <point x="102" y="428"/>
      <point x="102" y="463" type="curve" smooth="yes"/>
      <point x="102" y="498"/>
      <point x="119" y="514"/>
      <point x="154" y="514" type="curve" smooth="yes"/>
      <point x="188" y="514"/>
      <point x="207" y="498"/>
    </contour>
    <contour>
      <point x="207" y="258" type="curve" smooth="yes"/>
      <point x="207" y="223"/>
      <point x="188" y="205"/>
      <point x="154" y="205" type="curve" smooth="yes"/>
      <point x="119" y="205"/>
      <point x="102" y="223"/>
      <point x="102" y="258" type="curve" smooth="yes"/>
      <point x="102" y="293"/>
      <point x="119" y="309"/>
      <point x="154" y="309" type="curve" smooth="yes"/>
      <point x="188" y="309"/>
      <point x="207" y="293"/>
    </contour>
    <contour>
      <point x="207" y="53" type="curve" smooth="yes"/>
      <point x="207" y="18"/>
      <point x="188" y="0"/>
      <point x="154" y="0" type="curve" smooth="yes"/>
      <point x="119" y="0"/>
      <point x="102" y="18"/>
      <point x="102" y="53" type="curve" smooth="yes"/>
      <point x="102" y="88"/>
      <point x="119" y="104"/>
      <point x="154" y="104" type="curve" smooth="yes"/>
      <point x="188" y="104"/>
      <point x="207" y="88"/>
    </contour>
    <contour>
      <point x="244" y="1276" type="curve" smooth="yes"/>
      <point x="244" y="1315"/>
      <point x="211" y="1348"/>
      <point x="172" y="1348" type="curve" smooth="yes"/>
      <point x="133" y="1348"/>
      <point x="100" y="1315"/>
      <point x="100" y="1276" type="curve" smooth="yes"/>
      <point x="100" y="1237"/>
      <point x="133" y="1204"/>
      <point x="172" y="1204" type="curve" smooth="yes"/>
      <point x="211" y="1204"/>
      <point x="244" y="1237"/>
    </contour>
  </outline>
</glyph>
<glyph name="O" format="2">
  <advance width="1536"/>
  <unicode hex="004F"/>
  <outline>
    <contour>
      <point x="1292" y="1130" type="curve" smooth="yes"/>
      <point x="1292" y="1081"/>
      <point x="1251" y="1038"/>
      <point x="1200" y="1038" type="curve" smooth="yes"/>
      <point x="1151" y="1038"/>
      <point x="1108" y="1081"/>
      <point x="1108" y="1130" type="curve" smooth="yes"/>
      <point x="1108" y="1182"/>
      <point x="1151" y="1223"/>
      <point x="1200" y="1223" type="curve" smooth="yes"/>
      <point x="1251" y="1223"/>
      <point x="1292" y="1182"/>
    </contour>
    <contour>
      <point x="1384" y="967" type="curve" smooth="yes"/>
      <point x="1384" y="932"/>
      <point x="1366" y="913"/>
      <point x="1331" y="913" type="curve" smooth="yes"/>
      <point x="1296" y="913"/>
      <point x="1280" y="932"/>
      <point x="1280" y="967" type="curve" smooth="yes"/>
      <point x="1280" y="1001"/>
      <point x="1296" y="1018"/>
      <point x="1331" y="1018" type="curve" smooth="yes"/>
      <point x="1366" y="1018"/>
      <point x="1384" y="1001"/>
    </contour>
    <contour>
      <point x="1067" y="1237" type="curve" smooth="yes"/>
      <point x="1067" y="1202"/>
      <point x="1049" y="1186"/>
      <point x="1014" y="1186" type="curve" smooth="yes"/>
      <point x="979" y="1186" name=".hr01"/>
      <point x="963" y="1202"/>
      <point x="963" y="1237" type="curve" smooth="yes"/>
      <point x="963" y="1272" name=".hr02"/>
      <point x="979" y="1290"/>
      <point x="1014" y="1290" type="curve" smooth="yes"/>
      <point x="1049" y="1290" name=".hr03"/>
      <point x="1067" y="1272"/>
    </contour>
    <contour>
      <point x="1448" y="766" type="curve" smooth="yes"/>
      <point x="1448" y="731"/>
      <point x="1430" y="713"/>
      <point x="1395" y="713" type="curve" smooth="yes"/>
      <point x="1360" y="713"/>
      <point x="1343" y="731"/>
      <point x="1343" y="766" type="curve" smooth="yes"/>
      <point x="1343" y="801"/>
      <point x="1360" y="817"/>
      <point x="1395" y="817" type="curve" smooth="yes"/>
      <point x="1430" y="817"/>
      <point x="1448" y="801"/>
    </contour>
    <contour>
      <point x="821" y="1280" type="curve" smooth="yes"/>
      <point x="821" y="1245"/>
      <point x="803" y="1227"/>
      <point x="768" y="1227" type="curve" smooth="yes"/>
      <point x="733" y="1227"/>
      <point x="717" y="1245"/>
      <point x="717" y="1280" type="curve" smooth="yes" name=".hr04"/>
      <point x="717" y="1315"/>
      <point x="733" y="1331"/>
      <point x="768" y="1331" type="curve" smooth="yes" name=".hr05"/>
      <point x="803" y="1331"/>
      <point x="821" y="1315"/>
    </contour>
    <contour>
      <point x="1446" y="586" type="curve" smooth="yes" name=".hr06"/>
      <point x="1446" y="551"/>
      <point x="1427" y="532"/>
      <point x="1393" y="532" type="curve" smooth="yes" name=".hr07"/>
      <point x="1358" y="532"/>
      <point x="1341" y="551"/>
      <point x="1341" y="586" type="curve" smooth="yes"/>
      <point x="1341" y="621"/>
      <point x="1358" y="637"/>
      <point x="1393" y="637" type="curve" smooth="yes"/>
      <point x="1427" y="637"/>
      <point x="1446" y="621"/>
    </contour>
    <contour>
      <point x="606" y="1241" type="curve" smooth="yes"/>
      <point x="606" y="1206"/>
      <point x="590" y="1190"/>
      <point x="555" y="1190" type="curve" smooth="yes"/>
      <point x="520" y="1190"/>
      <point x="502" y="1206"/>
      <point x="502" y="1241" type="curve" smooth="yes"/>
      <point x="502" y="1276"/>
      <point x="520" y="1294"/>
      <point x="555" y="1294" type="curve" smooth="yes"/>
      <point x="590" y="1294"/>
      <point x="606" y="1276"/>
    </contour>
    <contour>
      <point x="1382" y="393" type="curve" smooth="yes"/>
      <point x="1382" y="358"/>
      <point x="1364" y="340"/>
      <point x="1329" y="340" type="curve" smooth="yes"/>
      <point x="1294" y="340"/>
      <point x="1278" y="358"/>
      <point x="1278" y="393" type="curve" smooth="yes"/>
      <point x="1278" y="428" name=".hr08"/>
      <point x="1294" y="444"/>
      <point x="1329" y="444" type="curve" smooth="yes"/>
      <point x="1364" y="444"/>
      <point x="1382" y="428"/>
    </contour>
    <contour>
      <point x="416" y="1135" type="curve" smooth="yes"/>
      <point x="416" y="1100"/>
      <point x="397" y="1081"/>
      <point x="362" y="1081" type="curve" smooth="yes"/>
      <point x="328" y="1081"/>
      <point x="311" y="1100"/>
      <point x="311" y="1135" type="curve" smooth="yes"/>
      <point x="311" y="1169"/>
      <point x="328" y="1186"/>
      <point x="362" y="1186" type="curve" smooth="yes"/>
      <point x="397" y="1186"/>
      <point x="416" y="1169"/>
    </contour>
    <contour>
      <point x="1260" y="225" type="curve" smooth="yes"/>
      <point x="1260" y="190"/>
      <point x="1241" y="172"/>
      <point x="1206" y="172" type="curve" smooth="yes"/>
      <point x="1171" y="172"/>
      <point x="1155" y="190"/>
      <point x="1155" y="225" type="curve" smooth="yes"/>
      <point x="1155" y="260"/>
      <point x="1171" y="276"/>
      <point x="1206" y="276" type="curve" smooth="yes"/>
      <point x="1241" y="276"/>
      <point x="1260" y="260"/>
    </contour>
    <contour>
      <point x="283" y="981" type="curve" smooth="yes"/>
      <point x="283" y="946"/>
      <point x="264" y="928"/>
      <point x="229" y="928" type="curve" smooth="yes"/>
      <point x="195" y="928"/>
      <point x="178" y="946"/>
      <point x="178" y="981" type="curve" smooth="yes"/>
      <point x="178" y="1016"/>
      <point x="195" y="1032"/>
      <point x="229" y="1032" type="curve" smooth="yes"/>
      <point x="264" y="1032"/>
      <point x="283" y="1016"/>
    </contour>
    <contour>
      <point x="1063" y="98" type="curve" smooth="yes"/>
      <point x="1063" y="63"/>
      <point x="1044" y="45"/>
      <point x="1010" y="45" type="curve" smooth="yes"/>
      <point x="975" y="45"/>
      <point x="958" y="63"/>
      <point x="958" y="98" type="curve" smooth="yes"/>
      <point x="958" y="133"/>
      <point x="975" y="150"/>
      <point x="1010" y="150" type="curve" smooth="yes"/>
      <point x="1044" y="150"/>
      <point x="1063" y="133"/>
    </contour>
    <contour>
      <point x="201" y="766" type="curve" smooth="yes"/>
      <point x="201" y="731"/>
      <point x="182" y="713"/>
      <point x="147" y="713" type="curve" smooth="yes"/>
      <point x="113" y="713"/>
      <point x="96" y="731"/>
      <point x="96" y="766" type="curve" smooth="yes"/>
      <point x="96" y="801"/>
      <point x="113" y="817"/>
      <point x="147" y="817" type="curve" smooth="yes"/>
      <point x="182" y="817"/>
      <point x="201" y="801"/>
    </contour>
    <contour>
      <point x="838" y="53" type="curve" smooth="yes"/>
      <point x="838" y="18"/>
      <point x="819" y="0"/>
      <point x="784" y="0" type="curve" smooth="yes"/>
      <point x="750" y="0"/>
      <point x="733" y="18"/>
      <point x="733" y="53" type="curve" smooth="yes"/>
      <point x="733" y="88"/>
      <point x="750" y="104"/>
      <point x="784" y="104" type="curve" smooth="yes"/>
      <point x="819" y="104"/>
      <point x="838" y="88"/>
    </contour>
    <contour>
      <point x="197" y="565" type="curve" smooth="yes"/>
      <point x="197" y="530"/>
      <point x="178" y="512"/>
      <point x="143" y="512" type="curve" smooth="yes" name=".hr09"/>
      <point x="109" y="512"/>
      <point x="92" y="530"/>
      <point x="92" y="565" type="curve" smooth="yes"/>
      <point x="92" y="600"/>
      <point x="109" y="616"/>
      <point x="143" y="616" type="curve" smooth="yes"/>
      <point x="178" y="616"/>
      <point x="197" y="600"/>
    </contour>
    <contour>
      <point x="621" y="84" type="curve" smooth="yes"/>
      <point x="621" y="49"/>
      <point x="602" y="31"/>
      <point x="567" y="31" type="curve" smooth="yes"/>
      <point x="532" y="31"/>
      <point x="516" y="49"/>
      <point x="516" y="84" type="curve" smooth="yes"/>
      <point x="516" y="119" name=".hr10"/>
      <point x="532" y="135"/>
      <point x="567" y="135" type="curve" smooth="yes"/>
      <point x="602" y="135"/>
      <point x="621" y="119"/>
    </contour>
    <contour>
      <point x="260" y="354" type="curve" smooth="yes" name=".hr11"/>
      <point x="260" y="319"/>
      <point x="244" y="303"/>
      <point x="209" y="303" type="curve" smooth="yes"/>
      <point x="174" y="303"/>
      <point x="156" y="319"/>
      <point x="156" y="354" type="curve" smooth="yes"/>
      <point x="156" y="389"/>
      <point x="174" y="408"/>
      <point x="209" y="408" type="curve" smooth="yes"/>
      <point x="244" y="408"/>
      <point x="260" y="389"/>
    </contour>
    <contour>
      <point x="401" y="195" type="curve" smooth="yes"/>
      <point x="401" y="160"/>
      <point x="383" y="141"/>
      <point x="348" y="141" type="curve" smooth="yes"/>
      <point x="313" y="141" name=".hr12"/>
      <point x="297" y="160"/>
      <point x="297" y="195" type="curve" smooth="yes"/>
      <point x="297" y="229"/>
      <point x="313" y="246"/>
      <point x="348" y="246" type="curve" smooth="yes"/>
      <point x="383" y="246"/>
      <point x="401" y="229"/>
    </contour>
    <contour>
      <point x="1272" y="1130" type="curve" smooth="yes"/>
      <point x="1272" y="1171"/>
      <point x="1241" y="1202"/>
      <point x="1200" y="1202" type="curve" smooth="yes"/>
      <point x="1161" y="1202"/>
      <point x="1128" y="1171"/>
      <point x="1128" y="1130" type="curve" smooth="yes"/>
      <point x="1128" y="1092"/>
      <point x="1161" y="1059"/>
      <point x="1200" y="1059" type="curve" smooth="yes"/>
      <point x="1241" y="1059"/>
      <point x="1272" y="1092"/>
    </contour>
  </outline>
</glyph>
<glyph name="P" format="2">
  <advance width="1229"/>
  <unicode hex="0050"/>
  <outline>
    <contour>
      <point x="1022" y="1192" type="curve" smooth="yes"/>
      <point x="1022" y="1157"/>
      <point x="1004" y="1139"/>
      <point x="969" y="1139" type="curve" smooth="yes"/>
      <point x="934" y="1139"/>
      <point x="918" y="1157"/>
      <point x="918" y="1192" type="curve" smooth="yes"/>
      <point x="918" y="1227"/>
      <point x="934" y="1243"/>
      <point x="969" y="1243" type="curve" smooth="yes"/>
      <point x="1004" y="1243"/>
      <point x="1022" y="1227"/>
    </contour>
    <contour>
      <point x="813" y="1282" type="curve" smooth="yes"/>
      <point x="813" y="1247"/>
      <point x="795" y="1229"/>
      <point x="760" y="1229" type="curve" smooth="yes" name=".hr01"/>
      <point x="725" y="1229"/>
      <point x="709" y="1247"/>
      <point x="709" y="1282" type="curve" smooth="yes"/>
      <point x="709" y="1317"/>
      <point x="725" y="1333"/>
      <point x="760" y="1333" type="curve" smooth="yes"/>
      <point x="795" y="1333"/>
      <point x="813" y="1317"/>
    </contour>
    <contour>
      <point x="1090" y="987" type="curve" smooth="yes"/>
      <point x="1090" y="952"/>
      <point x="1071" y="934"/>
      <point x="1036" y="934" type="curve" smooth="yes"/>
      <point x="1001" y="934"/>
      <point x="985" y="952"/>
      <point x="985" y="987" type="curve" smooth="yes"/>
      <point x="985" y="1022"/>
      <point x="1001" y="1038"/>
      <point x="1036" y="1038" type="curve" smooth="yes"/>
      <point x="1071" y="1038"/>
      <point x="1090" y="1022"/>
    </contour>
    <contour>
      <point x="608" y="1282" type="curve" smooth="yes"/>
      <point x="608" y="1247"/>
      <point x="590" y="1229"/>
      <point x="555" y="1229" type="curve" smooth="yes"/>
      <point x="520" y="1229"/>
      <point x="504" y="1247"/>
      <point x="504" y="1282" type="curve" smooth="yes"/>
      <point x="504" y="1317"/>
      <point x="520" y="1333"/>
      <point x="555" y="1333" type="curve" smooth="yes"/>
      <point x="590" y="1333"/>
      <point x="608" y="1317"/>
    </contour>
    <contour>
      <point x="987" y="795" type="curve" smooth="yes"/>
      <point x="987" y="760"/>
      <point x="969" y="741"/>
      <point x="934" y="741" type="curve" smooth="yes"/>
      <point x="899" y="741" name=".hr02"/>
      <point x="883" y="760"/>
      <point x="883" y="795" type="curve" smooth="yes"/>
      <point x="883" y="829"/>
      <point x="899" y="846"/>
      <point x="934" y="846" type="curve" smooth="yes"/>
      <point x="969" y="846"/>
      <point x="987" y="829"/>
    </contour>
    <contour>
      <point x="403" y="1282" type="curve" smooth="yes"/>
      <point x="403" y="1247"/>
      <point x="385" y="1229"/>
      <point x="350" y="1229" type="curve" smooth="yes"/>
      <point x="315" y="1229"/>
      <point x="299" y="1247"/>
      <point x="299" y="1282" type="curve" smooth="yes"/>
      <point x="299" y="1317"/>
      <point x="315" y="1333"/>
      <point x="350" y="1333" type="curve" smooth="yes"/>
      <point x="385" y="1333"/>
      <point x="403" y="1317"/>
    </contour>
    <contour>
      <point x="774" y="735" type="curve" smooth="yes"/>
      <point x="774" y="700"/>
      <point x="756" y="682"/>
      <point x="721" y="682" type="curve" smooth="yes"/>
      <point x="686" y="682"/>
      <point x="670" y="700"/>
      <point x="670" y="735" type="curve" smooth="yes"/>
      <point x="670" y="770"/>
      <point x="686" y="786" name=".hr03"/>
      <point x="721" y="786" type="curve" smooth="yes"/>
      <point x="756" y="786"/>
      <point x="774" y="770"/>
    </contour>
    <contour>
      <point x="264" y="1276" type="curve" smooth="yes"/>
      <point x="264" y="1225"/>
      <point x="223" y="1184"/>
      <point x="172" y="1184" type="curve" smooth="yes"/>
      <point x="121" y="1184"/>
      <point x="80" y="1225"/>
      <point x="80" y="1276" type="curve" smooth="yes"/>
      <point x="80" y="1327"/>
      <point x="121" y="1368"/>
      <point x="172" y="1368" type="curve" smooth="yes"/>
      <point x="223" y="1368"/>
      <point x="264" y="1327"/>
    </contour>
    <contour>
      <point x="569" y="735" type="curve" smooth="yes"/>
      <point x="569" y="700"/>
      <point x="551" y="682"/>
      <point x="516" y="682" type="curve" smooth="yes"/>
      <point x="481" y="682"/>
      <point x="465" y="700"/>
      <point x="465" y="735" type="curve" smooth="yes"/>
      <point x="465" y="770"/>
      <point x="481" y="786"/>
      <point x="516" y="786" type="curve" smooth="yes"/>
      <point x="551" y="786"/>
      <point x="569" y="770"/>
    </contour>
    <contour>
      <point x="207" y="1077" type="curve" smooth="yes"/>
      <point x="207" y="1042"/>
      <point x="188" y="1024"/>
      <point x="154" y="1024" type="curve" smooth="yes"/>
      <point x="119" y="1024"/>
      <point x="102" y="1042"/>
      <point x="102" y="1077" type="curve" smooth="yes"/>
      <point x="102" y="1112"/>
      <point x="119" y="1128"/>
      <point x="154" y="1128" type="curve" smooth="yes"/>
      <point x="188" y="1128"/>
      <point x="207" y="1112"/>
    </contour>
    <contour>
      <point x="365" y="735" type="curve" smooth="yes"/>
      <point x="365" y="700"/>
      <point x="346" y="682"/>
      <point x="311" y="682" type="curve" smooth="yes"/>
      <point x="276" y="682"/>
      <point x="260" y="700"/>
      <point x="260" y="735" type="curve" smooth="yes"/>
      <point x="260" y="770"/>
      <point x="276" y="786"/>
      <point x="311" y="786" type="curve" smooth="yes"/>
      <point x="346" y="786"/>
      <point x="365" y="770"/>
    </contour>
    <contour>
      <point x="207" y="872" type="curve" smooth="yes"/>
      <point x="207" y="838"/>
      <point x="188" y="819"/>
      <point x="154" y="819" type="curve" smooth="yes" name=".hr04"/>
      <point x="119" y="819"/>
      <point x="102" y="838"/>
      <point x="102" y="872" type="curve" smooth="yes"/>
      <point x="102" y="907"/>
      <point x="119" y="924"/>
      <point x="154" y="924" type="curve" smooth="yes"/>
      <point x="188" y="924"/>
      <point x="207" y="907"/>
    </contour>
    <contour>
      <point x="207" y="668" type="curve" smooth="yes"/>
      <point x="207" y="633"/>
      <point x="188" y="614"/>
      <point x="154" y="614" type="curve" smooth="yes"/>
      <point x="119" y="614"/>
      <point x="102" y="633"/>
      <point x="102" y="668" type="curve" smooth="yes"/>
      <point x="102" y="702"/>
      <point x="119" y="719"/>
      <point x="154" y="719" type="curve" smooth="yes"/>
      <point x="188" y="719"/>
      <point x="207" y="702"/>
    </contour>
    <contour>
      <point x="207" y="463" type="curve" smooth="yes"/>
      <point x="207" y="428"/>
      <point x="188" y="410" name=".hr05"/>
      <point x="154" y="410" type="curve" smooth="yes"/>
      <point x="119" y="410"/>
      <point x="102" y="428"/>
      <point x="102" y="463" type="curve" smooth="yes"/>
      <point x="102" y="498"/>
      <point x="119" y="514"/>
      <point x="154" y="514" type="curve" smooth="yes"/>
      <point x="188" y="514"/>
      <point x="207" y="498"/>
    </contour>
    <contour>
      <point x="207" y="258" type="curve" smooth="yes"/>
      <point x="207" y="223"/>
      <point x="188" y="205"/>
      <point x="154" y="205" type="curve" smooth="yes"/>
      <point x="119" y="205"/>
      <point x="102" y="223"/>
      <point x="102" y="258" type="curve" smooth="yes"/>
      <point x="102" y="293"/>
      <point x="119" y="309"/>
      <point x="154" y="309" type="curve" smooth="yes"/>
      <point x="188" y="309"/>
      <point x="207" y="293"/>
    </contour>
    <contour>
      <point x="207" y="53" type="curve" smooth="yes"/>
      <point x="207" y="18"/>
      <point x="188" y="0"/>
      <point x="154" y="0" type="curve" smooth="yes"/>
      <point x="119" y="0"/>
      <point x="102" y="18"/>
      <point x="102" y="53" type="curve" smooth="yes"/>
      <point x="102" y="88"/>
      <point x="119" y="104"/>
      <point x="154" y="104" type="curve" smooth="yes"/>
      <point x="188" y="104"/>
      <point x="207" y="88"/>
    </contour>
    <contour>
      <point x="244" y="1276" type="curve" smooth="yes"/>
      <point x="244" y="1315"/>
      <point x="211" y="1348"/>
      <point x="172" y="1348" type="curve" smooth="yes"/>
      <point x="133" y="1348"/>
      <point x="100" y="1315"/>
      <point x="100" y="1276" type="curve" smooth="yes"/>
      <point x="100" y="1237"/>
      <point x="133" y="1204"/>
      <point x="172" y="1204" type="curve" smooth="yes"/>
      <point x="211" y="1204"/>
      <point x="244" y="1237"/>
    </contour>
  </outline>
</glyph>
<glyph name="R" format="2">
  <advance width="1229"/>
  <unicode hex="0052"/>
  <outline>
    <contour>
      <point x="1022" y="1192" type="curve" smooth="yes"/>
      <point x="1022" y="1157"/>
      <point x="1004" y="1139"/>
      <point x="969" y="1139" type="curve" smooth="yes"/>
      <point x="934" y="1139"/>
      <point x="918" y="1157"/>
      <point x="918" y="1192" type="curve" smooth="yes"/>
      <point x="918" y="1227"/>
      <point x="934" y="1243"/>
      <point x="969" y="1243" type="curve" smooth="yes"/>
      <point x="1004" y="1243"/>
      <point x="1022" y="1227"/>
    </contour>
    <contour>
      <point x="813" y="1282" type="curve" smooth="yes"/>
      <point x="813" y="1247"/>
      <point x="795" y="1229"/>
      <point x="760" y="1229" type="curve" smooth="yes" name=".hr01"/>
      <point x="725" y="1229"/>
      <point x="709" y="1247"/>
      <point x="709" y="1282" type="curve" smooth="yes"/>
      <point x="709" y="1317"/>
      <point x="725" y="1333"/>
      <point x="760" y="1333" type="curve" smooth="yes"/>
      <point x="795" y="1333"/>
      <point x="813" y="1317"/>
    </contour>
    <contour>
      <point x="1090" y="987" type="curve" smooth="yes"/>
      <point x="1090" y="952"/>
      <point x="1071" y="934"/>
      <point x="1036" y="934" type="curve" smooth="yes"/>
      <point x="1001" y="934"/>
      <point x="985" y="952"/>
      <point x="985" y="987" type="curve" smooth="yes"/>
      <point x="985" y="1022"/>
      <point x="1001" y="1038"/>
      <point x="1036" y="1038" type="curve" smooth="yes"/>
      <point x="1071" y="1038"/>
      <point x="1090" y="1022"/>
    </contour>
    <contour>
      <point x="608" y="1282" type="curve" smooth="yes"/>
      <point x="608" y="1247"/>
      <point x="590" y="1229"/>
      <point x="555" y="1229" type="curve" smooth="yes"/>
      <point x="520" y="1229"/>
      <point x="504" y="1247"/>
      <point x="504" y="1282" type="curve" smooth="yes"/>
      <point x="504" y="1317"/>
      <point x="520" y="1333"/>
      <point x="555" y="1333" type="curve" smooth="yes"/>
      <point x="590" y="1333"/>
      <point x="608" y="1317"/>
    </contour>
    <contour>
      <point x="987" y="795" type="curve" smooth="yes"/>
      <point x="987" y="760"/>
      <point x="969" y="741"/>
      <point x="934" y="741" type="curve" smooth="yes"/>
      <point x="899" y="741" name=".hr02"/>
      <point x="883" y="760"/>
      <point x="883" y="795" type="curve" smooth="yes"/>
      <point x="883" y="829"/>
      <point x="899" y="846"/>
      <point x="934" y="846" type="curve" smooth="yes"/>
      <point x="969" y="846"/>
      <point x="987" y="829"/>
    </contour>
    <contour>
      <point x="403" y="1282" type="curve" smooth="yes"/>
      <point x="403" y="1247"/>
      <point x="385" y="1229"/>
      <point x="350" y="1229" type="curve" smooth="yes"/>
      <point x="315" y="1229"/>
      <point x="299" y="1247"/>
      <point x="299" y="1282" type="curve" smooth="yes"/>
      <point x="299" y="1317"/>
      <point x="315" y="1333"/>
      <point x="350" y="1333" type="curve" smooth="yes"/>
      <point x="385" y="1333"/>
      <point x="403" y="1317"/>
    </contour>
    <contour>
      <point x="774" y="735" type="curve" smooth="yes"/>
      <point x="774" y="700"/>
      <point x="756" y="682"/>
      <point x="721" y="682" type="curve" smooth="yes"/>
      <point x="686" y="682"/>
      <point x="670" y="700"/>
      <point x="670" y="735" type="curve" smooth="yes"/>
      <point x="670" y="770"/>
      <point x="686" y="786" name=".hr03"/>
      <point x="721" y="786" type="curve" smooth="yes"/>
      <point x="756" y="786"/>
      <point x="774" y="770"/>
    </contour>
    <contour>
      <point x="264" y="1276" type="curve" smooth="yes"/>
      <point x="264" y="1225"/>
      <point x="223" y="1184"/>
      <point x="172" y="1184" type="curve" smooth="yes"/>
      <point x="121" y="1184"/>
      <point x="80" y="1225"/>
      <point x="80" y="1276" type="curve" smooth="yes"/>
      <point x="80" y="1327"/>
      <point x="121" y="1368"/>
      <point x="172" y="1368" type="curve" smooth="yes"/>
      <point x="223" y="1368"/>
      <point x="264" y="1327"/>
    </contour>
    <contour>
      <point x="569" y="735" type="curve" smooth="yes"/>
      <point x="569" y="700"/>
      <point x="551" y="682"/>
      <point x="516" y="682" type="curve" smooth="yes"/>
      <point x="481" y="682"/>
      <point x="465" y="700"/>
      <point x="465" y="735" type="curve" smooth="yes"/>
      <point x="465" y="770"/>
      <point x="481" y="786"/>
      <point x="516" y="786" type="curve" smooth="yes"/>
      <point x="551" y="786"/>
      <point x="569" y="770"/>
    </contour>
    <contour>
      <point x="207" y="1077" type="curve" smooth="yes"/>
      <point x="207" y="1042"/>
      <point x="188" y="1024"/>
      <point x="154" y="1024" type="curve" smooth="yes"/>
      <point x="119" y="1024"/>
      <point x="102" y="1042"/>
      <point x="102" y="1077" type="curve" smooth="yes"/>
      <point x="102" y="1112"/>
      <point x="119" y="1128"/>
      <point x="154" y="1128" type="curve" smooth="yes"/>
      <point x="188" y="1128"/>
      <point x="207" y="1112"/>
    </contour>
    <contour>
      <point x="1165" y="53" type="curve" smooth="yes"/>
      <point x="1165" y="18"/>
      <point x="1147" y="0"/>
      <point x="1112" y="0" type="curve" smooth="yes"/>
      <point x="1077" y="0"/>
      <point x="1061" y="18"/>
      <point x="1061" y="53" type="curve" smooth="yes"/>
      <point x="1061" y="88"/>
      <point x="1077" y="104"/>
      <point x="1112" y="104" type="curve" smooth="yes"/>
      <point x="1147" y="104"/>
      <point x="1165" y="88"/>
    </contour>
    <contour>
      <point x="967" y="197" type="curve" smooth="yes"/>
      <point x="967" y="162"/>
      <point x="948" y="143"/>
      <point x="913" y="143" type="curve" smooth="yes"/>
      <point x="879" y="143"/>
      <point x="862" y="162"/>
      <point x="862" y="197" type="curve" smooth="yes"/>
      <point x="862" y="231"/>
      <point x="879" y="248"/>
      <point x="913" y="248" type="curve" smooth="yes"/>
      <point x="948" y="248"/>
      <point x="967" y="231"/>
    </contour>
    <contour>
      <point x="774" y="332" type="curve" smooth="yes"/>
      <point x="774" y="297"/>
      <point x="756" y="279"/>
      <point x="721" y="279" type="curve" smooth="yes"/>
      <point x="686" y="279"/>
      <point x="670" y="297"/>
      <point x="670" y="332" type="curve" smooth="yes"/>
      <point x="670" y="367"/>
      <point x="686" y="383"/>
      <point x="721" y="383" type="curve" smooth="yes"/>
      <point x="756" y="383"/>
      <point x="774" y="367"/>
    </contour>
    <contour>
      <point x="365" y="735" type="curve" smooth="yes"/>
      <point x="365" y="700"/>
      <point x="346" y="682"/>
      <point x="311" y="682" type="curve" smooth="yes"/>
      <point x="276" y="682"/>
      <point x="260" y="700"/>
      <point x="260" y="735" type="curve" smooth="yes"/>
      <point x="260" y="770"/>
      <point x="276" y="786"/>
      <point x="311" y="786" type="curve" smooth="yes"/>
      <point x="346" y="786"/>
      <point x="365" y="770"/>
    </contour>
    <contour>
      <point x="207" y="872" type="curve" smooth="yes"/>
      <point x="207" y="838"/>
      <point x="188" y="819"/>
      <point x="154" y="819" type="curve" smooth="yes"/>
      <point x="119" y="819"/>
      <point x="102" y="838"/>
      <point x="102" y="872" type="curve" smooth="yes" name=".hr04"/>
      <point x="102" y="907"/>
      <point x="119" y="924"/>
      <point x="154" y="924" type="curve" smooth="yes"/>
      <point x="188" y="924"/>
      <point x="207" y="907"/>
    </contour>
    <contour>
      <point x="610" y="455" type="curve" smooth="yes"/>
      <point x="610" y="420"/>
      <point x="592" y="401"/>
      <point x="557" y="401" type="curve" smooth="yes"/>
      <point x="522" y="401"/>
      <point x="506" y="420"/>
      <point x="506" y="455" type="curve" smooth="yes"/>
      <point x="506" y="489"/>
      <point x="522" y="506"/>
      <point x="557" y="506" type="curve" smooth="yes"/>
      <point x="592" y="506"/>
      <point x="610" y="489"/>
    </contour>
    <contour>
      <point x="438" y="575" type="curve" smooth="yes"/>
      <point x="438" y="541"/>
      <point x="420" y="522"/>
      <point x="385" y="522" type="curve" smooth="yes"/>
      <point x="350" y="522"/>
      <point x="334" y="541"/>
      <point x="334" y="575" type="curve" smooth="yes"/>
      <point x="334" y="610"/>
      <point x="350" y="627"/>
      <point x="385" y="627" type="curve" smooth="yes"/>
      <point x="420" y="627"/>
      <point x="438" y="610"/>
    </contour>
    <contour>
      <point x="207" y="668" type="curve" smooth="yes"/>
      <point x="207" y="633"/>
      <point x="188" y="614"/>
      <point x="154" y="614" type="curve" smooth="yes"/>
      <point x="119" y="614" name=".hr05"/>
      <point x="102" y="633"/>
      <point x="102" y="668" type="curve" smooth="yes"/>
      <point x="102" y="702"/>
      <point x="119" y="719"/>
      <point x="154" y="719" type="curve" smooth="yes"/>
      <point x="188" y="719"/>
      <point x="207" y="702"/>
    </contour>
    <contour>
      <point x="207" y="463" type="curve" smooth="yes"/>
      <point x="207" y="428"/>
      <point x="188" y="410"/>
      <point x="154" y="410" type="curve" smooth="yes"/>
      <point x="119" y="410"/>
      <point x="102" y="428"/>
      <point x="102" y="463" type="curve" smooth="yes"/>
      <point x="102" y="498" name=".hr06"/>
      <point x="119" y="514"/>
      <point x="154" y="514" type="curve" smooth="yes"/>
      <point x="188" y="514"/>
      <point x="207" y="498"/>
    </contour>
    <contour>
      <point x="207" y="258" type="curve" smooth="yes"/>
      <point x="207" y="223"/>
      <point x="188" y="205"/>
      <point x="154" y="205" type="curve" smooth="yes"/>
      <point x="119" y="205"/>
      <point x="102" y="223"/>
      <point x="102" y="258" type="curve" smooth="yes"/>
      <point x="102" y="293"/>
      <point x="119" y="309"/>
      <point x="154" y="309" type="curve" smooth="yes"/>
      <point x="188" y="309"/>
      <point x="207" y="293"/>
    </contour>
    <contour>
      <point x="207" y="53" type="curve" smooth="yes"/>
      <point x="207" y="18"/>
      <point x="188" y="0"/>
      <point x="154" y="0" type="curve" smooth="yes"/>
      <point x="119" y="0"/>
      <point x="102" y="18"/>
      <point x="102" y="53" type="curve" smooth="yes"/>
      <point x="102" y="88"/>
      <point x="119" y="104"/>
      <point x="154" y="104" type="curve" smooth="yes"/>
      <point x="188" y="104"/>
      <point x="207" y="88"/>
    </contour>
    <contour>
      <point x="244" y="1276" type="curve" smooth="yes"/>
      <point x="244" y="1315"/>
      <point x="211" y="1348"/>
      <point x="172" y="1348" type="curve" smooth="yes"/>
      <point x="133" y="1348"/>
      <point x="100" y="1315"/>
      <point x="100" y="1276" type="curve" smooth="yes"/>
      <point x="100" y="1237"/>
      <point x="133" y="1204"/>
      <point x="172" y="1204" type="curve" smooth="yes"/>
      <point x="211" y="1204"/>
      <point x="244" y="1237"/>
    </contour>
  </outline>
</glyph>
<glyph name="S" format="2">
  <advance width="1126"/>
  <unicode hex="0053"/>
  <outline>
    <contour>
      <point x="997" y="1200" type="curve" smooth="yes"/>
      <point x="997" y="1149"/>
      <point x="956" y="1108"/>
      <point x="905" y="1108" type="curve" smooth="yes"/>
      <point x="854" y="1108"/>
      <point x="813" y="1149"/>
      <point x="813" y="1200" type="curve" smooth="yes"/>
      <point x="813" y="1251"/>
      <point x="854" y="1292"/>
      <point x="905" y="1292" type="curve" smooth="yes"/>
      <point x="956" y="1292"/>
      <point x="997" y="1251"/>
    </contour>
    <contour>
      <point x="768" y="1262" type="curve" smooth="yes"/>
      <point x="768" y="1227"/>
      <point x="750" y="1208"/>
      <point x="715" y="1208" type="curve" smooth="yes" name=".hr01"/>
      <point x="680" y="1208"/>
      <point x="664" y="1227"/>
      <point x="664" y="1262" type="curve" smooth="yes"/>
      <point x="664" y="1296"/>
      <point x="680" y="1313"/>
      <point x="715" y="1313" type="curve" smooth="yes"/>
      <point x="750" y="1313"/>
      <point x="768" y="1296"/>
    </contour>
    <contour>
      <point x="551" y="1266" type="curve" smooth="yes"/>
      <point x="551" y="1231"/>
      <point x="532" y="1212"/>
      <point x="498" y="1212" type="curve" smooth="yes"/>
      <point x="463" y="1212" name=".hr02"/>
      <point x="446" y="1231"/>
      <point x="446" y="1266" type="curve" smooth="yes"/>
      <point x="446" y="1300"/>
      <point x="463" y="1317"/>
      <point x="498" y="1317" type="curve" smooth="yes"/>
      <point x="532" y="1317"/>
      <point x="551" y="1300"/>
    </contour>
    <contour>
      <point x="920" y="590" type="curve" smooth="yes"/>
      <point x="920" y="555"/>
      <point x="901" y="537"/>
      <point x="866" y="537" type="curve" smooth="yes"/>
      <point x="831" y="537"/>
      <point x="815" y="555"/>
      <point x="815" y="590" type="curve" smooth="yes"/>
      <point x="815" y="625"/>
      <point x="831" y="641"/>
      <point x="866" y="641" type="curve" smooth="yes"/>
      <point x="901" y="641"/>
      <point x="920" y="625"/>
    </contour>
    <contour>
      <point x="360" y="1147" type="curve" smooth="yes"/>
      <point x="360" y="1112"/>
      <point x="342" y="1094"/>
      <point x="307" y="1094" type="curve" smooth="yes"/>
      <point x="272" y="1094"/>
      <point x="256" y="1112"/>
      <point x="256" y="1147" type="curve" smooth="yes"/>
      <point x="256" y="1182"/>
      <point x="272" y="1198"/>
      <point x="307" y="1198" type="curve" smooth="yes"/>
      <point x="342" y="1198"/>
      <point x="360" y="1182"/>
    </contour>
    <contour>
      <point x="1016" y="436" type="curve" smooth="yes"/>
      <point x="1016" y="401"/>
      <point x="997" y="383"/>
      <point x="963" y="383" type="curve" smooth="yes"/>
      <point x="928" y="383"/>
      <point x="911" y="401"/>
      <point x="911" y="436" type="curve" smooth="yes"/>
      <point x="911" y="471" name=".hr03"/>
      <point x="928" y="487"/>
      <point x="963" y="487" type="curve" smooth="yes"/>
      <point x="997" y="487" name=".hr04"/>
      <point x="1016" y="471"/>
    </contour>
    <contour>
      <point x="727" y="676" type="curve" smooth="yes"/>
      <point x="727" y="641"/>
      <point x="709" y="623"/>
      <point x="674" y="623" type="curve" smooth="yes" name=".hr05"/>
      <point x="639" y="623"/>
      <point x="623" y="641"/>
      <point x="623" y="676" type="curve" smooth="yes"/>
      <point x="623" y="711"/>
      <point x="639" y="727" name=".hr06"/>
      <point x="674" y="727" type="curve" smooth="yes"/>
      <point x="709" y="727"/>
      <point x="727" y="711" name=".hr07"/>
    </contour>
    <contour>
      <point x="324" y="973" type="curve" smooth="yes"/>
      <point x="324" y="938"/>
      <point x="305" y="920" name=".hr08"/>
      <point x="270" y="920" type="curve" smooth="yes"/>
      <point x="236" y="920"/>
      <point x="219" y="938"/>
      <point x="219" y="973" type="curve" smooth="yes"/>
      <point x="219" y="1008"/>
      <point x="236" y="1024"/>
      <point x="270" y="1024" type="curve" smooth="yes"/>
      <point x="305" y="1024"/>
      <point x="324" y="1008"/>
    </contour>
    <contour>
      <point x="543" y="748" type="curve" smooth="yes" name=".hr09"/>
      <point x="543" y="713"/>
      <point x="524" y="694"/>
      <point x="489" y="694" type="curve" smooth="yes"/>
      <point x="455" y="694"/>
      <point x="438" y="713" name=".hr10"/>
      <point x="438" y="748" type="curve" smooth="yes"/>
      <point x="438" y="782"/>
      <point x="455" y="799"/>
      <point x="489" y="799" type="curve" smooth="yes"/>
      <point x="524" y="799"/>
      <point x="543" y="782"/>
    </contour>
    <contour>
      <point x="997" y="242" type="curve" smooth="yes"/>
      <point x="997" y="207"/>
      <point x="979" y="188"/>
      <point x="944" y="188" type="curve" smooth="yes"/>
      <point x="909" y="188"/>
      <point x="893" y="207"/>
      <point x="893" y="242" type="curve" smooth="yes"/>
      <point x="893" y="276"/>
      <point x="909" y="293"/>
      <point x="944" y="293" type="curve" smooth="yes"/>
      <point x="979" y="293"/>
      <point x="997" y="276"/>
    </contour>
    <contour>
      <point x="395" y="829" type="curve" smooth="yes"/>
      <point x="395" y="795"/>
      <point x="377" y="776"/>
      <point x="342" y="776" type="curve" smooth="yes"/>
      <point x="307" y="776"/>
      <point x="291" y="795"/>
      <point x="291" y="829" type="curve" smooth="yes"/>
      <point x="291" y="864"/>
      <point x="307" y="881"/>
      <point x="342" y="881" type="curve" smooth="yes"/>
      <point x="377" y="881" name=".hr11"/>
      <point x="395" y="864"/>
    </contour>
    <contour>
      <point x="868" y="111" type="curve" smooth="yes"/>
      <point x="868" y="76"/>
      <point x="850" y="57"/>
      <point x="815" y="57" type="curve" smooth="yes"/>
      <point x="780" y="57"/>
      <point x="764" y="76"/>
      <point x="764" y="111" type="curve" smooth="yes"/>
      <point x="764" y="145"/>
      <point x="780" y="162"/>
      <point x="815" y="162" type="curve" smooth="yes"/>
      <point x="850" y="162"/>
      <point x="868" y="145"/>
    </contour>
    <contour>
      <point x="647" y="53" type="curve" smooth="yes"/>
      <point x="647" y="18"/>
      <point x="629" y="0" name=".hr12"/>
      <point x="594" y="0" type="curve" smooth="yes"/>
      <point x="559" y="0" name=".hr13"/>
      <point x="543" y="18"/>
      <point x="543" y="53" type="curve" smooth="yes"/>
      <point x="543" y="88"/>
      <point x="559" y="104" name=".hr14"/>
      <point x="594" y="104" type="curve" smooth="yes"/>
      <point x="629" y="104" name=".hr15"/>
      <point x="647" y="88"/>
    </contour>
    <contour>
      <point x="410" y="104" type="curve" smooth="yes"/>
      <point x="410" y="70"/>
      <point x="391" y="51"/>
      <point x="356" y="51" type="curve" smooth="yes"/>
      <point x="322" y="51"/>
      <point x="305" y="70"/>
      <point x="305" y="104" type="curve" smooth="yes"/>
      <point x="305" y="139"/>
      <point x="322" y="156"/>
      <point x="356" y="156" type="curve" smooth="yes"/>
      <point x="391" y="156"/>
      <point x="410" y="139"/>
    </contour>
    <contour>
      <point x="207" y="219" type="curve" smooth="yes"/>
      <point x="207" y="184"/>
      <point x="188" y="166"/>
      <point x="154" y="166" type="curve" smooth="yes" name=".hr16"/>
      <point x="119" y="166"/>
      <point x="102" y="184"/>
      <point x="102" y="219" type="curve" smooth="yes"/>
      <point x="102" y="254" name=".hr17"/>
      <point x="119" y="270"/>
      <point x="154" y="270" type="curve" smooth="yes"/>
      <point x="188" y="270"/>
      <point x="207" y="254"/>
    </contour>
    <contour>
      <point x="977" y="1200" type="curve" smooth="yes"/>
      <point x="977" y="1239"/>
      <point x="944" y="1272"/>
      <point x="905" y="1272" type="curve" smooth="yes"/>
      <point x="866" y="1272"/>
      <point x="834" y="1239"/>
      <point x="834" y="1200" type="curve" smooth="yes"/>
      <point x="834" y="1161"/>
      <point x="866" y="1128"/>
      <point x="905" y="1128" type="curve" smooth="yes"/>
      <point x="944" y="1128"/>
      <point x="977" y="1161"/>
    </contour>
  </outline>
</glyph>
<glyph name="T" format="2">
  <advance width="1229"/>
  <unicode hex="0054"/>
  <outline>
    <contour>
      <point x="1206" y="1284" type="curve" smooth="yes"/>
      <point x="1206" y="1249"/>
      <point x="1188" y="1231"/>
      <point x="1153" y="1231" type="curve" smooth="yes"/>
      <point x="1118" y="1231"/>
      <point x="1102" y="1249"/>
      <point x="1102" y="1284" type="curve" smooth="yes"/>
      <point x="1102" y="1319"/>
      <point x="1118" y="1335"/>
      <point x="1153" y="1335" type="curve" smooth="yes"/>
      <point x="1188" y="1335"/>
      <point x="1206" y="1319"/>
    </contour>
    <contour>
      <point x="969" y="1284" type="curve" smooth="yes"/>
      <point x="969" y="1249"/>
      <point x="950" y="1231"/>
      <point x="915" y="1231" type="curve" smooth="yes"/>
      <point x="881" y="1231"/>
      <point x="864" y="1249"/>
      <point x="864" y="1284" type="curve" smooth="yes"/>
      <point x="864" y="1319"/>
      <point x="881" y="1335"/>
      <point x="915" y="1335" type="curve" smooth="yes"/>
      <point x="950" y="1335"/>
      <point x="969" y="1319"/>
    </contour>
    <contour>
      <point x="745" y="1276" type="curve" smooth="yes"/>
      <point x="745" y="1225"/>
      <point x="705" y="1184"/>
      <point x="653" y="1184" type="curve" smooth="yes"/>
      <point x="602" y="1184"/>
      <point x="561" y="1225"/>
      <point x="561" y="1276" type="curve" smooth="yes"/>
      <point x="561" y="1327"/>
      <point x="602" y="1368"/>
      <point x="653" y="1368" type="curve" smooth="yes"/>
      <point x="705" y="1368"/>
      <point x="745" y="1327"/>
    </contour>
    <contour>
      <point x="707" y="1077" type="curve" smooth="yes"/>
      <point x="707" y="1042"/>
      <point x="688" y="1024"/>
      <point x="653" y="1024" type="curve" smooth="yes"/>
      <point x="618" y="1024"/>
      <point x="602" y="1042"/>
      <point x="602" y="1077" type="curve" smooth="yes"/>
      <point x="602" y="1112"/>
      <point x="618" y="1128"/>
      <point x="653" y="1128" type="curve" smooth="yes"/>
      <point x="688" y="1128"/>
      <point x="707" y="1112"/>
    </contour>
    <contour>
      <point x="449" y="1284" type="curve" smooth="yes"/>
      <point x="449" y="1249"/>
      <point x="430" y="1231"/>
      <point x="395" y="1231" type="curve" smooth="yes"/>
      <point x="360" y="1231"/>
      <point x="344" y="1249"/>
      <point x="344" y="1284" type="curve" smooth="yes"/>
      <point x="344" y="1319"/>
      <point x="360" y="1335"/>
      <point x="395" y="1335" type="curve" smooth="yes"/>
      <point x="430" y="1335"/>
      <point x="449" y="1319"/>
    </contour>
    <contour>
      <point x="707" y="872" type="curve" smooth="yes"/>
      <point x="707" y="838"/>
      <point x="688" y="819"/>
      <point x="653" y="819" type="curve" smooth="yes"/>
      <point x="618" y="819"/>
      <point x="602" y="838"/>
      <point x="602" y="872" type="curve" smooth="yes"/>
      <point x="602" y="907"/>
      <point x="618" y="924"/>
      <point x="653" y="924" type="curve" smooth="yes"/>
      <point x="688" y="924"/>
      <point x="707" y="907"/>
    </contour>
    <contour>
      <point x="207" y="1284" type="curve" smooth="yes"/>
      <point x="207" y="1249"/>
      <point x="188" y="1231"/>
      <point x="154" y="1231" type="curve" smooth="yes"/>
      <point x="119" y="1231"/>
      <point x="102" y="1249"/>
      <point x="102" y="1284" type="curve" smooth="yes"/>
      <point x="102" y="1319"/>
      <point x="119" y="1335"/>
      <point x="154" y="1335" type="curve" smooth="yes"/>
      <point x="188" y="1335"/>
      <point x="207" y="1319"/>
    </contour>
    <contour>
      <point x="707" y="668" type="curve" smooth="yes"/>
      <point x="707" y="633"/>
      <point x="688" y="614"/>
      <point x="653" y="614" type="curve" smooth="yes"/>
      <point x="618" y="614"/>
      <point x="602" y="633"/>
      <point x="602" y="668" type="curve" smooth="yes"/>
      <point x="602" y="702"/>
      <point x="618" y="719"/>
      <point x="653" y="719" type="curve" smooth="yes"/>
      <point x="688" y="719"/>
      <point x="707" y="702"/>
    </contour>
    <contour>
      <point x="707" y="463" type="curve" smooth="yes"/>
      <point x="707" y="428"/>
      <point x="688" y="410"/>
      <point x="653" y="410" type="curve" smooth="yes"/>
      <point x="618" y="410"/>
      <point x="602" y="428"/>
      <point x="602" y="463" type="curve" smooth="yes"/>
      <point x="602" y="498"/>
      <point x="618" y="514"/>
      <point x="653" y="514" type="curve" smooth="yes"/>
      <point x="688" y="514"/>
      <point x="707" y="498"/>
    </contour>
    <contour>
      <point x="707" y="258" type="curve" smooth="yes"/>
      <point x="707" y="223"/>
      <point x="688" y="205"/>
      <point x="653" y="205" type="curve" smooth="yes"/>
      <point x="618" y="205"/>
      <point x="602" y="223"/>
      <point x="602" y="258" type="curve" smooth="yes"/>
      <point x="602" y="293"/>
      <point x="618" y="309"/>
      <point x="653" y="309" type="curve" smooth="yes"/>
      <point x="688" y="309"/>
      <point x="707" y="293"/>
    </contour>
    <contour>
      <point x="707" y="53" type="curve" smooth="yes"/>
      <point x="707" y="18"/>
      <point x="688" y="0"/>
      <point x="653" y="0" type="curve" smooth="yes"/>
      <point x="618" y="0"/>
      <point x="602" y="18"/>
      <point x="602" y="53" type="curve" smooth="yes"/>
      <point x="602" y="88"/>
      <point x="618" y="104"/>
      <point x="653" y="104" type="curve" smooth="yes"/>
      <point x="688" y="104"/>
      <point x="707" y="88"/>
    </contour>
    <contour>
      <point x="725" y="1276" type="curve" smooth="yes"/>
      <point x="725" y="1315"/>
      <point x="692" y="1348"/>
      <point x="653" y="1348" type="curve" smooth="yes"/>
      <point x="614" y="1348"/>
      <point x="582" y="1315"/>
      <point x="582" y="1276" type="curve" smooth="yes"/>
      <point x="582" y="1237"/>
      <point x="614" y="1204"/>
      <point x="653" y="1204" type="curve" smooth="yes"/>
      <point x="692" y="1204"/>
      <point x="725" y="1237"/>
    </contour>
  </outline>
</glyph>
